<?xml version="1.0" encoding="UTF-8" standalone="no"?>
<!DOCTYPE svg PUBLIC "-//W3C//DTD SVG 1.1//EN" "http://www.w3.org/Graphics/SVG/1.1/DTD/svg11.dtd">
<svg width="100%" height="100%" viewBox="0 0 514 140" version="1.1" xmlns="http://www.w3.org/2000/svg" xmlns:xlink="http://www.w3.org/1999/xlink" xml:space="preserve" xmlns:serif="http://www.serif.com/" style="fill-rule:evenodd;clip-rule:evenodd;stroke-miterlimit:10;">
    <g transform="matrix(0.960306,0,0,0.960306,0.000384123,0.000693541)">
        <g>
            <g id="Layer-1" serif:id="Layer 1">
                <g transform="matrix(1,0,0,1,197.15,119.627)">
                    <path d="M0,-20.602L8.477,-20.602L8.477,-22.963L-11.052,-22.963L-11.052,-20.602L-2.575,-20.602L-2.575,2.361L0,2.361L0,-20.602Z" style="fill:rgb(8,155,171);fill-rule:nonzero;"/>
                </g>
                <g transform="matrix(1,0,0,1,213.925,108.646)">
                    <path d="M0,1.359L12.269,1.359L12.269,-1.001L0,-1.001L0,-9.621L13.126,-9.621L13.126,-11.982L-2.576,-11.982L-2.576,13.341L13.556,13.341L13.556,10.981L0,10.981L0,1.359Z" style="fill:rgb(8,155,171);fill-rule:nonzero;"/>
                </g>
                <g transform="matrix(1,0,0,1,253.09,102.173)">
                    <path d="M0,14.306C-1.896,17.24 -4.614,18.098 -7.26,18.098C-13.771,18.098 -17.67,12.983 -17.67,7.153C-17.67,1.323 -13.771,-3.792 -7.26,-3.792C-4.578,-3.792 -1.752,-2.111 -0.751,-0.465L1.503,-2.147C-0.715,-4.972 -4.113,-6.152 -7.26,-6.152C-14.807,-6.152 -20.459,-0.537 -20.459,7.153C-20.459,14.843 -14.807,20.458 -7.26,20.458C-3.075,20.458 0.43,18.419 2.111,15.809L0,14.306Z" style="fill:rgb(8,155,171);fill-rule:nonzero;"/>
                </g>
                <g transform="matrix(1,0,0,1,261.317,96.6638)">
                    <path d="M0,25.324L2.576,25.324L2.576,13.342L16.382,13.342L16.382,25.324L18.957,25.324L18.957,0L16.382,0L16.382,10.981L2.576,10.981L2.576,0L0,0L0,25.324Z" style="fill:rgb(8,155,171);fill-rule:nonzero;"/>
                </g>
                <g transform="matrix(1,0,0,1,292.149,121.988)">
                    <path d="M0,-25.324L-3.219,-25.324L-3.219,0L-0.644,0L-0.644,-21.676L-0.572,-21.676L14.521,0L17.741,0L17.741,-25.324L15.165,-25.324L15.165,-3.864L15.094,-3.864L0,-25.324Z" style="fill:rgb(8,155,171);fill-rule:nonzero;"/>
                </g>
                <g transform="matrix(1,0,0,1,343.225,109.327)">
                    <path d="M0,-0.001C0,-7.69 -5.651,-13.306 -13.198,-13.306C-20.745,-13.306 -26.397,-7.69 -26.397,-0.001C-26.397,7.689 -20.745,13.305 -13.198,13.305C-5.651,13.305 0,7.689 0,-0.001M-2.79,-0.001C-2.79,5.829 -6.689,10.944 -13.198,10.944C-19.708,10.944 -23.607,5.829 -23.607,-0.001C-23.607,-5.831 -19.708,-10.946 -13.198,-10.946C-6.689,-10.946 -2.79,-5.831 -2.79,-0.001" style="fill:rgb(8,155,171);fill-rule:nonzero;"/>
                </g>
                <g transform="matrix(1,0,0,1,352.739,121.988)">
                    <path d="M0,-25.324L-2.575,-25.324L-2.575,0L11.803,0L11.803,-2.361L0,-2.361L0,-25.324Z" style="fill:rgb(8,155,171);fill-rule:nonzero;"/>
                </g>
                <g transform="matrix(1,0,0,1,394.516,109.327)">
                    <path d="M0,-0.001C0,-7.69 -5.652,-13.306 -13.199,-13.306C-20.746,-13.306 -26.396,-7.69 -26.396,-0.001C-26.396,7.689 -20.746,13.305 -13.199,13.305C-5.652,13.305 0,7.689 0,-0.001M-2.791,-0.001C-2.791,5.829 -6.688,10.944 -13.199,10.944C-19.709,10.944 -23.607,5.829 -23.607,-0.001C-23.607,-5.831 -19.709,-10.946 -13.199,-10.946C-6.688,-10.946 -2.791,-5.831 -2.791,-0.001" style="fill:rgb(8,155,171);fill-rule:nonzero;"/>
                </g>
                <g transform="matrix(1,0,0,1,422.093,119.233)">
                    <path d="M0,-19.815C-2.254,-22.068 -5.152,-23.213 -9.157,-23.213C-16.704,-23.213 -22.355,-17.597 -22.355,-9.908C-22.355,-2.217 -16.704,3.398 -9.157,3.398C-6.081,3.398 -2.397,2.503 0.429,0.823L0.429,-11.588L-8.192,-11.588L-8.192,-9.228L-2.146,-9.228L-2.146,-0.752C-4.043,0.322 -6.547,1.038 -9.157,1.038C-15.668,1.038 -19.565,-4.078 -19.565,-9.908C-19.565,-15.738 -15.668,-20.853 -9.157,-20.853C-6.046,-20.853 -3.649,-19.744 -1.933,-17.919L0,-19.815Z" style="fill:rgb(8,155,171);fill-rule:nonzero;"/>
                </g>
                <g transform="matrix(1,0,0,1,0,72.866)">
                    <rect x="431.07" y="23.798" width="2.575" height="25.324" style="fill:rgb(8,155,171);"/>
                </g>
                <g transform="matrix(1,0,0,1,444.875,108.646)">
                    <path d="M0,1.359L12.27,1.359L12.27,-1.001L0,-1.001L0,-9.621L13.128,-9.621L13.128,-11.982L-2.574,-11.982L-2.574,13.341L13.557,13.341L13.557,10.981L0,10.981L0,1.359Z" style="fill:rgb(8,155,171);fill-rule:nonzero;"/>
                </g>
                <g transform="matrix(1,0,0,1,479.535,119.555)">
                    <path d="M0,-20.459C-2.002,-22.748 -4.291,-23.535 -7.152,-23.535C-11.266,-23.535 -15.344,-21.246 -15.344,-16.346C-15.344,-7.082 -2.36,-11.052 -2.36,-3.898C-2.36,-0.93 -5.258,0.716 -7.797,0.716C-10.443,0.716 -12.482,-0.5 -13.556,-2.36L-15.88,-0.68C-13.949,1.968 -10.98,3.076 -7.903,3.076C-3.898,3.076 0.43,0.358 0.43,-4.256C0.43,-13.377 -12.555,-9.765 -12.555,-16.596C-12.555,-19.779 -9.8,-21.174 -7.152,-21.174C-5.008,-21.174 -3.362,-20.352 -2.253,-18.706L0,-20.459Z" style="fill:rgb(8,155,171);fill-rule:nonzero;"/>
                </g>
                <g transform="matrix(0.568826,0.822458,0.822458,-0.568826,151.485,32.3323)">
                    <path d="M2.906,-1.995C3.214,0.942 3.506,3.476 3.805,5.543L2.906,4.243C2.747,2.384 2.555,0.432 2.345,-1.607L2.906,-1.995Z" style="fill:rgb(8,155,171);fill-rule:nonzero;"/>
                </g>
                <g transform="matrix(1,0,0,1,179.858,45.3417)">
                    <path d="M0,25.631C-0.801,26.359 -1.783,26.723 -2.948,26.723L-14.162,26.723L-14.162,18.059L-2.438,18.059C-1.37,18.059 -0.497,18.483 0.183,19.333C0.861,20.182 1.202,21.238 1.202,22.5C1.202,23.859 0.802,24.903 0,25.631M-14.162,-0.946L-4.041,-0.946C-3.118,-0.946 -2.317,-0.642 -1.638,-0.036C-0.958,0.571 -0.619,1.579 -0.619,2.986C-0.619,4.588 -1.019,5.656 -1.819,6.19C-2.621,6.724 -3.506,6.991 -4.478,6.991L-14.162,6.991L-14.162,-0.946ZM13.034,16.712C11.311,14.551 8.969,13.034 6.008,12.161C8.483,11.044 10.339,9.381 11.577,7.173C12.815,4.964 13.434,2.647 13.434,0.219C13.434,-1.431 13.155,-3.045 12.597,-4.623C12.039,-6.2 11.25,-7.608 10.23,-8.846C9.211,-10.084 7.974,-11.091 6.518,-11.868C5.061,-12.644 3.435,-13.033 1.639,-13.033L-15.552,-13.033C-16.877,-8.536 -21.644,-5.421 -28.36,-2.13L-28.36,38.664L-2.948,38.664C-0.424,38.664 1.966,38.41 4.224,37.9C6.48,37.39 8.459,36.601 10.158,35.533C11.856,34.465 13.191,33.094 14.162,31.42C15.134,29.745 15.619,27.742 15.619,25.412C15.619,21.772 14.758,18.872 13.034,16.712" style="fill:rgb(8,155,171);fill-rule:nonzero;"/>
                </g>
                <g transform="matrix(1,0,0,1,0,-29.471)">
                    <rect x="198.026" y="61.78" width="14.198" height="51.697" style="fill:rgb(8,155,171);"/>
                </g>
                <g transform="matrix(1,0,0,1,217.466,32.3089)">
                    <path d="M0,51.697L0,0L23.736,0C26.261,0 28.591,0.522 30.727,1.566C32.862,2.609 34.694,3.968 36.224,5.643C37.753,7.318 38.955,9.235 39.828,11.395C40.701,13.555 41.139,15.728 41.139,17.912C41.139,20.922 40.483,23.725 39.173,26.322C37.862,28.919 36.042,31.043 33.713,32.693L45.362,51.697L29.344,51.697L19.513,35.824L14.198,35.824L14.198,51.697L0,51.697ZM14.198,23.446L23.154,23.446C24.027,23.446 24.841,22.961 25.594,21.989C26.346,21.019 26.723,19.659 26.723,17.912C26.723,16.116 26.285,14.745 25.412,13.798C24.537,12.852 23.664,12.379 22.791,12.379L14.198,12.379L14.198,23.446Z" style="fill:rgb(8,155,171);fill-rule:nonzero;"/>
                </g>
                <g transform="matrix(1,0,0,1,263.775,32.3089)">
                    <path d="M0,51.697L0,0L19.878,0C24.149,0 27.911,0.68 31.164,2.039C34.416,3.398 37.134,5.243 39.319,7.573C41.503,9.903 43.153,12.633 44.27,15.764C45.387,18.895 45.945,22.232 45.945,25.776C45.945,29.708 45.326,33.263 44.088,36.443C42.851,39.622 41.091,42.341 38.81,44.598C36.527,46.855 33.785,48.603 30.581,49.841C27.378,51.078 23.81,51.697 19.878,51.697L0,51.697ZM31.527,25.776C31.527,23.786 31.262,21.966 30.727,20.315C30.193,18.664 29.428,17.257 28.434,16.092C27.438,14.927 26.212,14.017 24.757,13.362C23.301,12.706 21.674,12.379 19.878,12.379L14.198,12.379L14.198,39.319L19.878,39.319C21.723,39.319 23.373,38.979 24.829,38.3C26.285,37.62 27.512,36.674 28.507,35.46C29.502,34.246 30.253,32.815 30.763,31.164C31.273,29.514 31.527,27.718 31.527,25.776" style="fill:rgb(8,155,171);fill-rule:nonzero;"/>
                </g>
                <g transform="matrix(1,0,0,1,356.32,45.5609)">
                    <path d="M0,25.193C0,27.523 -0.486,29.526 -1.457,31.2C-2.428,32.875 -3.763,34.246 -5.461,35.314C-7.159,36.382 -9.139,37.171 -11.395,37.681C-13.652,38.191 -16.043,38.445 -18.566,38.445L-43.979,38.445L-43.979,-13.252L-13.979,-13.252C-12.184,-13.252 -10.558,-12.864 -9.103,-12.087C-7.645,-11.31 -6.407,-10.303 -5.389,-9.065C-4.368,-7.828 -3.579,-6.419 -3.021,-4.842C-2.464,-3.265 -2.185,-1.65 -2.185,0C-2.185,2.427 -2.804,4.745 -4.042,6.954C-5.279,9.162 -7.137,10.825 -9.61,11.942C-6.651,12.815 -4.309,14.332 -2.586,16.492C-0.861,18.652 0,21.553 0,25.193M-14.417,22.281C-14.417,21.019 -14.757,19.963 -15.437,19.113C-16.115,18.264 -16.99,17.839 -18.059,17.839L-29.78,17.839L-29.78,26.504L-18.566,26.504C-17.403,26.504 -16.419,26.14 -15.618,25.412C-14.818,24.684 -14.417,23.64 -14.417,22.281M-29.78,-1.165L-29.78,6.772L-20.097,6.772C-19.126,6.772 -18.24,6.505 -17.439,5.971C-16.638,5.437 -16.237,4.369 -16.237,2.767C-16.237,1.36 -16.577,0.352 -17.256,-0.255C-17.937,-0.862 -18.736,-1.165 -19.659,-1.165L-29.78,-1.165Z" style="fill:rgb(8,155,171);fill-rule:nonzero;"/>
                </g>
                <g transform="matrix(1,0,0,1,358.868,32.3089)">
                    <path d="M0,51.697L0,0L23.738,0C26.262,0 28.591,0.522 30.727,1.566C32.862,2.609 34.696,3.968 36.225,5.643C37.753,7.318 38.955,9.235 39.829,11.395C40.703,13.555 41.14,15.728 41.14,17.912C41.14,20.922 40.484,23.725 39.174,26.322C37.863,28.919 36.043,31.043 33.713,32.693L45.362,51.697L29.344,51.697L19.515,35.824L14.199,35.824L14.199,51.697L0,51.697ZM14.199,23.446L23.155,23.446C24.028,23.446 24.842,22.961 25.594,21.989C26.346,21.019 26.723,19.659 26.723,17.912C26.723,16.116 26.285,14.745 25.412,13.798C24.539,12.852 23.664,12.379 22.791,12.379L14.199,12.379L14.199,23.446Z" style="fill:rgb(8,155,171);fill-rule:nonzero;"/>
                </g>
                <g transform="matrix(1,0,0,1,400.153,32.3089)">
                    <path d="M0,51.697L19.296,0L30.8,0L50.022,51.697L35.022,51.697L31.893,41.576L18.13,41.576L15.072,51.697L0,51.697ZM25.048,14.781L20.241,32.111L29.635,32.111L25.048,14.781Z" style="fill:rgb(8,155,171);fill-rule:nonzero;"/>
                </g>
                <g transform="matrix(1,0,0,1,0,-29.471)">
                    <rect x="450.393" y="61.78" width="14.198" height="51.697" style="fill:rgb(8,155,171);"/>
                </g>
                <g transform="matrix(1,0,0,1,484.034,57.7197)">
                    <path d="M0,0.875L0,26.286L-14.198,26.286L-14.198,-25.411L-3.131,-25.411L17.62,0.875L17.62,-25.411L31.818,-25.411L31.818,26.286L20.533,26.286L0,0.875Z" style="fill:rgb(8,155,171);fill-rule:nonzero;"/>
                </g>
                <g transform="matrix(1,0,0,1,534.114,51.4962)">
                    <path d="M0,6.977L0,0L-1.492,0L-1.492,5.386L-11.733,5.386L-11.733,6.977L0,6.977Z" style="fill:rgb(8,155,171);fill-rule:nonzero;"/>
                </g>
                <g transform="matrix(1,0,0,1,534.114,43.3086)">
                    <path d="M0,6.978L0,0L-1.492,0L-1.492,5.387L-11.733,5.387L-11.733,6.978L0,6.978Z" style="fill:rgb(8,155,171);fill-rule:nonzero;"/>
                </g>
                <g transform="matrix(1,0,0,1,523.905,42.5795)">
                    <path d="M0,-9.976C-1.243,-9.032 -1.823,-7.408 -1.823,-5.866C-1.823,-2.253 0.795,0.249 4.441,0.249C7.391,0.249 10.508,-2.055 10.508,-5.783C10.508,-8.468 8.933,-9.877 8.452,-10.225L7.441,-8.882C8.419,-8.186 9.016,-7.159 9.016,-5.816C9.016,-3.082 6.911,-1.441 4.441,-1.441C1.773,-1.441 -0.331,-3.182 -0.331,-5.816C-0.331,-6.893 0.149,-7.988 1.011,-8.65L0,-9.976Z" style="fill:rgb(8,155,171);fill-rule:nonzero;"/>
                </g>
                <g transform="matrix(1,0,0,1,0,71.467)">
                    <rect x="156.195" y="34.852" width="29.196" height="4.615" style="fill:rgb(8,155,171);stroke:rgb(16,155,171);stroke-width:0.78px;"/>
                </g>
                <g transform="matrix(1,0,0,1,152.272,100.766)">
                    <path d="M0,16.026C4.423,16.026 8.014,12.436 8.014,8.013C8.014,3.59 4.423,0 0,0C-4.422,0 -8.013,3.59 -8.013,8.013C-8.013,12.436 -4.422,16.026 0,16.026M0,11.319C1.824,11.319 3.306,9.838 3.306,8.013C3.306,6.188 1.824,4.708 0,4.708C-1.825,4.708 -3.305,6.188 -3.305,8.013C-3.305,9.838 -1.825,11.319 0,11.319" style="fill:rgb(8,155,171);"/>
                </g>
                <g transform="matrix(1,0,0,1,0,71.467)">
                    <rect x="485.113" y="34.852" width="29.196" height="4.615" style="fill:rgb(8,155,171);"/>
                </g>
                <g transform="matrix(1,0,0,1,0,71.772)">
                    <path d="M509.527,45.02L525.553,45.02L525.553,28.994L509.527,28.994L509.527,45.02ZM517.542,40.312C515.716,40.312 514.235,38.831 514.235,37.007C514.235,35.182 515.716,33.701 517.542,33.701C519.366,33.701 520.846,35.182 520.846,37.007C520.846,38.831 519.366,40.312 517.542,40.312" style="fill:rgb(8,155,171);"/>
                </g>
                <g transform="matrix(1,0,0,1,84.2466,71.1224)">
                    <path d="M0,38.675C-9.669,34.08 -7.836,22.441 -7.836,22.441C-7.836,22.441 -7.894,15.94 2.547,10.358C-1.947,4.005 -3.637,5.647 -6.98,5.282C-10.323,4.918 -15.039,1.427 -13.739,-2.423C-11.563,-8.522 4.834,-6.689 6.851,6.25C7.913,4.787 6.814,-4.376 -0.906,-7.608C-8.622,-10.682 -17.082,-7.546 -23.742,-7.483C-30.406,-7.578 -46.519,-10.372 -53.205,-11.102C-68.477,-12.496 -84.247,-9.751 -84.247,-9.751C-84.247,-9.751 -66.074,-11.783 -54.445,-10.267C-42.816,-8.751 -28.468,-6.533 -20.996,-1.23C-13.523,4.073 -12.241,18.78 -8,31.804C-5.001,40.904 13.234,45.53 29.6,51.171" style="fill:rgb(8,155,171);fill-rule:nonzero;"/>
                </g>
                <g transform="matrix(1,0,0,1,123.77,136.46)">
                    <path d="M0,-11.483C-0.317,-11.472 0.327,-11.176 0.649,-11.029C7.167,-5.853 11.238,-7.416 18.229,-2.256C25.216,2.746 27.655,9.326 27.655,9.326C26.7,4.441 22.312,-3.503 16.086,-9.481C10.848,-14.381 6.37,-15.502 6.37,-15.502C9.649,-17.038 13.989,-15.279 13.989,-15.279C13.989,-15.279 11.476,-19.32 4.61,-20.677C4.293,-20.667 3.813,-20.809 3.977,-20.656C5.99,-17.392 4.552,-12.903 0,-11.483" style="fill:rgb(8,155,171);fill-rule:nonzero;"/>
                </g>
                <g transform="matrix(1,0,0,1,115.056,111.11)">
                    <path d="M0,9.595L-0.245,10.116L-2.795,8.916L-2.55,8.395C-1.7,8.795 -0.85,9.196 0,9.595M-4.737,7.366L-4.981,7.887L-7.532,6.687L-7.287,6.166C-6.437,6.567 -5.587,6.966 -4.737,7.366M-9.473,5.137L-9.718,5.658L-12.269,4.458L-12.024,3.937C-11.174,4.337 -10.324,4.738 -9.473,5.137M-14.21,2.908L-14.455,3.429L-17.006,2.229L-16.761,1.708C-15.911,2.109 -15.06,2.508 -14.21,2.908M-18.947,0.679L-19.192,1.2L-21.743,0L-21.498,-0.521C-20.647,-0.121 -19.797,0.28 -18.947,0.679" style="fill:rgb(8,155,171);fill-rule:nonzero;"/>
                </g>
                <g transform="matrix(1,0,0,1,118.618,122.907)">
                    <path d="M0,-0.512C0.08,-0.456 0.079,-0.455 0.161,-0.402C0.233,-0.357 0.232,-0.358 0.306,-0.315C0.619,-0.141 0.949,-0.011 1.289,0.102L1.107,0.648C0.615,0.485 0.135,0.287 -0.291,-0.013L-1.613,-0.64L-1.366,-1.16C-0.911,-0.945 -0.456,-0.728 0,-0.512" style="fill:rgb(8,155,171);fill-rule:nonzero;"/>
                </g>
                <g transform="matrix(1,0,0,1,125.249,84.5623)">
                    <path d="M0,37.574C-0.164,37.737 -0.334,37.891 -0.516,38.034C-0.92,38.35 -1.369,38.611 -1.846,38.804C-2.144,38.925 -2.452,39.015 -2.766,39.085L-2.89,38.523C-2.782,38.499 -2.783,38.499 -2.675,38.472C-2.571,38.444 -2.571,38.445 -2.467,38.414C-2.194,38.328 -1.929,38.223 -1.673,38.094C-1.203,37.853 -0.78,37.537 -0.405,37.166C-0.27,37.302 -0.135,37.438 0,37.574M1.364,32.147C1.447,32.434 1.513,32.724 1.551,33.02C1.616,33.52 1.611,34.03 1.536,34.529C1.5,34.766 1.447,34.999 1.382,35.23L0.828,35.075C0.857,34.972 0.856,34.973 0.883,34.87C0.907,34.764 0.907,34.764 0.929,34.659C0.97,34.442 1,34.225 1.012,34.006C1.047,33.411 0.97,32.815 0.793,32.248L1.342,32.076C1.35,32.099 1.357,32.124 1.364,32.147M-0.051,29.76L-0.475,30.149L-2.529,27.916L-2.105,27.526C-1.421,28.27 -0.736,29.015 -0.051,29.76M-3.866,25.612L-4.29,26.002L-6.344,23.768L-5.92,23.379C-5.236,24.123 -4.551,24.867 -3.866,25.612M-7.682,21.464L-8.105,21.853L-10.159,19.62L-9.736,19.23C-9.051,19.975 -8.366,20.72 -7.682,21.464M-11.497,17.316L-11.92,17.706L-13.974,15.472L-13.551,15.082C-12.866,15.827 -12.181,16.571 -11.497,17.316M-15.312,13.168L-15.735,13.558L-17.79,11.324L-17.366,10.934C-16.681,11.679 -15.996,12.424 -15.312,13.168M-19.126,9.02L-19.55,9.41L-21.604,7.177L-21.181,6.787C-20.496,7.531 -19.811,8.276 -19.126,9.02M-24.879,2.554C-24.424,3.042 -24.007,3.56 -23.628,4.109L-23.584,4.173L-22.941,4.872L-23.365,5.262C-23.589,5.018 -23.816,4.779 -24.037,4.532C-24.063,4.502 -24.081,4.467 -24.103,4.434C-24.121,4.408 -24.139,4.382 -24.157,4.356C-24.212,4.277 -24.268,4.199 -24.324,4.122C-24.418,3.994 -24.515,3.867 -24.613,3.742C-24.832,3.469 -25.06,3.204 -25.298,2.948L-25.306,2.94L-24.888,2.544C-24.885,2.547 -24.882,2.551 -24.879,2.554M-29.567,-0.63C-29.098,-0.444 -28.639,-0.233 -28.194,0.006C-27.752,0.243 -27.326,0.508 -26.913,0.793L-26.894,0.807L-27.226,1.277C-27.335,1.2 -27.447,1.125 -27.56,1.051C-28.233,0.615 -28.944,0.244 -29.687,-0.058L-29.778,-0.094L-29.834,-0.116L-29.625,-0.653C-29.606,-0.645 -29.587,-0.637 -29.567,-0.63M-34.131,-1.51C-33.496,-1.503 -32.865,-1.451 -32.237,-1.355L-32.19,-1.347L-32.281,-0.779C-32.428,-0.803 -32.575,-0.823 -32.722,-0.842C-33.158,-0.894 -33.595,-0.926 -34.033,-0.933C-34.397,-0.939 -34.76,-0.927 -35.123,-0.904L-35.238,-0.894L-35.283,-1.468C-35.141,-1.479 -35.142,-1.479 -35,-1.488C-34.854,-1.496 -34.708,-1.502 -34.562,-1.507C-34.418,-1.509 -34.275,-1.511 -34.131,-1.51" style="fill:rgb(8,155,171);fill-rule:nonzero;"/>
                </g>
                <g transform="matrix(1,0,0,1,121.186,74.4257)">
                    <path d="M0,-2.433C-0.139,-2.101 -0.276,-1.767 -0.449,-1.451C-0.527,-1.308 -0.614,-1.171 -0.708,-1.038L-1.515,0.221L-2,-0.09C-1.728,-0.513 -1.458,-0.937 -1.185,-1.359C-1.138,-1.433 -1.087,-1.503 -1.041,-1.578C-0.838,-1.921 -0.685,-2.287 -0.532,-2.654L0,-2.433Z" style="fill:rgb(8,155,171);fill-rule:nonzero;"/>
                </g>
                <g transform="matrix(1,0,0,1,88.2212,64.6672)">
                    <path d="M0,43.806C0.446,43.909 0.895,43.991 1.349,44.045C1.812,44.1 2.276,44.126 2.742,44.131L2.834,44.131L2.835,44.706C2.694,44.707 2.553,44.704 2.411,44.702C1.979,44.685 1.549,44.654 1.121,44.597C0.699,44.54 0.282,44.461 -0.132,44.367L-0.145,44.364L-0.009,43.804C-0.006,43.805 -0.003,43.805 0,43.806M8.213,43.37C7.354,43.852 6.424,44.196 5.466,44.418L5.396,44.434L5.271,43.871C5.414,43.84 5.556,43.805 5.697,43.769C6.075,43.666 6.447,43.546 6.81,43.401C7.164,43.26 7.508,43.097 7.844,42.916L7.92,42.874L7.931,42.869C8.025,43.035 8.119,43.203 8.213,43.37M-4.658,41.583C-4.306,41.852 -3.944,42.105 -3.566,42.335C-3.188,42.568 -2.796,42.776 -2.396,42.968L-2.33,42.998L-2.572,43.521C-2.689,43.466 -2.805,43.41 -2.92,43.353C-3.288,43.165 -3.648,42.965 -3.998,42.745C-4.388,42.5 -4.762,42.233 -5.124,41.95L-4.77,41.496C-4.732,41.526 -4.695,41.554 -4.658,41.583M12.251,39.583C11.87,40.131 11.455,40.657 11.002,41.147C10.792,41.375 10.572,41.593 10.347,41.806L10.297,41.852L9.907,41.428C9.996,41.347 9.995,41.347 10.083,41.264C10.38,40.973 10.667,40.671 10.937,40.353C11.213,40.027 11.472,39.687 11.721,39.338L11.779,39.254C11.937,39.365 12.094,39.474 12.251,39.583M-8.116,37.419C-7.912,37.815 -7.691,38.201 -7.447,38.573C-7.204,38.943 -6.94,39.298 -6.661,39.642L-6.567,39.755L-6.536,39.79L-6.974,40.163C-7.622,39.404 -8.17,38.567 -8.628,37.68L-8.636,37.666L-8.121,37.409L-8.116,37.419ZM15.22,34.996L13.617,37.458L13.135,37.144L14.738,34.682C14.898,34.787 15.059,34.892 15.22,34.996M-9.433,32.292C-9.415,32.761 -9.375,33.228 -9.307,33.692C-9.239,34.147 -9.143,34.596 -9.027,35.041L-9.006,35.117L-9.562,35.268C-9.597,35.139 -9.63,35.01 -9.662,34.881C-9.759,34.463 -9.841,34.042 -9.898,33.617C-9.958,33.183 -9.991,32.748 -10.008,32.312L-10.009,32.303L-9.434,32.286C-9.434,32.288 -9.434,32.29 -9.433,32.292M18.197,30.425L16.594,32.887L16.112,32.573L17.714,30.111C17.875,30.216 18.036,30.321 18.197,30.425M-8.469,27.087C-8.522,27.212 -8.573,27.339 -8.623,27.466C-8.67,27.591 -8.716,27.716 -8.761,27.842C-8.98,28.481 -9.148,29.135 -9.265,29.801L-9.271,29.834L-9.838,29.739C-9.813,29.587 -9.784,29.435 -9.753,29.284C-9.667,28.868 -9.562,28.457 -9.436,28.053C-9.311,27.652 -9.165,27.259 -9.002,26.871L-8.998,26.86L-8.469,27.087ZM21.174,25.854L19.571,28.315L19.088,28.001L20.691,25.54C20.852,25.644 21.013,25.749 21.174,25.854M-5.399,22.78C-5.522,22.89 -5.641,23.005 -5.76,23.12C-5.876,23.235 -5.992,23.352 -6.104,23.472C-6.532,23.929 -6.924,24.414 -7.281,24.928L-7.285,24.933L-7.76,24.608C-7.681,24.492 -7.598,24.378 -7.515,24.264C-7.248,23.906 -6.965,23.559 -6.664,23.228C-6.385,22.923 -6.092,22.633 -5.787,22.355L-5.783,22.352C-5.655,22.494 -5.527,22.638 -5.399,22.78M24.151,21.283L22.548,23.744L22.065,23.43L23.668,20.969C23.829,21.073 23.99,21.178 24.151,21.283M-1.062,19.516L-3.411,21.281L-3.757,20.821L-1.408,19.056L-1.062,19.516ZM27.128,16.711L25.525,19.173L25.042,18.859L26.646,16.397C26.806,16.502 26.967,16.607 27.128,16.711M3.298,16.24L0.95,18.004L0.604,17.544L2.953,15.779C3.068,15.932 3.183,16.086 3.298,16.24M7.66,12.962L5.312,14.727L4.965,14.267L7.314,12.502L7.66,12.962ZM30.105,12.14L28.501,14.601L28.02,14.287L29.623,11.826C29.783,11.931 29.944,12.035 30.105,12.14M12.021,9.685L9.672,11.45L9.327,10.99L11.675,9.225C11.79,9.378 11.906,9.532 12.021,9.685M16.382,6.408L14.034,8.173L13.688,7.712L16.036,5.948L16.382,6.408ZM20.743,3.131L18.395,4.895L18.049,4.435L20.397,2.671L20.743,3.131ZM32.301,1.911C32.621,2.403 32.874,2.933 33.045,3.494C33.162,3.879 33.238,4.273 33.281,4.672L33.288,4.746L32.715,4.8C32.707,4.708 32.696,4.616 32.684,4.524C32.632,4.166 32.55,3.813 32.432,3.471C32.281,3.033 32.073,2.617 31.82,2.227L31.796,2.191L32.275,1.872C32.284,1.886 32.293,1.898 32.301,1.911M25.105,0.035C25.016,0.068 24.927,0.105 24.839,0.143C24.755,0.181 24.672,0.22 24.59,0.26C24.304,0.405 24.03,0.569 23.77,0.757C23.491,0.959 23.231,1.184 22.987,1.427L22.923,1.493L22.756,1.618L22.41,1.158L22.542,1.059C22.625,0.975 22.709,0.893 22.795,0.813C23.146,0.492 23.525,0.203 23.936,-0.039C24.241,-0.219 24.56,-0.371 24.89,-0.499L24.904,-0.505C24.971,-0.325 25.038,-0.145 25.105,0.035M27.497,-0.89C27.896,-0.861 28.291,-0.8 28.678,-0.698C29.267,-0.543 29.828,-0.298 30.349,0.018L30.395,0.047L30.091,0.535C30.002,0.48 29.912,0.427 29.82,0.376C29.412,0.153 28.981,-0.023 28.531,-0.141C28.18,-0.234 27.821,-0.29 27.459,-0.315C27.471,-0.507 27.305,-0.901 27.497,-0.89" style="fill:rgb(8,155,171);fill-rule:nonzero;"/>
                </g>
                <g transform="matrix(1,0,0,1,101.358,98.9441)">
                    <path d="M0,-4.741C0.042,-4.742 0.084,-4.786 0.125,-4.83C0.167,-4.874 0.164,-4.96 0.162,-5.002C0.161,-5.045 0.117,-5.086 0.073,-5.127C0.029,-5.168 -0.014,-5.167 -0.099,-5.164C-0.142,-5.163 -0.481,-5.109 -0.778,-5.056C-0.825,-5.183 -0.874,-5.352 -0.92,-5.478C-0.669,-5.615 -0.375,-5.752 -0.332,-5.754C-0.291,-5.798 -0.25,-5.842 -0.208,-5.886C-0.167,-5.93 -0.17,-6.015 -0.214,-6.056C-0.216,-6.099 -0.26,-6.14 -0.304,-6.181C-0.348,-6.222 -0.391,-6.221 -0.476,-6.218C-0.518,-6.217 -0.856,-6.12 -1.11,-6.069C-1.157,-6.196 -1.206,-6.365 -1.295,-6.49C-1.044,-6.626 -0.794,-6.805 -0.71,-6.85C-0.669,-6.894 -0.627,-6.938 -0.629,-6.981C-0.63,-7.024 -0.633,-7.109 -0.635,-7.151C-0.679,-7.193 -0.723,-7.234 -0.767,-7.275C-0.811,-7.316 -0.896,-7.313 -0.937,-7.269C-0.98,-7.268 -1.274,-7.13 -1.569,-7.035C-1.616,-7.161 -1.706,-7.286 -1.795,-7.411C-1.545,-7.59 -1.295,-7.769 -1.254,-7.813C-1.213,-7.857 -1.171,-7.901 -1.173,-7.944C-1.174,-7.987 -1.177,-8.072 -1.221,-8.113C-1.265,-8.154 -1.309,-8.196 -1.352,-8.194C-1.395,-8.193 -1.479,-8.19 -1.522,-8.188C-1.563,-8.144 -1.857,-8.007 -2.11,-7.913C-2.2,-8.038 -2.29,-8.163 -2.379,-8.288C-2.171,-8.465 -1.923,-8.687 -1.882,-8.731C-1.84,-8.775 -1.799,-8.819 -1.801,-8.862C-1.802,-8.904 -1.805,-8.99 -1.849,-9.031C-1.893,-9.072 -1.937,-9.113 -1.979,-9.112C-2.022,-9.11 -2.107,-9.107 -2.15,-9.106C-2.191,-9.062 -2.484,-8.882 -2.735,-8.745C-2.825,-8.87 -2.914,-8.995 -3.045,-9.076C-2.839,-9.296 -2.633,-9.516 -2.592,-9.56C-2.55,-9.604 -2.552,-9.647 -2.555,-9.732C-2.556,-9.775 -2.559,-9.86 -2.603,-9.901C-2.647,-9.943 -2.691,-9.984 -2.734,-9.982C-2.776,-9.981 -2.861,-9.978 -2.903,-9.934C-2.944,-9.89 -3.194,-9.711 -3.444,-9.532C-3.533,-9.657 -3.664,-9.738 -3.752,-9.82C-3.589,-10.039 -3.427,-10.3 -3.387,-10.387C-3.346,-10.431 -3.347,-10.474 -3.35,-10.559C-3.352,-10.601 -3.397,-10.685 -3.439,-10.684C-3.483,-10.725 -3.526,-10.723 -3.611,-10.721C-3.654,-10.72 -3.739,-10.717 -3.78,-10.673C-3.822,-10.629 -4.07,-10.407 -4.276,-10.187C-4.407,-10.268 -4.495,-10.35 -4.627,-10.474C-4.508,-10.734 -4.346,-10.995 -4.305,-11.039C-4.263,-11.083 -4.266,-11.168 -4.268,-11.211C-4.269,-11.253 -4.313,-11.295 -4.357,-11.336C-4.401,-11.377 -4.444,-11.376 -4.529,-11.373C-4.572,-11.371 -4.655,-11.326 -4.654,-11.283C-4.695,-11.239 -4.9,-10.976 -5.063,-10.758C-5.194,-10.839 -5.324,-10.92 -5.455,-11.001C-5.336,-11.261 -5.218,-11.563 -5.177,-11.607C-5.135,-11.651 -5.138,-11.737 -5.182,-11.778C-5.184,-11.82 -5.228,-11.862 -5.272,-11.903C-5.316,-11.944 -5.401,-11.941 -5.444,-11.94C-5.486,-11.938 -5.527,-11.894 -5.569,-11.85C-5.61,-11.806 -5.772,-11.545 -5.934,-11.283C-6.064,-11.365 -6.194,-11.403 -6.324,-11.484C-6.248,-11.742 -6.13,-12.045 -6.132,-12.13L-6.138,-12.3C-6.182,-12.342 -6.226,-12.383 -6.271,-12.424C-6.314,-12.465 -6.399,-12.462 -6.441,-12.418C-6.483,-12.417 -6.524,-12.373 -6.566,-12.329C-6.607,-12.285 -6.725,-11.982 -6.887,-11.721C-7.016,-11.759 -7.147,-11.84 -7.318,-11.877C-7.286,-12.177 -7.21,-12.478 -7.169,-12.522C-7.171,-12.565 -7.174,-12.65 -7.218,-12.691C-7.262,-12.732 -7.306,-12.773 -7.348,-12.772C-7.391,-12.771 -7.476,-12.768 -7.519,-12.766C-7.562,-12.765 -7.603,-12.721 -7.642,-12.634C-7.684,-12.59 -7.801,-12.287 -7.878,-12.029C-8.007,-12.068 -8.179,-12.104 -8.309,-12.143C-8.276,-12.443 -8.243,-12.742 -8.246,-12.827C-8.248,-12.87 -8.25,-12.955 -8.294,-12.996C-8.338,-13.037 -8.382,-13.079 -8.425,-13.077C-8.468,-13.076 -8.553,-13.073 -8.594,-13.029C-8.635,-12.985 -8.676,-12.941 -8.675,-12.899C-8.673,-12.856 -8.792,-12.553 -8.867,-12.252C-8.996,-12.291 -9.167,-12.285 -9.296,-12.323C-9.306,-12.621 -9.315,-12.92 -9.318,-13.005C-9.32,-13.048 -9.365,-13.132 -9.367,-13.174C-9.411,-13.215 -9.455,-13.256 -9.498,-13.255C-9.54,-13.254 -9.625,-13.251 -9.667,-13.207C-9.708,-13.163 -9.749,-13.119 -9.747,-13.076C-9.746,-13.033 -9.82,-12.69 -9.854,-12.433C-9.981,-12.428 -10.152,-12.423 -10.281,-12.461C-10.334,-12.758 -10.344,-13.056 -10.347,-13.141C-10.348,-13.184 -10.394,-13.268 -10.436,-13.266C-10.48,-13.307 -10.523,-13.306 -10.608,-13.304C-10.65,-13.302 -10.736,-13.299 -10.777,-13.255C-10.818,-13.211 -10.859,-13.167 -10.858,-13.124C-10.855,-13.039 -10.888,-12.74 -10.92,-12.44C-11.091,-12.434 -11.219,-12.43 -11.345,-12.383C-11.398,-12.68 -11.493,-12.975 -11.494,-13.018C-11.496,-13.06 -11.54,-13.102 -11.583,-13.143C-11.628,-13.184 -11.67,-13.183 -11.756,-13.18C-11.798,-13.179 -11.882,-13.133 -11.923,-13.089C-11.964,-13.045 -11.963,-13.002 -11.96,-12.917C-11.958,-12.874 -11.947,-12.533 -11.938,-12.235C-12.065,-12.231 -12.234,-12.183 -12.361,-12.136C-12.456,-12.431 -12.551,-12.727 -12.595,-12.768C-12.597,-12.81 -12.641,-12.852 -12.685,-12.893C-12.729,-12.934 -12.771,-12.933 -12.856,-12.93C-12.899,-12.929 -12.94,-12.885 -12.981,-12.84C-13.022,-12.796 -13.021,-12.754 -13.019,-12.669C-13.016,-12.583 -12.963,-12.286 -12.91,-11.99C-13.037,-11.943 -13.206,-11.894 -13.332,-11.847C-13.469,-12.099 -13.606,-12.393 -13.608,-12.436C-13.652,-12.477 -13.696,-12.518 -13.74,-12.559C-13.783,-12.558 -13.869,-12.597 -13.91,-12.553C-13.953,-12.552 -13.994,-12.508 -14.035,-12.464C-14.077,-12.42 -14.075,-12.377 -14.072,-12.292C-14.071,-12.25 -13.974,-11.911 -13.923,-11.658C-14.049,-11.611 -14.219,-11.562 -14.344,-11.473C-14.48,-11.724 -14.659,-11.974 -14.704,-12.058C-14.749,-12.099 -14.792,-12.14 -14.835,-12.139C-14.877,-12.137 -14.963,-12.135 -15.005,-12.133C-15.046,-12.089 -15.089,-12.088 -15.129,-12.001C-15.17,-11.957 -15.167,-11.872 -15.124,-11.831C-15.079,-11.789 -14.984,-11.494 -14.889,-11.199C-15.014,-11.109 -15.141,-11.062 -15.266,-10.973C-15.444,-11.223 -15.623,-11.473 -15.667,-11.514C-15.711,-11.555 -15.755,-11.596 -15.798,-11.595C-15.841,-11.594 -15.926,-11.591 -15.967,-11.547C-16.008,-11.503 -16.049,-11.459 -16.091,-11.414C-16.089,-11.372 -16.086,-11.287 -16.085,-11.244C-16.041,-11.203 -15.903,-10.909 -15.81,-10.656C-15.935,-10.567 -16.06,-10.477 -16.185,-10.387C-16.362,-10.595 -16.583,-10.844 -16.627,-10.885C-16.671,-10.926 -16.716,-10.967 -16.801,-10.964C-16.843,-10.963 -16.929,-10.96 -16.97,-10.916C-17.011,-10.872 -17.052,-10.828 -17.051,-10.785C-17.049,-10.743 -17.046,-10.658 -17.045,-10.615C-17.001,-10.574 -16.863,-10.28 -16.686,-10.073C-16.811,-9.983 -16.893,-9.895 -17.017,-9.762C-17.237,-9.969 -17.457,-10.175 -17.501,-10.216C-17.545,-10.257 -17.588,-10.256 -17.673,-10.253C-17.715,-10.251 -17.801,-10.248 -17.842,-10.204C-17.883,-10.16 -17.924,-10.116 -17.923,-10.074C-17.921,-10.031 -17.919,-9.946 -17.875,-9.905C-17.831,-9.864 -17.652,-9.614 -17.473,-9.364C-17.598,-9.274 -17.679,-9.143 -17.761,-9.055C-17.98,-9.219 -18.243,-9.423 -18.328,-9.42C-18.372,-9.462 -18.415,-9.46 -18.5,-9.457C-18.542,-9.456 -18.583,-9.412 -18.625,-9.368C-18.666,-9.324 -18.665,-9.282 -18.662,-9.196C-18.66,-9.154 -18.657,-9.068 -18.613,-9.027C-18.569,-8.986 -18.348,-8.737 -18.127,-8.532C-18.208,-8.401 -18.291,-8.313 -18.415,-8.18C-18.674,-8.3 -18.936,-8.462 -18.98,-8.503C-19.024,-8.544 -19.109,-8.541 -19.151,-8.54C-19.194,-8.538 -19.235,-8.494 -19.277,-8.45C-19.318,-8.407 -19.316,-8.364 -19.313,-8.279C-19.312,-8.236 -19.267,-8.152 -19.224,-8.154C-19.18,-8.113 -18.917,-7.908 -18.699,-7.744C-18.779,-7.614 -18.86,-7.483 -18.941,-7.352C-19.201,-7.472 -19.504,-7.59 -19.548,-7.631C-19.592,-7.672 -19.677,-7.669 -19.718,-7.625C-19.761,-7.624 -19.802,-7.58 -19.843,-7.536C-19.885,-7.491 -19.882,-7.407 -19.88,-7.364C-19.879,-7.321 -19.833,-7.238 -19.791,-7.239C-19.747,-7.198 -19.485,-7.036 -19.224,-6.874C-19.305,-6.743 -19.343,-6.614 -19.424,-6.483C-19.683,-6.56 -19.985,-6.678 -20.071,-6.675C-20.113,-6.674 -20.198,-6.671 -20.241,-6.669C-20.282,-6.625 -20.325,-6.624 -20.365,-6.537C-20.406,-6.493 -20.403,-6.408 -20.359,-6.367C-20.357,-6.324 -20.313,-6.283 -20.27,-6.242C-20.226,-6.2 -19.923,-6.083 -19.662,-5.921C-19.7,-5.792 -19.779,-5.618 -19.818,-5.489C-20.118,-5.522 -20.418,-5.597 -20.462,-5.638C-20.505,-5.637 -20.591,-5.634 -20.632,-5.59C-20.673,-5.546 -20.714,-5.502 -20.713,-5.459C-20.711,-5.417 -20.708,-5.331 -20.707,-5.289C-20.663,-5.248 -20.662,-5.205 -20.575,-5.165C-20.531,-5.124 -20.229,-5.006 -19.97,-4.929C-20.008,-4.8 -20.045,-4.628 -20.083,-4.499C-20.383,-4.532 -20.683,-4.564 -20.768,-4.562C-20.811,-4.56 -20.896,-4.557 -20.937,-4.513C-20.979,-4.47 -21.02,-4.425 -21.018,-4.383C-21.017,-4.34 -21.014,-4.255 -20.97,-4.214C-20.926,-4.173 -20.882,-4.131 -20.838,-4.09C-20.795,-4.092 -20.493,-3.973 -20.191,-3.898C-20.23,-3.769 -20.224,-3.598 -20.263,-3.47C-20.561,-3.459 -20.859,-3.449 -20.944,-3.447C-20.987,-3.445 -21.071,-3.4 -21.113,-3.398C-21.154,-3.354 -21.196,-3.31 -21.194,-3.268C-21.193,-3.225 -21.19,-3.14 -21.146,-3.099C-21.102,-3.057 -21.058,-3.016 -21.015,-3.018C-20.93,-3.021 -20.629,-2.945 -20.372,-2.911C-20.366,-2.741 -20.362,-2.613 -20.399,-2.441C-20.696,-2.388 -20.994,-2.379 -21.079,-2.376C-21.122,-2.374 -21.206,-2.329 -21.205,-2.286C-21.246,-2.242 -21.244,-2.199 -21.241,-2.115C-21.24,-2.072 -21.237,-1.987 -21.193,-1.946C-21.149,-1.904 -21.105,-1.863 -21.062,-1.865C-20.977,-1.867 -20.677,-1.835 -20.379,-1.845C-20.374,-1.674 -20.369,-1.546 -20.363,-1.376C-20.661,-1.323 -20.956,-1.228 -20.999,-1.227C-21.041,-1.225 -21.082,-1.181 -21.124,-1.137C-21.165,-1.093 -21.163,-1.051 -21.16,-0.965C-21.159,-0.923 -21.113,-0.839 -21.071,-0.84C-21.027,-0.799 -20.983,-0.758 -20.897,-0.761C-20.812,-0.763 -20.514,-0.774 -20.216,-0.783C-20.211,-0.656 -20.163,-0.487 -20.116,-0.36C-20.369,-0.266 -20.707,-0.17 -20.749,-0.126C-20.791,-0.124 -20.832,-0.08 -20.872,0.006C-20.913,0.05 -20.912,0.093 -20.909,0.178C-20.908,0.221 -20.863,0.262 -20.819,0.303C-20.775,0.344 -20.733,0.343 -20.647,0.34C-20.605,0.339 -20.266,0.285 -19.969,0.232C-19.922,0.359 -19.874,0.528 -19.827,0.654C-20.078,0.79 -20.372,0.928 -20.415,0.929C-20.456,0.973 -20.497,1.018 -20.538,1.062C-20.58,1.106 -20.577,1.191 -20.533,1.232C-20.531,1.275 -20.487,1.316 -20.443,1.357C-20.399,1.398 -20.356,1.397 -20.271,1.394C-20.229,1.393 -19.891,1.296 -19.636,1.245C-19.589,1.371 -19.541,1.54 -19.452,1.666C-19.703,1.801 -19.953,1.98 -20.037,2.026C-20.078,2.07 -20.119,2.114 -20.118,2.157C-20.117,2.199 -20.114,2.285 -20.112,2.327C-20.068,2.368 -20.024,2.41 -19.98,2.451C-19.936,2.492 -19.851,2.489 -19.81,2.445C-19.767,2.444 -19.473,2.305 -19.178,2.211C-19.131,2.337 -19.042,2.462 -18.952,2.588C-19.202,2.766 -19.452,2.945 -19.493,2.989C-19.534,3.033 -19.575,3.077 -19.574,3.12C-19.573,3.163 -19.57,3.248 -19.526,3.289C-19.481,3.33 -19.437,3.371 -19.395,3.37C-19.353,3.368 -19.266,3.408 -19.225,3.364C-19.184,3.32 -18.89,3.182 -18.637,3.089C-18.547,3.214 -18.458,3.339 -18.368,3.464C-18.576,3.641 -18.824,3.863 -18.865,3.907C-18.906,3.951 -18.948,3.995 -18.945,4.08C-18.943,4.123 -18.94,4.208 -18.896,4.249C-18.853,4.29 -18.809,4.331 -18.766,4.33C-18.723,4.329 -18.638,4.326 -18.597,4.282C-18.556,4.238 -18.263,4.057 -18.012,3.921C-17.922,4.046 -17.833,4.171 -17.702,4.252C-17.908,4.471 -18.114,4.692 -18.154,4.779C-18.195,4.823 -18.193,4.865 -18.191,4.951C-18.189,4.993 -18.144,5.077 -18.143,5.12C-18.098,5.161 -18.054,5.202 -18.012,5.201C-17.969,5.199 -17.884,5.196 -17.843,5.152C-17.802,5.108 -17.551,4.929 -17.302,4.751C-17.212,4.876 -17.082,4.957 -16.993,5.039C-17.157,5.258 -17.361,5.52 -17.358,5.605C-17.399,5.649 -17.398,5.692 -17.395,5.777C-17.394,5.82 -17.35,5.861 -17.306,5.902C-17.262,5.943 -17.219,5.942 -17.134,5.939C-17.091,5.938 -17.006,5.935 -16.965,5.891C-16.924,5.846 -16.675,5.626 -16.469,5.405C-16.338,5.486 -16.25,5.568 -16.119,5.692C-16.238,5.952 -16.399,6.214 -16.439,6.3C-16.48,6.344 -16.478,6.429 -16.477,6.471C-16.475,6.514 -16.431,6.555 -16.387,6.596C-16.343,6.638 -16.3,6.636 -16.215,6.634C-16.172,6.633 -16.088,6.587 -16.09,6.545C-16.049,6.501 -15.844,6.238 -15.681,6.018C-15.55,6.099 -15.419,6.18 -15.289,6.261C-15.408,6.521 -15.526,6.824 -15.567,6.868C-15.608,6.912 -15.606,6.998 -15.562,7.039C-15.561,7.081 -15.516,7.123 -15.472,7.164C-15.428,7.205 -15.343,7.202 -15.3,7.201C-15.258,7.199 -15.174,7.154 -15.175,7.111C-15.134,7.067 -14.972,6.805 -14.811,6.545C-14.68,6.626 -14.55,6.664 -14.42,6.745C-14.497,7.003 -14.614,7.305 -14.611,7.391C-14.61,7.433 -14.607,7.519 -14.606,7.561C-14.562,7.602 -14.561,7.645 -14.474,7.685C-14.43,7.726 -14.345,7.723 -14.303,7.679C-14.261,7.677 -14.22,7.634 -14.178,7.59C-14.137,7.546 -14.019,7.243 -13.857,6.982C-13.728,7.02 -13.597,7.101 -13.425,7.138C-13.458,7.438 -13.534,7.739 -13.532,7.782C-13.531,7.824 -13.528,7.909 -13.484,7.951C-13.44,7.992 -13.396,8.033 -13.353,8.032C-13.311,8.03 -13.225,8.027 -13.183,8.026C-13.14,8.024 -13.099,7.98 -13.059,7.894C-13.018,7.849 -12.9,7.548 -12.823,7.289C-12.694,7.327 -12.522,7.364 -12.393,7.402C-12.426,7.702 -12.458,8.002 -12.456,8.087C-12.454,8.13 -12.451,8.215 -12.407,8.256C-12.363,8.298 -12.319,8.339 -12.276,8.337C-12.234,8.336 -12.149,8.333 -12.107,8.289C-12.066,8.245 -12.025,8.201 -11.984,8.157C-11.985,8.114 -11.867,7.811 -11.792,7.51C-11.663,7.549 -11.493,7.543 -11.363,7.582C-11.354,7.88 -11.343,8.178 -11.34,8.263C-11.339,8.305 -11.293,8.389 -11.292,8.432C-11.248,8.473 -11.204,8.514 -11.162,8.513C-11.119,8.511 -11.034,8.509 -10.993,8.465C-10.951,8.421 -10.91,8.377 -10.912,8.334C-10.915,8.249 -10.839,7.948 -10.805,7.691C-10.677,7.686 -10.507,7.68 -10.377,7.719C-10.325,8.016 -10.315,8.314 -10.312,8.399C-10.311,8.442 -10.265,8.526 -10.223,8.524C-10.179,8.566 -10.136,8.564 -10.051,8.561C-10.008,8.56 -9.924,8.514 -9.882,8.513C-9.841,8.469 -9.799,8.426 -9.801,8.383C-9.802,8.34 -9.771,7.998 -9.738,7.698C-9.61,7.694 -9.44,7.688 -9.313,7.641C-9.261,7.938 -9.166,8.233 -9.165,8.276C-9.163,8.319 -9.118,8.402 -9.075,8.401C-9.031,8.442 -8.988,8.441 -8.903,8.438C-8.86,8.436 -8.777,8.391 -8.778,8.348C-8.737,8.304 -8.738,8.261 -8.741,8.176C-8.743,8.134 -8.754,7.794 -8.764,7.495C-8.636,7.491 -8.467,7.442 -8.341,7.395C-8.247,7.648 -8.15,7.986 -8.106,8.027C-8.105,8.07 -8.061,8.111 -8.017,8.152C-7.973,8.194 -7.93,8.192 -7.845,8.189C-7.802,8.188 -7.761,8.144 -7.72,8.1C-7.679,8.056 -7.68,8.013 -7.683,7.928C-7.686,7.842 -7.738,7.546 -7.791,7.25C-7.665,7.202 -7.496,7.154 -7.369,7.107C-7.233,7.359 -7.095,7.652 -7.092,7.738C-7.048,7.779 -7.004,7.82 -6.96,7.861C-6.917,7.86 -6.831,7.9 -6.79,7.856C-6.747,7.854 -6.706,7.81 -6.665,7.766C-6.624,7.722 -6.625,7.679 -6.628,7.594C-6.629,7.551 -6.726,7.214 -6.777,6.96C-6.65,6.913 -6.481,6.864 -6.356,6.775C-6.22,7.026 -6.041,7.276 -5.996,7.36C-5.952,7.401 -5.908,7.442 -5.865,7.441C-5.822,7.439 -5.737,7.437 -5.695,7.435C-5.653,7.391 -5.612,7.347 -5.571,7.303C-5.53,7.259 -5.533,7.174 -5.577,7.133C-5.578,7.091 -5.716,6.797 -5.811,6.501C-5.685,6.454 -5.56,6.364 -5.435,6.275C-5.256,6.525 -5.077,6.775 -5.033,6.816C-4.989,6.857 -4.945,6.898 -4.902,6.897C-4.859,6.895 -4.774,6.893 -4.733,6.848C-4.692,6.804 -4.65,6.76 -4.652,6.718C-4.653,6.676 -4.656,6.591 -4.658,6.548C-4.702,6.507 -4.839,6.213 -4.933,5.96C-4.808,5.87 -4.683,5.781 -4.558,5.691C-4.381,5.898 -4.159,6.147 -4.115,6.188C-4.071,6.229 -4.027,6.271 -3.984,6.269C-3.942,6.268 -3.856,6.265 -3.815,6.221C-3.774,6.177 -3.733,6.134 -3.734,6.091C-3.736,6.048 -3.739,5.963 -3.74,5.92C-3.784,5.879 -3.922,5.585 -4.101,5.335C-3.976,5.245 -3.851,5.156 -3.77,5.025C-3.55,5.231 -3.33,5.437 -3.243,5.477C-3.199,5.518 -3.156,5.516 -3.071,5.513C-3.028,5.512 -2.945,5.467 -2.902,5.466C-2.861,5.422 -2.82,5.378 -2.821,5.335C-2.822,5.293 -2.825,5.207 -2.87,5.166C-2.914,5.125 -3.092,4.875 -3.271,4.625C-3.146,4.535 -3.065,4.405 -2.983,4.316C-2.764,4.48 -2.501,4.684 -2.417,4.681C-2.372,4.722 -2.33,4.721 -2.245,4.718C-2.202,4.717 -2.118,4.672 -2.12,4.629C-2.078,4.585 -2.08,4.543 -2.083,4.457C-2.084,4.415 -2.087,4.329 -2.131,4.288C-2.175,4.247 -2.396,3.999 -2.617,3.793C-2.536,3.662 -2.453,3.574 -2.33,3.441C-2.07,3.561 -1.808,3.722 -1.722,3.762C-1.678,3.803 -1.592,3.801 -1.55,3.8C-1.507,3.798 -1.466,3.754 -1.425,3.71C-1.384,3.666 -1.385,3.624 -1.388,3.538C-1.389,3.496 -1.435,3.412 -1.479,3.371C-1.523,3.33 -1.786,3.125 -2.004,2.962L-1.761,2.569C-1.501,2.689 -1.199,2.806 -1.155,2.847C-1.111,2.889 -1.026,2.886 -0.984,2.842C-0.942,2.841 -0.901,2.797 -0.859,2.753C-0.818,2.709 -0.821,2.624 -0.823,2.581C-0.824,2.538 -0.868,2.497 -0.912,2.456C-0.956,2.415 -1.217,2.253 -1.479,2.091C-1.398,1.96 -1.359,1.831 -1.278,1.7C-1.02,1.777 -0.717,1.895 -0.632,1.892C-0.589,1.89 -0.504,1.887 -0.462,1.886C-0.42,1.842 -0.379,1.799 -0.338,1.755C-0.297,1.711 -0.3,1.625 -0.344,1.584C-0.345,1.541 -0.389,1.5 -0.434,1.459C-0.478,1.418 -0.78,1.3 -1.042,1.138C-1.003,1.009 -0.922,0.878 -0.885,0.706C-0.584,0.781 -0.284,0.814 -0.24,0.855C-0.198,0.854 -0.112,0.851 -0.071,0.807C-0.03,0.763 0.011,0.719 0.01,0.676C0.008,0.634 0.005,0.549 0.004,0.506C0.003,0.463 -0.041,0.422 -0.128,0.382C-0.172,0.341 -0.475,0.223 -0.733,0.146C-0.694,0.017 -0.658,-0.155 -0.619,-0.284C-0.319,-0.251 -0.02,-0.219 0.065,-0.221C0.108,-0.223 0.193,-0.226 0.234,-0.27C0.275,-0.314 0.316,-0.358 0.315,-0.4C0.314,-0.443 0.311,-0.528 0.267,-0.57C0.223,-0.611 0.179,-0.652 0.136,-0.65C0.094,-0.649 -0.209,-0.767 -0.51,-0.842C-0.473,-1.014 -0.477,-1.142 -0.439,-1.271C-0.141,-1.281 0.158,-1.291 0.243,-1.294C0.286,-1.295 0.369,-1.341 0.412,-1.342C0.453,-1.386 0.494,-1.43 0.493,-1.473C0.491,-1.515 0.489,-1.6 0.445,-1.642C0.4,-1.683 0.356,-1.724 0.314,-1.723C0.271,-1.721 -0.072,-1.795 -0.33,-1.829C-0.335,-2 -0.339,-2.128 -0.301,-2.257C-0.004,-2.309 0.294,-2.319 0.379,-2.322C0.422,-2.324 0.506,-2.369 0.504,-2.411C0.545,-2.455 0.544,-2.498 0.541,-2.583C0.54,-2.626 0.537,-2.711 0.493,-2.752C0.449,-2.794 0.405,-2.835 0.362,-2.833C0.277,-2.83 -0.022,-2.863 -0.322,-2.896C-0.328,-3.066 -0.333,-3.194 -0.38,-3.363C-0.083,-3.416 0.212,-3.511 0.254,-3.512C0.297,-3.514 0.338,-3.558 0.379,-3.602C0.42,-3.646 0.419,-3.688 0.417,-3.774C0.415,-3.816 0.37,-3.9 0.325,-3.941C0.281,-3.983 0.239,-3.981 0.153,-3.978C0.068,-3.975 -0.23,-3.966 -0.528,-3.955C-0.533,-4.083 -0.581,-4.252 -0.627,-4.379C-0.336,-4.602 -0.041,-4.697 0,-4.741M-8.305,5.901C-12.917,7.036 -17.576,4.205 -18.712,-0.449C-19.846,-5.061 -17.015,-9.72 -12.403,-10.855C-7.792,-11.99 -3.133,-9.158 -1.997,-4.504C-0.861,0.151 -3.692,4.809 -8.305,5.901" style="fill:rgb(8,155,171);fill-rule:nonzero;"/>
                </g>
                <g transform="matrix(1,0,0,1,88.9458,105.141)">
                    <path d="M0,-17.307C-4.782,-16.166 -7.693,-11.335 -6.51,-6.554C-5.327,-1.773 -0.538,1.139 4.245,-0.001C9.026,-1.184 11.938,-5.974 10.755,-10.754C9.572,-15.535 4.74,-18.446 0,-17.307M1.91,-13.744C4.732,-13.838 7.1,-11.623 7.194,-8.802C7.288,-5.979 5.073,-3.612 2.251,-3.518C-0.571,-3.424 -2.939,-5.639 -3.033,-8.461C-3.126,-11.283 -0.912,-13.651 1.91,-13.744" style="fill:rgb(8,155,171);"/>
                </g>
                <g transform="matrix(1,0,0,1,94.9649,96.0856)">
                    <path d="M0,0.847C0.226,-1.336 -1.332,-3.289 -3.515,-3.515C-5.698,-3.741 -7.651,-2.183 -7.877,0C-8.103,2.183 -6.545,4.137 -4.362,4.362C-2.179,4.588 -0.226,3.03 0,0.847M-4.298,3.72C-4.77,3.651 -5.2,3.537 -5.592,3.294L-4.491,1.764C-4.362,1.803 -4.232,1.841 -4.104,1.837C-3.42,1.899 -2.794,1.495 -2.558,0.889L-0.717,1.084C-1.045,2.759 -2.585,3.919 -4.298,3.72M-3.211,0.485C-3.241,0.869 -3.615,1.18 -4.042,1.152C-4.47,1.124 -4.738,0.749 -4.71,0.321C-4.68,-0.064 -4.306,-0.375 -3.879,-0.346C-3.45,-0.275 -3.139,0.098 -3.211,0.485M-0.613,0.356L-2.454,0.161C-2.561,-0.475 -3.089,-0.97 -3.775,-1.075C-3.903,-1.07 -4.031,-1.067 -4.159,-1.062L-4.898,-2.786C-4.477,-2.928 -4.05,-2.943 -3.581,-2.916C-1.91,-2.715 -0.626,-1.308 -0.613,0.356M-7.235,0.064C-7.102,-1.049 -6.491,-1.923 -5.613,-2.464L-4.873,-0.739C-5.164,-0.517 -5.366,-0.169 -5.437,0.26C-5.467,0.645 -5.369,1.026 -5.102,1.358L-6.203,2.888C-6.953,2.145 -7.37,1.135 -7.235,0.064" style="fill:rgb(8,155,171);fill-rule:nonzero;"/>
                </g>
                <g transform="matrix(1,0,0,1,124.871,118.425)">
                    <path d="M0,-0.899C-0.128,-0.895 -0.256,-0.89 -0.385,-0.929C-0.513,-0.924 -0.598,-0.921 -0.728,-0.961C-0.77,-0.959 -0.812,-0.958 -0.855,-0.956C-0.858,-1.041 -0.902,-1.083 -0.905,-1.168C-0.908,-1.253 -0.953,-1.336 -0.955,-1.379C-0.912,-1.38 -0.871,-1.424 -0.871,-1.424C-0.787,-1.47 -0.703,-1.515 -0.578,-1.605C-0.495,-1.65 -0.368,-1.697 -0.243,-1.787C-0.159,-1.833 -0.121,-1.961 -0.168,-2.087C-0.214,-2.214 -0.344,-2.253 -0.428,-2.208C-0.554,-2.161 -0.681,-2.114 -0.766,-2.111C-0.892,-2.064 -0.978,-2.061 -1.061,-2.015C-1.104,-2.014 -1.145,-1.97 -1.187,-1.968C-1.277,-2.093 -1.367,-2.218 -1.456,-2.343C-1.415,-2.387 -1.415,-2.387 -1.374,-2.431C-1.291,-2.52 -1.251,-2.606 -1.169,-2.695C-1.087,-2.783 -1.004,-2.871 -0.922,-2.959C-0.839,-3.046 -0.844,-3.174 -0.932,-3.256C-1.02,-3.339 -1.149,-3.378 -1.231,-3.29C-1.314,-3.202 -1.439,-3.112 -1.522,-3.067C-1.605,-2.978 -1.689,-2.933 -1.771,-2.845L-1.854,-2.757C-1.984,-2.837 -2.074,-2.962 -2.205,-3.044C-2.206,-3.087 -2.165,-3.13 -2.166,-3.173C-2.126,-3.259 -2.088,-3.389 -2.048,-3.475C-2.01,-3.605 -1.97,-3.692 -1.932,-3.821C-1.894,-3.95 -1.939,-4.034 -2.069,-4.115C-2.156,-4.155 -2.284,-4.15 -2.365,-4.02C-2.446,-3.889 -2.486,-3.802 -2.568,-3.714C-2.608,-3.628 -2.69,-3.54 -2.73,-3.453C-2.771,-3.409 -2.77,-3.367 -2.77,-3.367C-2.899,-3.405 -3.072,-3.484 -3.2,-3.48L-3.229,-4.333C-3.233,-4.46 -3.321,-4.543 -3.449,-4.538C-3.577,-4.534 -3.66,-4.489 -3.699,-4.359C-3.737,-4.23 -3.733,-4.102 -3.772,-4.015C-3.811,-3.886 -3.808,-3.801 -3.846,-3.671C-3.845,-3.629 -3.844,-3.587 -3.885,-3.543C-4.055,-3.537 -4.183,-3.533 -4.354,-3.527C-4.355,-3.57 -4.356,-3.612 -4.399,-3.611C-4.444,-3.695 -4.491,-3.821 -4.494,-3.906C-4.541,-4.033 -4.586,-4.117 -4.633,-4.243C-4.68,-4.369 -4.81,-4.408 -4.893,-4.362C-5.02,-4.315 -5.102,-4.227 -5.055,-4.101C-5.051,-3.973 -5.004,-3.846 -5,-3.718C-4.996,-3.59 -4.95,-3.507 -4.946,-3.379C-4.944,-3.337 -4.943,-3.294 -4.941,-3.252C-5.068,-3.205 -5.237,-3.156 -5.362,-3.067C-5.406,-3.108 -5.406,-3.108 -5.45,-3.149C-5.538,-3.231 -5.583,-3.315 -5.671,-3.398C-5.76,-3.48 -5.805,-3.564 -5.895,-3.689C-5.982,-3.771 -6.112,-3.809 -6.194,-3.721C-6.278,-3.676 -6.316,-3.546 -6.27,-3.42C-6.223,-3.295 -6.135,-3.212 -6.088,-3.086C-6.042,-3.002 -5.996,-2.875 -5.907,-2.793C-5.906,-2.75 -5.862,-2.709 -5.862,-2.709C-5.987,-2.62 -6.068,-2.489 -6.193,-2.399C-6.237,-2.44 -6.237,-2.44 -6.28,-2.439C-6.366,-2.479 -6.454,-2.561 -6.583,-2.599C-6.67,-2.639 -6.801,-2.72 -6.889,-2.802C-6.976,-2.842 -7.103,-2.838 -7.186,-2.751C-7.268,-2.662 -7.264,-2.534 -7.176,-2.452C-7.088,-2.37 -7,-2.287 -6.912,-2.205C-6.824,-2.123 -6.735,-2.04 -6.649,-2.001C-6.604,-1.959 -6.604,-1.959 -6.561,-1.918C-6.642,-1.787 -6.723,-1.657 -6.761,-1.527C-6.804,-1.526 -6.846,-1.524 -6.89,-1.566C-6.977,-1.605 -7.104,-1.601 -7.234,-1.639C-7.363,-1.677 -7.448,-1.675 -7.578,-1.713C-7.707,-1.752 -7.789,-1.664 -7.828,-1.535C-7.866,-1.405 -7.821,-1.321 -7.691,-1.283C-7.562,-1.245 -7.476,-1.205 -7.346,-1.167C-7.217,-1.128 -7.13,-1.088 -7.043,-1.048C-7.001,-1.049 -6.957,-1.008 -6.957,-1.008C-6.996,-0.879 -6.99,-0.709 -7.027,-0.538C-7.069,-0.536 -7.112,-0.535 -7.154,-0.533C-7.24,-0.53 -7.366,-0.483 -7.494,-0.479C-7.622,-0.475 -7.748,-0.427 -7.876,-0.423C-8.004,-0.42 -8.042,-0.291 -8.04,-0.205C-8.035,-0.077 -7.947,0.005 -7.819,0.001C-7.691,-0.003 -7.563,-0.007 -7.435,0.031C-7.307,0.027 -7.221,0.024 -7.092,0.062C-7.049,0.061 -7.007,0.059 -6.964,0.058C-6.961,0.143 -6.96,0.186 -6.915,0.27C-6.912,0.355 -6.868,0.396 -6.865,0.481C-6.907,0.483 -6.949,0.527 -6.949,0.527C-7.032,0.572 -7.159,0.619 -7.241,0.707C-7.325,0.752 -7.45,0.842 -7.576,0.889C-7.66,0.934 -7.699,1.064 -7.652,1.19C-7.606,1.274 -7.476,1.355 -7.392,1.309C-7.265,1.262 -7.139,1.215 -7.054,1.212C-6.927,1.165 -6.842,1.163 -6.758,1.118C-6.716,1.116 -6.673,1.115 -6.632,1.071C-6.542,1.196 -6.453,1.321 -6.363,1.446C-6.405,1.49 -6.405,1.49 -6.446,1.534C-6.528,1.622 -6.568,1.708 -6.65,1.796C-6.733,1.884 -6.815,1.973 -6.897,2.061C-6.98,2.149 -6.976,2.277 -6.888,2.359C-6.8,2.441 -6.672,2.437 -6.588,2.392C-6.505,2.303 -6.38,2.214 -6.297,2.168C-6.214,2.08 -6.13,2.036 -6.048,1.947C-6.007,1.903 -6.007,1.903 -5.966,1.859C-5.835,1.94 -5.746,2.065 -5.615,2.146C-5.614,2.189 -5.655,2.233 -5.653,2.275C-5.693,2.362 -5.731,2.491 -5.771,2.578C-5.811,2.664 -5.85,2.793 -5.888,2.923C-5.926,3.052 -5.881,3.136 -5.75,3.217C-5.663,3.256 -5.536,3.252 -5.455,3.122C-5.374,2.991 -5.334,2.905 -5.251,2.816C-5.169,2.728 -5.129,2.642 -5.089,2.555C-5.091,2.512 -5.05,2.468 -5.05,2.468C-4.92,2.506 -4.749,2.543 -4.62,2.582L-4.591,3.434C-4.587,3.562 -4.499,3.644 -4.371,3.64C-4.243,3.636 -4.159,3.59 -4.121,3.461C-4.083,3.332 -4.087,3.205 -4.047,3.118C-4.009,2.989 -4.012,2.903 -3.973,2.774C-3.975,2.731 -3.976,2.689 -3.935,2.645C-3.764,2.639 -3.636,2.634 -3.466,2.629C-3.465,2.671 -3.42,2.712 -3.419,2.755C-3.374,2.839 -3.327,2.965 -3.324,3.051C-3.277,3.177 -3.232,3.261 -3.185,3.387C-3.138,3.514 -3.051,3.553 -2.925,3.507C-2.798,3.46 -2.716,3.372 -2.763,3.246C-2.767,3.118 -2.814,2.991 -2.818,2.864C-2.823,2.736 -2.868,2.652 -2.873,2.524C-2.874,2.481 -2.875,2.439 -2.876,2.396C-2.75,2.349 -2.581,2.301 -2.456,2.211L-2.368,2.293C-2.28,2.376 -2.234,2.46 -2.146,2.542C-2.059,2.624 -2.013,2.708 -1.923,2.833C-1.835,2.916 -1.707,2.955 -1.624,2.867C-1.54,2.821 -1.501,2.692 -1.548,2.565C-1.596,2.439 -1.684,2.356 -1.73,2.23C-1.777,2.104 -1.823,2.02 -1.868,1.936C-1.87,1.893 -1.914,1.852 -1.914,1.852C-1.789,1.763 -1.665,1.63 -1.583,1.542C-1.54,1.541 -1.539,1.583 -1.496,1.582C-1.409,1.622 -1.321,1.705 -1.192,1.743C-1.105,1.783 -0.975,1.864 -0.887,1.946C-0.8,1.986 -0.672,1.982 -0.59,1.893C-0.507,1.805 -0.512,1.677 -0.6,1.595C-0.688,1.513 -0.776,1.43 -0.864,1.348C-0.952,1.266 -1.04,1.183 -1.126,1.143C-1.17,1.102 -1.17,1.102 -1.215,1.061C-1.134,0.93 -1.053,0.799 -1.016,0.627C-0.973,0.626 -0.931,0.625 -0.887,0.666C-0.8,0.705 -0.672,0.702 -0.543,0.74C-0.414,0.779 -0.329,0.776 -0.199,0.814C-0.07,0.852 0.013,0.764 0.051,0.635C0.089,0.505 0.044,0.422 -0.087,0.341C-0.216,0.302 -0.303,0.263 -0.432,0.224C-0.562,0.186 -0.648,0.146 -0.734,0.107C-0.777,0.108 -0.821,0.067 -0.821,0.067C-0.783,-0.062 -0.789,-0.233 -0.751,-0.405C-0.709,-0.406 -0.667,-0.408 -0.624,-0.409C-0.539,-0.412 -0.412,-0.459 -0.284,-0.462C-0.156,-0.467 -0.03,-0.514 0.098,-0.518C0.226,-0.523 0.264,-0.652 0.26,-0.78C0.174,-0.777 0.085,-0.902 0,-0.899M-3.105,-0.625C-3.006,-0.202 -3.249,0.19 -3.672,0.289C-4.095,0.389 -4.487,0.146 -4.586,-0.277C-4.686,-0.701 -4.443,-1.092 -4.02,-1.192C-3.595,-1.249 -3.203,-1.005 -3.105,-0.625" style="fill:rgb(8,155,171);fill-rule:nonzero;"/>
                </g>
                <g transform="matrix(1,0,0,1,119.696,70.6516)">
                    <path d="M0,-0.947C-0.17,-0.941 -0.298,-0.937 -0.427,-0.975C-0.555,-0.971 -0.685,-1.009 -0.812,-1.005C-0.855,-1.004 -0.897,-1.003 -0.94,-1.001C-0.943,-1.086 -0.988,-1.17 -0.991,-1.256C-0.994,-1.341 -1.04,-1.425 -1.085,-1.508C-1.042,-1.509 -1.001,-1.553 -0.958,-1.555C-0.832,-1.602 -0.75,-1.69 -0.624,-1.737C-0.497,-1.783 -0.372,-1.873 -0.247,-1.963C-0.121,-2.009 -0.083,-2.181 -0.13,-2.308C-0.177,-2.434 -0.308,-2.515 -0.435,-2.468C-0.561,-2.422 -0.73,-2.373 -0.856,-2.326C-0.982,-2.28 -1.109,-2.233 -1.235,-2.186C-1.278,-2.184 -1.319,-2.14 -1.362,-2.139C-1.453,-2.306 -1.542,-2.431 -1.676,-2.597C-1.635,-2.642 -1.635,-2.642 -1.593,-2.686C-1.511,-2.774 -1.429,-2.862 -1.348,-2.992C-1.265,-3.08 -1.184,-3.211 -1.06,-3.301C-0.977,-3.389 -0.982,-3.559 -1.071,-3.641C-1.159,-3.724 -1.331,-3.761 -1.413,-3.673C-1.538,-3.583 -1.663,-3.494 -1.746,-3.406C-1.87,-3.316 -1.953,-3.228 -2.037,-3.183C-2.078,-3.139 -2.121,-3.137 -2.162,-3.093C-2.293,-3.217 -2.424,-3.298 -2.599,-3.42C-2.601,-3.463 -2.559,-3.507 -2.561,-3.549C-2.522,-3.678 -2.482,-3.765 -2.444,-3.894C-2.406,-4.024 -2.325,-4.155 -2.287,-4.283C-2.248,-4.413 -2.295,-4.539 -2.426,-4.62C-2.555,-4.658 -2.683,-4.655 -2.764,-4.524C-2.845,-4.393 -2.926,-4.262 -3.008,-4.174C-3.089,-4.044 -3.129,-3.957 -3.211,-3.869C-3.252,-3.825 -3.251,-3.782 -3.292,-3.738C-3.465,-3.818 -3.637,-3.855 -3.809,-3.892L-3.84,-4.829C-3.845,-4.957 -3.934,-5.082 -4.062,-5.077C-4.189,-5.073 -4.316,-5.027 -4.354,-4.897C-4.393,-4.768 -4.43,-4.596 -4.425,-4.468C-4.464,-4.339 -4.459,-4.211 -4.498,-4.082C-4.497,-4.039 -4.495,-3.997 -4.536,-3.953C-4.707,-3.947 -4.877,-3.942 -5.048,-3.936C-5.049,-3.978 -5.093,-4.02 -5.094,-4.062C-5.141,-4.189 -5.188,-4.315 -5.235,-4.441C-5.282,-4.568 -5.329,-4.694 -5.377,-4.863C-5.424,-4.989 -5.555,-5.071 -5.681,-5.024C-5.808,-4.977 -5.89,-4.889 -5.886,-4.761C-5.88,-4.591 -5.833,-4.464 -5.829,-4.336C-5.825,-4.208 -5.778,-4.082 -5.773,-3.954C-5.772,-3.911 -5.771,-3.869 -5.769,-3.826C-5.938,-3.778 -6.106,-3.687 -6.231,-3.598C-6.275,-3.639 -6.276,-3.681 -6.319,-3.68C-6.407,-3.762 -6.497,-3.887 -6.542,-3.971C-6.631,-4.096 -6.719,-4.179 -6.809,-4.304C-6.897,-4.386 -7.026,-4.425 -7.151,-4.335C-7.276,-4.245 -7.314,-4.116 -7.225,-3.991C-7.136,-3.866 -7.089,-3.74 -7.042,-3.614C-6.995,-3.487 -6.906,-3.362 -6.86,-3.278C-6.858,-3.236 -6.814,-3.195 -6.813,-3.152C-6.937,-3.02 -7.062,-2.93 -7.185,-2.798C-7.229,-2.84 -7.272,-2.838 -7.316,-2.879C-7.403,-2.919 -7.533,-3 -7.664,-3.081C-7.794,-3.162 -7.883,-3.244 -8.012,-3.282C-8.143,-3.364 -8.269,-3.317 -8.352,-3.229C-8.433,-3.098 -8.428,-2.97 -8.34,-2.887C-8.209,-2.807 -8.12,-2.682 -8.032,-2.599C-7.944,-2.517 -7.856,-2.434 -7.725,-2.354C-7.681,-2.312 -7.681,-2.312 -7.637,-2.271C-7.718,-2.141 -7.797,-1.967 -7.877,-1.794C-7.92,-1.793 -7.962,-1.791 -8.006,-1.832C-8.136,-1.871 -8.264,-1.866 -8.393,-1.905C-8.522,-1.943 -8.65,-1.939 -8.822,-1.976C-8.951,-2.014 -9.076,-1.925 -9.114,-1.796C-9.152,-1.666 -9.106,-1.54 -8.977,-1.501C-8.847,-1.463 -8.716,-1.382 -8.587,-1.344C-8.458,-1.305 -8.329,-1.267 -8.241,-1.185C-8.198,-1.186 -8.154,-1.145 -8.111,-1.146C-8.148,-0.974 -8.143,-0.804 -8.18,-0.632C-8.222,-0.631 -8.265,-0.629 -8.308,-0.628C-8.435,-0.624 -8.562,-0.577 -8.689,-0.572C-8.817,-0.568 -8.944,-0.522 -9.114,-0.516C-9.242,-0.511 -9.323,-0.381 -9.319,-0.253C-9.314,-0.125 -9.225,0 -9.097,-0.005C-8.927,-0.01 -8.799,-0.014 -8.67,0.024C-8.542,0.02 -8.414,0.015 -8.285,0.054C-8.242,0.053 -8.2,0.051 -8.157,0.05C-8.154,0.135 -8.109,0.219 -8.106,0.304C-8.103,0.389 -8.058,0.473 -8.012,0.557C-8.055,0.558 -8.096,0.602 -8.139,0.604C-8.265,0.65 -8.347,0.739 -8.474,0.785C-8.6,0.832 -8.725,0.922 -8.85,1.011C-8.977,1.058 -9.014,1.23 -8.967,1.356C-8.92,1.483 -8.789,1.564 -8.663,1.517C-8.536,1.47 -8.367,1.422 -8.241,1.375C-8.114,1.328 -7.988,1.281 -7.862,1.234C-7.819,1.233 -7.776,1.231 -7.735,1.187C-7.644,1.355 -7.555,1.48 -7.464,1.648C-7.505,1.692 -7.505,1.692 -7.546,1.736C-7.629,1.824 -7.711,1.912 -7.792,2.042C-7.875,2.131 -7.956,2.261 -8.081,2.351C-8.163,2.439 -8.157,2.609 -8.069,2.692C-7.981,2.774 -7.809,2.811 -7.727,2.723C-7.602,2.633 -7.477,2.544 -7.395,2.456C-7.27,2.366 -7.187,2.278 -7.103,2.233C-7.062,2.189 -7.02,2.187 -7.021,2.145C-6.889,2.268 -6.758,2.349 -6.583,2.471C-6.582,2.514 -6.623,2.558 -6.622,2.601C-6.66,2.73 -6.7,2.817 -6.781,2.947C-6.819,3.076 -6.857,3.206 -6.938,3.336C-6.977,3.466 -6.93,3.592 -6.799,3.673C-6.67,3.711 -6.542,3.707 -6.461,3.576C-6.38,3.446 -6.299,3.315 -6.217,3.227C-6.136,3.096 -6.096,3.01 -6.014,2.922C-5.973,2.878 -5.974,2.835 -5.933,2.791C-5.76,2.87 -5.588,2.907 -5.416,2.945L-5.385,3.882C-5.38,4.01 -5.291,4.135 -5.163,4.131C-5.035,4.126 -4.909,4.079 -4.871,3.95C-4.832,3.821 -4.795,3.649 -4.799,3.521C-4.761,3.392 -4.765,3.264 -4.727,3.135C-4.729,3.092 -4.73,3.05 -4.688,3.006C-4.518,3 -4.348,2.994 -4.177,2.989C-4.176,3.031 -4.132,3.073 -4.13,3.115C-4.083,3.241 -4.037,3.367 -3.99,3.494C-3.943,3.62 -3.896,3.747 -3.848,3.916C-3.801,4.042 -3.67,4.123 -3.544,4.076C-3.417,4.03 -3.335,3.942 -3.339,3.814C-3.345,3.643 -3.392,3.517 -3.396,3.389C-3.4,3.261 -3.447,3.135 -3.452,3.007C-3.453,2.965 -3.454,2.922 -3.456,2.879C-3.287,2.831 -3.119,2.74 -2.994,2.651C-2.95,2.692 -2.949,2.734 -2.906,2.733C-2.818,2.815 -2.729,2.94 -2.683,3.024C-2.595,3.107 -2.505,3.231 -2.416,3.356C-2.328,3.439 -2.199,3.477 -2.074,3.387C-1.949,3.298 -1.911,3.169 -2,3.044C-2.089,2.919 -2.136,2.793 -2.183,2.666C-2.23,2.54 -2.319,2.415 -2.365,2.331C-2.366,2.288 -2.411,2.247 -2.412,2.204C-2.287,2.115 -2.163,1.983 -2.04,1.851C-1.997,1.849 -1.953,1.89 -1.909,1.932C-1.822,1.971 -1.692,2.053 -1.561,2.134C-1.43,2.215 -1.342,2.297 -1.213,2.335C-1.083,2.416 -0.956,2.369 -0.874,2.282C-0.791,2.193 -0.797,2.023 -0.885,1.941C-1.016,1.86 -1.105,1.735 -1.193,1.652C-1.281,1.57 -1.369,1.488 -1.5,1.407C-1.544,1.365 -1.586,1.366 -1.588,1.324C-1.507,1.193 -1.427,1.02 -1.348,0.847C-1.305,0.845 -1.261,0.886 -1.219,0.885C-1.089,0.924 -0.961,0.919 -0.832,0.957C-0.703,0.996 -0.575,0.991 -0.403,1.029C-0.274,1.067 -0.149,0.977 -0.111,0.848C-0.072,0.719 -0.119,0.593 -0.25,0.511C-0.379,0.473 -0.51,0.392 -0.639,0.354C-0.768,0.316 -0.897,0.277 -0.986,0.195C-1.028,0.196 -1.072,0.155 -1.115,0.157C-1.078,-0.015 -1.083,-0.186 -1.047,-0.358C-1.004,-0.359 -0.961,-0.361 -0.919,-0.362C-0.791,-0.366 -0.665,-0.413 -0.537,-0.417C-0.411,-0.464 -0.283,-0.468 -0.112,-0.474C0.016,-0.478 0.097,-0.609 0.092,-0.737C0.216,-0.869 0.128,-0.951 0,-0.947M-3.572,-0.615C-3.471,-0.149 -3.754,0.33 -4.22,0.43C-4.686,0.531 -5.164,0.249 -5.265,-0.218C-5.366,-0.683 -5.083,-1.162 -4.617,-1.262C-4.153,-1.406 -3.673,-1.081 -3.572,-0.615" style="fill:rgb(8,155,171);fill-rule:nonzero;"/>
                </g>
                <g transform="matrix(1,0,0,1,78.022,69.7503)">
                    <path d="M0,0.761L-3.871,-1.172C-4.314,-0.206 -3.802,0.887 -2.989,1.495C-1.864,1.933 -0.602,1.733 0,0.761" style="fill:rgb(8,155,171);fill-rule:nonzero;"/>
                </g>
                <g transform="matrix(1,0,0,1,77.2881,69.582)">
                    <path d="M0,-2.06C-0.972,-2.662 -2.229,-2.303 -2.831,-1.331L1.04,0.602C1.32,-0.518 0.967,-1.616 0,-2.06" style="fill:rgb(8,155,171);fill-rule:nonzero;"/>
                </g>
                <g transform="matrix(1,0,0,1,126.58,-1.3748)">
                    <path d="M0,115.473C0,115.473 -8.571,105.766 -16.339,96.349C-17.326,95.272 -9.763,84.235 -5.025,74.085C-3.991,71.83 -3.531,71.339 -3.774,68.809C-4.027,65.963 -7.787,62.598 -11.41,63.354C-14.875,64.103 -26.879,75.13 -24.486,70.768C-18.798,60.586 -7.675,46.893 -0.107,40.772C14.723,28.859 57.379,0 57.427,1.425C56.803,11.281 42.839,15.869 19.861,30.75C13.027,35.101 -2.31,46.079 -2.753,47.046C-3.197,48.013 11.042,37.388 20.204,31.532C33.096,23.33 45.844,15.611 45.581,17.205C44.888,25 32.398,30.967 15.265,40.419C10.122,43.128 -1.249,49.375 -1.697,50.183C-2.146,50.991 10.302,43.757 15.446,41.048C29.149,33.454 37.399,28.739 37.167,31.284C36.168,39.406 24.873,43.113 10.507,49.935C7.228,51.472 0.51,54.551 0.219,55.353C-0.071,56.156 6.784,52.438 10.846,50.558C17.875,47.311 24.756,44.386 22.991,48.568C20.039,55.169 16.886,55.75 11.689,61.633C-10.498,86.004 -15.256,95.52 -14.094,97.068C-7.615,105.893 0,115.473 0,115.473" style="fill:rgb(8,155,171);fill-rule:nonzero;"/>
                </g>
                <g transform="matrix(1,0,0,1,512.241,126.745)">
                    <path d="M0,-5.28L-2.387,-5.28L-2.387,-6.534L3.773,-6.534L3.773,-5.28L1.386,-5.28L1.386,1.254L0,1.254L0,-5.28Z" style="fill:rgb(8,155,171);fill-rule:nonzero;"/>
                </g>
                <g transform="matrix(1,0,0,1,516.993,127.999)">
                    <path d="M0,-7.788L2.111,-7.788L4.19,-2.332L6.292,-7.788L8.382,-7.788L8.382,0L7.062,0L7.062,-6.468L7.04,-6.468L4.675,0L3.707,0L1.342,-6.468L1.319,-6.468L1.319,0L0,0L0,-7.788Z" style="fill:rgb(8,155,171);fill-rule:nonzero;"/>
                </g>
            </g>
        </g>
    </g>
</svg>
