<?xml version="1.0" encoding="UTF-8" standalone="no"?>
<!DOCTYPE svg PUBLIC "-//W3C//DTD SVG 1.1//EN" "http://www.w3.org/Graphics/SVG/1.1/DTD/svg11.dtd">
<svg width="100%" height="100%" viewBox="0 0 137 72" version="1.1" xmlns="http://www.w3.org/2000/svg" xmlns:xlink="http://www.w3.org/1999/xlink" xml:space="preserve" xmlns:serif="http://www.serif.com/" style="fill-rule:evenodd;clip-rule:evenodd;stroke-linejoin:round;stroke-miterlimit:1.41421;">
    <g id="Artboard1" transform="matrix(1.43018,0,0,0.985012,0,0)">
        <rect x="0" y="0" width="95.093" height="72.112" style="fill:none;"/>
        <clipPath id="_clip1">
            <rect x="0" y="0" width="95.093" height="72.112"/>
        </clipPath>
        <g clip-path="url(#_clip1)">
            <g transform="matrix(0.682967,0,0,0.999706,-276.826,-488.288)">
                <g transform="matrix(3.74114e-17,-0.610974,0.610974,3.74114e-17,171.361,812.048)">
                    <g transform="matrix(0.143572,0,0,0.143572,412.237,378.515)">
                        <path d="M759.22,33.024C771.474,33.025 781.422,42.973 781.422,55.227L781.422,565.884C781.422,578.138 771.474,588.086 759.22,588.086L56.257,588.086C44.003,588.086 34.054,578.138 34.054,565.884L34.054,55.227C34.054,53.884 34.173,52.57 34.402,51.293L34.409,181.436L144.405,38.014L144.409,121.436L212.216,33.024L214.407,33.024L214.409,71.436L243.869,33.024L759.22,33.024Z" style="fill:rgb(89,89,89);"/>
                    </g>
                    <g transform="matrix(0.143572,0,0,0.143572,412.55,378.515)">
                        <g transform="matrix(3.92365,0,0,1,-90.5904,5)">
                            <rect x="40.562" y="497.007" width="20.396" height="97.276" style="fill:white;"/>
                        </g>
                        <g transform="matrix(3.92365,0,0,1,58.0196,5)">
                            <rect x="40.562" y="497.007" width="20.396" height="97.276" style="fill:white;"/>
                        </g>
                        <g transform="matrix(3.92365,0,0,1,206.349,5)">
                            <rect x="40.562" y="497.007" width="20.396" height="97.276" style="fill:white;"/>
                        </g>
                        <g transform="matrix(3.92365,0,0,1,353.677,5)">
                            <rect x="40.562" y="497.007" width="20.396" height="97.276" style="fill:white;"/>
                        </g>
                        <g transform="matrix(3.92365,0,0,1,502.006,5)">
                            <rect x="40.562" y="497.007" width="20.396" height="97.276" style="fill:white;"/>
                        </g>
                        <g>
                            <g transform="matrix(1.98015,0,0,1.98015,-124.14,-535.068)">
                                <circle cx="117.666" cy="515.402" r="22.726" style="fill:rgb(179,179,179);"/>
                            </g>
                            <g transform="matrix(1.98015,0,0,1.98015,-124.14,-535.068)">
                                <path d="M117.827,490.53C129.211,490.639 139.92,499.371 142.093,510.698C143.635,518.738 140.908,527.464 135.038,533.195C128.174,539.897 117.278,542.117 108.267,538.433C100.306,535.178 94.305,527.54 93.058,519.031C91.918,511.25 94.722,502.984 100.401,497.504C104.898,493.165 111.003,490.633 117.345,490.532C117.506,490.53 117.666,490.53 117.827,490.53ZM117.533,494.823C108.258,494.912 99.406,501.976 97.505,511.255C96.128,517.979 98.379,525.326 103.293,530.124C108.968,535.664 117.952,537.522 125.44,534.46C132.025,531.768 136.996,525.443 138.027,518.408C139.299,509.731 134.333,500.471 126.357,496.745C123.605,495.459 120.541,494.814 117.533,494.823Z" style="fill:rgb(89,89,89);fill-rule:nonzero;"/>
                            </g>
                            <g transform="matrix(1.98015,0,0,1.98015,24.1891,-535.068)">
                                <circle cx="117.666" cy="515.402" r="22.726" style="fill:rgb(179,179,179);"/>
                            </g>
                            <g transform="matrix(1.98015,0,0,1.98015,24.1891,-535.068)">
                                <path d="M117.827,490.53C129.217,490.639 139.926,499.406 142.093,510.698C143.635,518.738 140.908,527.464 135.038,533.195C128.174,539.897 117.278,542.117 108.267,538.433C100.306,535.178 94.305,527.54 93.058,519.031C91.918,511.25 94.722,502.984 100.401,497.504C104.899,493.165 111.003,490.633 117.345,490.532C117.506,490.53 117.666,490.53 117.827,490.53ZM117.533,494.823C108.258,494.912 99.406,501.976 97.505,511.255C96.128,517.979 98.379,525.325 103.293,530.124C108.967,535.665 117.952,537.522 125.44,534.46C132.025,531.768 136.996,525.443 138.027,518.408C139.299,509.731 134.333,500.471 126.357,496.745C123.604,495.459 120.541,494.814 117.533,494.823Z" style="fill:rgb(89,89,89);fill-rule:nonzero;"/>
                            </g>
                            <g transform="matrix(1.98015,0,0,1.98015,172.518,-535.068)">
                                <circle cx="117.666" cy="515.402" r="22.726" style="fill:rgb(179,179,179);"/>
                            </g>
                            <g transform="matrix(1.98015,0,0,1.98015,172.518,-535.068)">
                                <path d="M117.827,490.53C129.24,490.64 139.933,499.439 142.093,510.698C143.634,518.738 140.908,527.464 135.038,533.195C128.174,539.897 117.277,542.117 108.267,538.433C100.306,535.178 94.305,527.54 93.058,519.031C91.514,508.493 97.581,497.259 107.295,492.792C110.583,491.28 114.179,490.519 117.827,490.53ZM117.533,494.823C108.239,494.912 99.4,502.003 97.505,511.255C96.128,517.979 98.379,525.325 103.293,530.124C108.967,535.664 117.952,537.522 125.44,534.46C132.062,531.753 137.052,525.371 138.045,518.28C139.604,507.155 130.721,495.609 118.989,494.864C118.504,494.834 118.019,494.821 117.533,494.823Z" style="fill:rgb(89,89,89);fill-rule:nonzero;"/>
                            </g>
                            <g transform="matrix(1.98015,0,0,1.98015,319.847,-535.068)">
                                <circle cx="117.666" cy="515.402" r="22.726" style="fill:rgb(179,179,179);"/>
                            </g>
                            <g transform="matrix(1.98015,0,0,1.98015,319.847,-535.068)">
                                <path d="M117.827,490.53C129.225,490.639 139.923,499.392 142.093,510.698C143.635,518.738 140.908,527.464 135.038,533.195C128.174,539.897 117.278,542.117 108.267,538.433C100.306,535.178 94.305,527.54 93.058,519.031C91.925,511.298 94.685,503.086 100.294,497.608C104.799,493.209 111.003,490.633 117.345,490.532C117.506,490.53 117.666,490.53 117.827,490.53ZM117.533,494.823C108.219,494.912 99.33,502.05 97.48,511.381C96.156,518.058 98.406,525.352 103.293,530.124C108.967,535.664 117.952,537.522 125.44,534.46C134.121,530.911 139.615,520.889 137.901,511.632C136.199,502.447 127.694,495.04 118.065,494.826C117.888,494.824 117.71,494.822 117.533,494.823Z" style="fill:rgb(89,89,89);fill-rule:nonzero;"/>
                            </g>
                            <g transform="matrix(1.98015,0,0,1.98015,468.176,-535.068)">
                                <circle cx="117.666" cy="515.402" r="22.726" style="fill:rgb(179,179,179);"/>
                            </g>
                            <g transform="matrix(1.98015,0,0,1.98015,468.176,-535.068)">
                                <path d="M117.827,490.53C129.225,490.639 139.924,499.392 142.093,510.698C143.634,518.738 140.908,527.463 135.038,533.195C128.174,539.897 117.278,542.117 108.267,538.433C100.306,535.179 94.305,527.54 93.058,519.031C91.947,511.451 94.571,503.395 99.977,497.924C104.511,493.335 110.808,490.636 117.345,490.532C117.506,490.53 117.666,490.53 117.827,490.53ZM117.533,494.823C108.163,494.913 99.256,502.117 97.455,511.506C96.164,518.237 98.5,525.557 103.471,530.296C109.205,535.762 118.219,537.518 125.672,534.364C133.845,530.904 139.161,521.728 138.096,512.909C136.905,503.054 127.864,494.79 117.533,494.823Z" style="fill:rgb(89,89,89);fill-rule:nonzero;"/>
                            </g>
                        </g>
                        <g transform="matrix(0.490296,0,0,1,34.6749,5)">
                            <rect x="40.562" y="497.007" width="20.396" height="97.276" style="fill:white;"/>
                        </g>
                        <g transform="matrix(1,0,0,1,-4,0)">
                            <g transform="matrix(0.490296,0,0,1,582.675,5)">
                                <rect x="40.562" y="497.007" width="20.396" height="97.276" style="fill:white;"/>
                            </g>
                            <g transform="matrix(0.490296,0,0,1,598.342,5)">
                                <rect x="40.562" y="497.007" width="20.396" height="97.276" style="fill:white;"/>
                            </g>
                            <g transform="matrix(0.490296,0,0,1,614.008,5)">
                                <rect x="40.562" y="497.007" width="20.396" height="97.276" style="fill:white;"/>
                            </g>
                            <g transform="matrix(0.490296,0,0,1,629.675,5)">
                                <rect x="40.562" y="497.007" width="20.396" height="97.276" style="fill:white;"/>
                            </g>
                        </g>
                        <g transform="matrix(1,0,0,1,-152,0)">
                            <g transform="matrix(0.490296,0,0,1,582.675,5)">
                                <rect x="40.562" y="497.007" width="20.396" height="97.276" style="fill:white;"/>
                            </g>
                            <g transform="matrix(0.490296,0,0,1,598.342,5)">
                                <rect x="40.562" y="497.007" width="20.396" height="97.276" style="fill:white;"/>
                            </g>
                            <g transform="matrix(0.490296,0,0,1,614.008,5)">
                                <rect x="40.562" y="497.007" width="20.396" height="97.276" style="fill:white;"/>
                            </g>
                            <g transform="matrix(0.490296,0,0,1,629.675,5)">
                                <rect x="40.562" y="497.007" width="20.396" height="97.276" style="fill:white;"/>
                            </g>
                        </g>
                        <g transform="matrix(1,0,0,1,-300,0)">
                            <g transform="matrix(0.490296,0,0,1,582.675,5)">
                                <rect x="40.562" y="497.007" width="20.396" height="97.276" style="fill:white;"/>
                            </g>
                            <g transform="matrix(0.490296,0,0,1,598.342,5)">
                                <rect x="40.562" y="497.007" width="20.396" height="97.276" style="fill:white;"/>
                            </g>
                            <g transform="matrix(0.490296,0,0,1,614.008,5)">
                                <rect x="40.562" y="497.007" width="20.396" height="97.276" style="fill:white;"/>
                            </g>
                            <g transform="matrix(0.490296,0,0,1,629.675,5)">
                                <rect x="40.562" y="497.007" width="20.396" height="97.276" style="fill:white;"/>
                            </g>
                        </g>
                        <g transform="matrix(1,0,0,1,-448,0)">
                            <g transform="matrix(0.490296,0,0,1,582.675,5)">
                                <rect x="40.562" y="497.007" width="20.396" height="97.276" style="fill:white;"/>
                            </g>
                            <g transform="matrix(0.490296,0,0,1,598.342,5)">
                                <rect x="40.562" y="497.007" width="20.396" height="97.276" style="fill:white;"/>
                            </g>
                            <g transform="matrix(0.490296,0,0,1,614.008,5)">
                                <rect x="40.562" y="497.007" width="20.396" height="97.276" style="fill:white;"/>
                            </g>
                            <g transform="matrix(0.490296,0,0,1,629.675,5)">
                                <rect x="40.562" y="497.007" width="20.396" height="97.276" style="fill:white;"/>
                            </g>
                        </g>
                        <g transform="matrix(0.490296,0,0,1,726.675,5)">
                            <rect x="40.562" y="497.007" width="20.396" height="97.276" style="fill:white;"/>
                        </g>
                    </g>
                    <g transform="matrix(0.143572,0,0,0.143572,406.225,381.386)">
                        <g transform="matrix(0.799265,0,0,1,52.4933,0)">
                            <path d="M619.483,94.635C672.732,94.837 723.674,127.877 731.214,172.959C735.966,201.365 722.657,231.352 696.392,251.012C675.835,266.4 648.079,275.317 619.483,275.426C537.613,275.529 455.742,275.735 373.873,275.424C345.635,275.245 317.828,266.356 297.328,251.012C262.916,225.252 251.535,181.708 272.222,146.597C290.253,115.995 330.827,94.909 373.873,94.636C455.742,94.325 537.613,94.531 619.483,94.635ZM374.632,122.634C346.586,122.67 319.309,135.674 305.943,155.328C294.33,172.406 293.542,193.927 303.916,211.534C316.391,232.706 344.389,247.313 374.348,247.426C456.107,247.528 537.868,247.732 619.626,247.425C649.061,247.238 677.485,232.612 689.905,211.363C700.184,193.777 699.354,172.353 687.777,155.328C674.471,135.759 647.406,122.741 619.371,122.634C537.792,122.531 456.212,122.634 374.632,122.634Z" style="fill:white;fill-rule:nonzero;"/>
                        </g>
                        <g transform="matrix(1.25794,0,0,1.25794,-89.9981,-44.5631)">
                            <circle cx="358.043" cy="182.515" r="22.825" style="fill:white;"/>
                        </g>
                        <g transform="matrix(1.25794,0,0,1.25794,91.2651,-44.5631)">
                            <circle cx="358.043" cy="182.515" r="22.825" style="fill:white;"/>
                        </g>
                    </g>
                    <g transform="matrix(0.143572,0,0,0.143572,412.237,378.515)">
                        <path d="M759.363,33.024C770.816,33.133 781.306,42.935 781.422,55.083C781.962,225.445 783.041,395.816 781.42,566.171C781.239,577.583 771.484,587.895 759.506,588.085C525.005,590.316 290.471,590.316 55.97,588.085C44.61,587.905 34.246,578.132 34.056,566.171C32.435,395.768 32.435,225.342 34.056,54.94C34.237,43.528 43.992,33.216 55.97,33.026C290.424,30.795 524.9,32.281 759.363,33.024ZM56.263,37.024C46.805,37.054 38.148,45.272 38.054,55.108C37.515,225.445 36.434,395.791 38.056,566.12C38.204,575.512 46.29,583.992 56.138,584.086C290.576,584.804 525.027,586.321 759.456,584.085C768.843,583.938 777.328,575.843 777.422,566.002C778.001,395.665 779.046,225.32 777.421,54.99C777.274,45.647 769.174,37.118 759.338,37.024C524.981,36.282 290.621,37.024 56.263,37.024Z" style="fill:rgb(89,89,89);fill-rule:nonzero;"/>
                    </g>
                </g>
                <g transform="matrix(0.206228,0,0,0.206228,410.88,448.43)">
                    <g transform="matrix(0.873942,0,0,0.945021,93.4221,10.2876)">
                        <path d="M634.071,212.838C634.071,202.645 625.05,194.37 613.938,194.37L63.085,194.37C51.973,194.37 42.952,202.645 42.952,212.838L42.952,545.268C42.952,555.461 51.973,563.736 63.085,563.736L613.938,563.736C625.05,563.736 634.071,555.461 634.071,545.268L634.071,212.838Z" style="fill:rgb(89,89,89);"/>
                    </g>
                    <g transform="matrix(0.65378,0,0,0.65378,162.505,137.914)">
                        <g transform="matrix(1,0,0,1,-12.194,11.325)">
                            <text x="200.959px" y="394.641px" style="font-family:'AvenirNext-Medium', 'Avenir Next', sans-serif;font-weight:500;font-size:48px;fill:white;">BIT</text>
                        </g>
                        <g transform="matrix(1,0,0,1,-81.3245,10.6202)">
                            <text x="270.922px" y="348.233px" style="font-family:'AvenirNext-Bold', 'Avenir Next', sans-serif;font-weight:700;font-size:64px;fill:white;">H<tspan x="315.338px 358.09px 414.73px 471.37px 487.242px 533.322px 578.058px 616.138px 632.01px 669.962px " y="348.233px 348.233px 348.233px 348.233px 348.233px 348.233px 348.233px 348.233px 348.233px 348.233px ">UMMINGBIRD</tspan></text>
                        </g>
                        <g id="Layer-1" serif:id="Layer 1" transform="matrix(0.47629,0,0,0.47629,59.4308,289.691)">
                            <g transform="matrix(1,0,0,1,165.586,180.474)">
                                <path d="M0,-44.659C2.031,-47.269 0.581,-64.088 -13.339,-70.468C-27.259,-76.558 -42.918,-71.338 -55.098,-71.628C-67.278,-72.207 -96.567,-78.297 -108.747,-80.038C-136.586,-83.518 -165.585,-79.458 -165.585,-79.458C-165.585,-79.458 -132.236,-82.068 -111.067,-78.588C-89.897,-75.109 -63.798,-70.178 -50.458,-60.028C-37.118,-49.879 -35.669,-22.909 -28.708,1.16C-23.779,17.98 9.28,27.549 38.86,38.859C38.86,38.859 -2.319,20.59 -14.499,14.21C-31.898,5.22 -27.838,-15.95 -27.838,-15.95C-27.838,-15.95 -27.549,-27.839 -8.119,-37.409C-15.949,-49.299 -19.139,-46.399 -25.229,-47.269C-31.318,-48.138 -39.729,-54.808 -37.118,-61.768C-32.769,-72.788 -2.9,-68.438 0,-44.659" style="fill:white;fill-rule:nonzero;"/>
                            </g>
                            <g transform="matrix(1,0,0,1,228.225,-2.5124)">
                                <path d="M0,207.636C0,207.636 -15.079,189.366 -28.71,171.676C-30.449,169.647 -15.949,149.928 -6.67,131.658C-4.64,127.597 -3.77,126.727 -4.06,122.088C-4.35,116.868 -11.021,110.489 -17.689,111.648C-24.069,112.808 -46.689,132.237 -42.049,124.407C-31.029,106.138 -9.859,81.779 4.35,71.049C32.189,50.17 111.938,0 111.938,2.61C110.197,20.59 84.389,28.13 41.469,53.939C28.709,61.479 0,80.618 -0.87,82.359C-1.74,84.098 24.939,65.538 42.049,55.389C66.119,41.179 89.898,27.84 89.317,30.74C87.578,44.949 64.378,55.099 32.479,71.339C22.909,75.979 1.74,86.708 0.869,88.158C0,89.609 23.199,77.139 32.77,72.499C58.288,59.449 73.658,51.329 73.079,55.969C70.758,70.759 49.879,76.849 23.199,88.448C17.109,91.058 4.64,96.278 4.06,97.728C3.48,99.178 16.239,92.798 23.779,89.609C36.83,84.098 49.589,79.169 46.109,86.708C40.309,98.598 34.509,99.468 24.65,109.908C-17.4,153.117 -26.679,170.227 -24.649,173.126C-13.34,189.657 0,207.636 0,207.636" style="fill:white;fill-rule:nonzero;"/>
                            </g>
                            <g transform="matrix(1,0,0,1,206.755,197.633)">
                                <path d="M0,18.868L-0.481,19.805L-5.071,17.456L-4.592,16.518C-3.062,17.302 -1.531,18.085 0,18.868M-8.526,14.505L-9.006,15.441L-13.596,13.092L-13.116,12.154C-11.586,12.938 -10.056,13.722 -8.526,14.505M-17.051,10.14L-17.53,11.078L-22.121,8.728L-21.641,7.791C-20.111,8.574 -18.581,9.357 -17.051,10.14M-25.575,5.777L-26.056,6.714L-30.646,4.364L-30.166,3.428L-25.575,5.777ZM-34.101,1.413L-34.58,2.35L-39.17,0.001L-38.691,-0.937C-37.16,-0.153 -35.63,0.63 -34.101,1.413" style="fill:white;fill-rule:nonzero;"/>
                            </g>
                            <g transform="matrix(1,0,0,1,213.164,220.727)">
                                <path d="M0,-0.918C0.073,-0.861 0.147,-0.806 0.224,-0.752C0.285,-0.708 0.351,-0.664 0.414,-0.622C0.728,-0.421 1.058,-0.245 1.396,-0.091C1.698,0.047 2.007,0.168 2.317,0.282L1.953,1.27C1.361,1.052 0.779,0.809 0.23,0.497C-0.035,0.348 -0.289,0.181 -0.533,0L-0.566,-0.025L-2.942,-1.252L-2.459,-2.188C-1.64,-1.765 -0.82,-1.341 0,-0.918" style="fill:white;fill-rule:nonzero;"/>
                            </g>
                            <g transform="matrix(1,0,0,1,225.305,148.778)">
                                <path d="M0,70.959C-0.969,71.868 -2.106,72.588 -3.349,73.06C-3.935,73.281 -4.539,73.444 -5.154,73.556L-5.342,72.52C-5.243,72.502 -5.145,72.482 -5.046,72.462C-4.948,72.441 -4.853,72.419 -4.756,72.396C-4.216,72.261 -3.689,72.08 -3.183,71.85C-2.276,71.437 -1.446,70.872 -0.721,70.191C-0.479,70.447 -0.24,70.703 0,70.959M2.792,61.01C2.965,61.65 3.082,62.303 3.131,62.965C3.193,63.844 3.14,64.732 2.97,65.598C2.893,65.991 2.79,66.38 2.666,66.762L1.665,66.439C1.694,66.349 1.722,66.258 1.749,66.166C1.776,66.071 1.803,65.976 1.827,65.88C1.9,65.589 1.96,65.296 2.005,65C2.102,64.352 2.127,63.693 2.079,63.041C2.037,62.448 1.932,61.863 1.777,61.29L1.771,61.273L2.785,60.987C2.788,60.995 2.79,61.002 2.792,61.01M0.38,56.67L-0.42,57.357L-4.039,53.148L-3.241,52.462C-2.034,53.864 -0.828,55.268 0.38,56.67M-6.345,48.855L-7.143,49.541L-10.762,45.332L-9.963,44.646C-8.757,46.049 -7.551,47.451 -6.345,48.855M-13.066,41.038L-13.865,41.725L-17.485,37.516L-16.686,36.829C-15.479,38.232 -14.273,39.635 -13.066,41.038M-19.789,33.223L-20.588,33.908L-24.208,29.7L-23.41,29.013C-22.202,30.417 -20.996,31.819 -19.789,33.223M-26.512,25.406L-27.311,26.093L-30.931,21.885L-30.132,21.198C-28.926,22.601 -27.719,24.004 -26.512,25.406M-33.234,17.59L-34.033,18.277L-37.653,14.068L-36.854,13.382C-35.648,14.784 -34.441,16.188 -33.234,17.59M-43.358,5.417C-42.998,5.83 -42.65,6.252 -42.317,6.688C-41.883,7.259 -41.475,7.851 -41.091,8.457L-39.957,9.774L-40.757,10.461L-41.939,9.085C-42.041,8.925 -42.143,8.767 -42.245,8.608C-42.342,8.463 -42.44,8.318 -42.539,8.174C-42.806,7.792 -43.08,7.417 -43.368,7.051C-43.621,6.73 -43.883,6.419 -44.15,6.111L-44.163,6.097L-43.375,5.399C-43.369,5.404 -43.364,5.411 -43.358,5.417M-51.737,-0.689C-50.947,-0.344 -50.174,0.037 -49.425,0.465C-48.574,0.95 -47.757,1.49 -46.971,2.074L-46.938,2.1L-47.571,2.94C-47.721,2.828 -47.873,2.717 -48.026,2.607C-48.695,2.135 -49.384,1.693 -50.099,1.293C-50.767,0.919 -51.454,0.584 -52.154,0.277L-52.257,0.234L-51.843,-0.734C-51.808,-0.719 -51.772,-0.704 -51.737,-0.689M-60.816,-2.597C-60.098,-2.587 -59.382,-2.552 -58.667,-2.48C-57.965,-2.412 -57.268,-2.308 -56.575,-2.177L-56.489,-2.161L-56.691,-1.127C-56.838,-1.156 -56.984,-1.183 -57.132,-1.209C-57.798,-1.322 -58.467,-1.411 -59.14,-1.467C-60.099,-1.546 -61.06,-1.561 -62.021,-1.521L-62.088,-1.519L-62.138,-2.57C-61.964,-2.578 -61.792,-2.584 -61.617,-2.589C-61.467,-2.592 -61.316,-2.596 -61.165,-2.597L-60.816,-2.597Z" style="fill:white;fill-rule:nonzero;"/>
                            </g>
                            <g transform="matrix(1,0,0,1,220.926,132.134)">
                                <path d="M0,-4.323C-0.396,-3.454 -0.795,-2.577 -1.38,-1.814L-2.932,0.437L-3.799,-0.161L-2.231,-2.434C-2.181,-2.498 -2.133,-2.564 -2.085,-2.631C-2.041,-2.694 -1.997,-2.758 -1.954,-2.823C-1.56,-3.434 -1.261,-4.099 -0.958,-4.76C-0.639,-4.615 -0.32,-4.469 0,-4.323" style="fill:white;fill-rule:nonzero;"/>
                            </g>
                            <g transform="matrix(1,0,0,1,158.434,114.276)">
                                <path d="M0,78.229C0.853,78.458 1.716,78.64 2.59,78.769C3.387,78.886 4.188,78.957 4.993,78.991L5.136,78.996L5.16,78.996L5.131,80.048C3.79,80.01 2.452,79.852 1.138,79.582C0.663,79.485 0.192,79.371 -0.276,79.246L-0.297,79.24L-0.018,78.224C-0.012,78.226 -0.006,78.227 0,78.229M15.042,77.932C13.405,78.78 11.639,79.365 9.827,79.705L9.633,78.67C9.786,78.641 9.938,78.611 10.09,78.58C10.254,78.544 10.418,78.507 10.583,78.468C11.275,78.298 11.958,78.095 12.628,77.847C13.281,77.605 13.917,77.323 14.538,77.007L14.558,76.998C14.719,77.309 14.881,77.621 15.042,77.932M-8.485,73.796C-7.862,74.313 -7.216,74.8 -6.544,75.249C-5.869,75.7 -5.168,76.111 -4.449,76.489L-4.329,76.551L-4.209,76.612L-4.687,77.55C-5.444,77.165 -6.181,76.743 -6.893,76.28C-7.717,75.744 -8.505,75.155 -9.257,74.523L-8.58,73.716C-8.548,73.744 -8.517,73.77 -8.485,73.796M22.658,71.254C21.896,72.28 21.061,73.255 20.157,74.159C19.836,74.479 19.505,74.788 19.167,75.09L19.041,75.202L18.947,75.283L18.257,74.487C18.369,74.39 18.479,74.293 18.589,74.195C18.708,74.086 18.828,73.977 18.946,73.866C19.421,73.416 19.879,72.947 20.317,72.458C20.84,71.874 21.333,71.264 21.804,70.638L21.813,70.625C22.094,70.834 22.376,71.043 22.658,71.254M-14.45,66.057C-14.064,66.875 -13.635,67.67 -13.155,68.436C-12.726,69.124 -12.259,69.784 -11.76,70.422L-11.706,70.491L-12.531,71.143C-12.638,71.01 -12.743,70.875 -12.846,70.739C-13.327,70.098 -13.78,69.438 -14.196,68.753C-14.64,68.026 -15.041,67.274 -15.404,66.503L-15.415,66.479L-14.46,66.036C-14.457,66.042 -14.454,66.05 -14.45,66.057M28.364,63.048L25.284,67.451L24.419,66.848L27.501,62.445C27.788,62.646 28.076,62.847 28.364,63.048M-16.547,56.592C-16.548,56.789 -16.543,56.985 -16.539,57.18C-16.534,57.371 -16.527,57.563 -16.517,57.754C-16.482,58.416 -16.421,59.075 -16.329,59.73C-16.231,60.423 -16.1,61.108 -15.94,61.79L-15.939,61.792L-16.963,62.039C-17.009,61.848 -17.051,61.657 -17.092,61.465C-17.263,60.649 -17.394,59.826 -17.479,58.997C-17.559,58.201 -17.598,57.403 -17.6,56.602L-17.6,56.588C-17.249,56.589 -16.898,56.59 -16.547,56.592M34.084,54.872L31.004,59.275L30.141,58.67L33.222,54.267C33.509,54.469 33.796,54.67 34.084,54.872M-14.467,47.144C-14.521,47.26 -14.573,47.377 -14.625,47.494C-14.699,47.661 -14.771,47.83 -14.841,47.999C-15.12,48.679 -15.372,49.37 -15.585,50.075C-15.783,50.728 -15.948,51.389 -16.088,52.057L-16.1,52.119L-17.132,51.911C-17.102,51.761 -17.07,51.612 -17.037,51.462C-16.851,50.642 -16.626,49.831 -16.356,49.034C-16.089,48.246 -15.776,47.475 -15.429,46.718L-15.419,46.698C-15.102,46.846 -14.784,46.996 -14.467,47.144M39.806,46.694L36.725,51.097L35.863,50.494L38.943,46.091C39.231,46.292 39.518,46.494 39.806,46.694M-8.591,39.458C-8.731,39.575 -8.867,39.695 -9.004,39.814C-9.139,39.934 -9.271,40.056 -9.405,40.178C-9.887,40.63 -10.352,41.1 -10.794,41.592C-11.278,42.129 -11.732,42.69 -12.164,43.269L-12.171,43.279L-13.02,42.656C-12.942,42.549 -12.862,42.446 -12.783,42.34C-12.245,41.642 -11.673,40.971 -11.063,40.335C-10.496,39.744 -9.897,39.187 -9.274,38.656L-9.268,38.65C-9.042,38.919 -8.817,39.189 -8.591,39.458M45.527,38.518L42.446,42.92L41.583,42.318L44.664,37.915C44.952,38.115 45.24,38.317 45.527,38.518M-0.464,33.754L-4.866,36.837L-5.47,35.975L-1.068,32.891C-0.867,33.179 -0.666,33.467 -0.464,33.754M51.248,30.341L48.167,34.745L47.304,34.14L50.385,29.737C50.673,29.938 50.96,30.14 51.248,30.341M7.709,28.027L3.307,31.111L2.704,30.249L7.104,27.166C7.306,27.453 7.507,27.74 7.709,28.027M56.969,22.164L53.889,26.567L53.026,25.964L56.107,21.561C56.394,21.762 56.682,21.962 56.969,22.164M15.882,22.301L11.481,25.385L10.877,24.522L15.278,21.439C15.479,21.726 15.68,22.014 15.882,22.301M24.055,16.574L19.654,19.658L19.05,18.795L23.451,15.713C23.652,16 23.854,16.288 24.055,16.574M32.228,10.848L27.828,13.932L27.223,13.069L31.624,9.986C31.826,10.273 32.027,10.561 32.228,10.848M61.608,3.596C61.791,3.9 61.962,4.208 62.118,4.527C62.432,5.171 62.685,5.844 62.872,6.536C63.074,7.289 63.192,8.06 63.24,8.839L62.189,8.903C62.181,8.774 62.181,8.774 62.171,8.646C62.161,8.521 62.161,8.521 62.149,8.396C62.08,7.778 61.963,7.168 61.788,6.573C61.616,5.991 61.391,5.424 61.119,4.881C60.993,4.63 60.855,4.385 60.709,4.144L60.667,4.076L61.563,3.523C61.579,3.547 61.593,3.571 61.608,3.596M40.401,5.122L36,8.206L35.396,7.343L39.797,4.26C39.999,4.547 40.2,4.835 40.401,5.122M48.566,-0.274C48.479,-0.245 48.394,-0.213 48.308,-0.182C48.19,-0.137 48.19,-0.137 48.073,-0.091C47.839,0.004 47.609,0.104 47.382,0.214C46.856,0.47 46.351,0.771 45.874,1.108C45.565,1.326 45.268,1.56 44.983,1.806C44.813,1.952 44.649,2.105 44.487,2.26L44.173,2.479L43.569,1.616L43.818,1.443C43.907,1.358 43.998,1.275 44.088,1.191C44.191,1.1 44.294,1.01 44.398,0.92C44.996,0.42 45.631,-0.03 46.312,-0.412C46.916,-0.752 47.549,-1.033 48.204,-1.263L48.229,-1.271C48.341,-0.939 48.454,-0.606 48.566,-0.274M52.994,-1.818C53.632,-1.751 54.262,-1.639 54.881,-1.47C56.076,-1.144 57.208,-0.619 58.236,0.071L57.65,0.945C57.557,0.883 57.464,0.823 57.371,0.764C57.268,0.7 57.166,0.638 57.062,0.576C56.818,0.436 56.569,0.304 56.315,0.182C55.801,-0.063 55.267,-0.265 54.721,-0.421C54.123,-0.593 53.51,-0.706 52.891,-0.77L52.987,-1.819C52.99,-1.819 52.992,-1.818 52.994,-1.818" style="fill:white;fill-rule:nonzero;"/>
                            </g>
                            <g transform="matrix(1,0,0,1,183.322,174.624)">
                                <path d="M0,-7.411C0.078,-7.411 0.156,-7.488 0.234,-7.566C0.312,-7.644 0.312,-7.801 0.312,-7.878C0.312,-7.957 0.234,-8.035 0.156,-8.112C0.078,-8.19 0,-8.19 -0.155,-8.19C-0.233,-8.19 -0.857,-8.112 -1.403,-8.035C-1.481,-8.268 -1.561,-8.581 -1.638,-8.814C-1.169,-9.049 -0.624,-9.282 -0.545,-9.282C-0.468,-9.36 -0.39,-9.438 -0.312,-9.516C-0.233,-9.595 -0.233,-9.75 -0.312,-9.829C-0.312,-9.906 -0.39,-9.984 -0.468,-10.062C-0.545,-10.14 -0.624,-10.14 -0.779,-10.14C-0.857,-10.14 -1.481,-9.984 -1.95,-9.906C-2.027,-10.14 -2.105,-10.453 -2.262,-10.686C-1.793,-10.92 -1.326,-11.232 -1.169,-11.31C-1.092,-11.389 -1.014,-11.467 -1.014,-11.544L-1.014,-11.856C-1.092,-11.934 -1.169,-12.013 -1.248,-12.091C-1.326,-12.168 -1.481,-12.168 -1.561,-12.091C-1.638,-12.091 -2.185,-11.856 -2.729,-11.701C-2.807,-11.934 -2.964,-12.168 -3.119,-12.402C-2.651,-12.715 -2.185,-13.026 -2.105,-13.104C-2.027,-13.182 -1.95,-13.26 -1.95,-13.339C-1.95,-13.416 -1.95,-13.572 -2.027,-13.65C-2.105,-13.728 -2.185,-13.806 -2.262,-13.806L-2.574,-13.806C-2.651,-13.728 -3.198,-13.494 -3.665,-13.339C-3.822,-13.572 -3.978,-13.806 -4.134,-14.04C-3.743,-14.352 -3.275,-14.742 -3.198,-14.819C-3.119,-14.898 -3.041,-14.976 -3.041,-15.054C-3.041,-15.132 -3.041,-15.288 -3.119,-15.366C-3.198,-15.443 -3.275,-15.522 -3.354,-15.522L-3.665,-15.522C-3.743,-15.443 -4.289,-15.132 -4.758,-14.898C-4.913,-15.132 -5.069,-15.366 -5.303,-15.522C-4.913,-15.912 -4.523,-16.302 -4.446,-16.38C-4.367,-16.459 -4.367,-16.536 -4.367,-16.691C-4.367,-16.77 -4.367,-16.926 -4.446,-17.004C-4.523,-17.081 -4.602,-17.16 -4.679,-17.16C-4.758,-17.16 -4.913,-17.16 -4.991,-17.081C-5.069,-17.004 -5.537,-16.691 -6.006,-16.38C-6.161,-16.614 -6.396,-16.77 -6.551,-16.926C-6.239,-17.315 -5.927,-17.784 -5.85,-17.939C-5.771,-18.017 -5.771,-18.097 -5.771,-18.252C-5.771,-18.329 -5.85,-18.486 -5.927,-18.486C-6.006,-18.563 -6.084,-18.563 -6.239,-18.563C-6.317,-18.563 -6.474,-18.563 -6.551,-18.486C-6.63,-18.408 -7.098,-18.017 -7.487,-17.628C-7.722,-17.784 -7.877,-17.939 -8.111,-18.174C-7.877,-18.641 -7.564,-19.11 -7.487,-19.187C-7.409,-19.265 -7.409,-19.422 -7.409,-19.5C-7.409,-19.577 -7.487,-19.656 -7.564,-19.734C-7.644,-19.811 -7.722,-19.811 -7.877,-19.811C-7.955,-19.811 -8.111,-19.734 -8.111,-19.656C-8.188,-19.577 -8.579,-19.11 -8.892,-18.72C-9.125,-18.876 -9.359,-19.032 -9.593,-19.187C-9.359,-19.656 -9.125,-20.201 -9.047,-20.28C-8.969,-20.357 -8.969,-20.514 -9.047,-20.592C-9.047,-20.67 -9.125,-20.748 -9.203,-20.825C-9.281,-20.904 -9.437,-20.904 -9.516,-20.904C-9.593,-20.904 -9.671,-20.825 -9.749,-20.748C-9.827,-20.67 -10.14,-20.201 -10.451,-19.734C-10.685,-19.89 -10.919,-19.968 -11.153,-20.124C-10.997,-20.592 -10.763,-21.138 -10.763,-21.294L-10.763,-21.605C-10.841,-21.683 -10.919,-21.762 -10.997,-21.84C-11.075,-21.918 -11.231,-21.918 -11.309,-21.84C-11.387,-21.84 -11.465,-21.762 -11.543,-21.683C-11.621,-21.605 -11.855,-21.059 -12.167,-20.592C-12.401,-20.67 -12.634,-20.825 -12.946,-20.904C-12.869,-21.449 -12.713,-21.995 -12.634,-22.073C-12.634,-22.151 -12.634,-22.307 -12.713,-22.386C-12.791,-22.463 -12.869,-22.542 -12.946,-22.542L-13.258,-22.542C-13.337,-22.542 -13.415,-22.463 -13.493,-22.307C-13.57,-22.229 -13.805,-21.683 -13.961,-21.216C-14.194,-21.294 -14.506,-21.372 -14.741,-21.449C-14.663,-21.995 -14.585,-22.542 -14.585,-22.697C-14.585,-22.775 -14.585,-22.932 -14.663,-23.01C-14.741,-23.087 -14.818,-23.166 -14.897,-23.166C-14.975,-23.166 -15.13,-23.166 -15.209,-23.087C-15.287,-23.01 -15.364,-22.932 -15.364,-22.853C-15.364,-22.775 -15.599,-22.229 -15.754,-21.683C-15.988,-21.762 -16.3,-21.762 -16.535,-21.84L-16.535,-23.087C-16.535,-23.166 -16.612,-23.321 -16.612,-23.399C-16.69,-23.477 -16.769,-23.556 -16.847,-23.556C-16.924,-23.556 -17.081,-23.556 -17.159,-23.477C-17.236,-23.399 -17.314,-23.321 -17.314,-23.243C-17.314,-23.166 -17.471,-22.542 -17.548,-22.073C-17.783,-22.073 -18.095,-22.073 -18.328,-22.151C-18.407,-22.697 -18.407,-23.243 -18.407,-23.399C-18.407,-23.477 -18.484,-23.633 -18.562,-23.633C-18.64,-23.711 -18.719,-23.711 -18.874,-23.711C-18.952,-23.711 -19.108,-23.711 -19.186,-23.633C-19.264,-23.556 -19.343,-23.477 -19.343,-23.399C-19.343,-23.243 -19.42,-22.697 -19.498,-22.151C-19.81,-22.151 -20.044,-22.151 -20.279,-22.073C-20.356,-22.619 -20.512,-23.166 -20.512,-23.243C-20.512,-23.321 -20.591,-23.399 -20.668,-23.477C-20.746,-23.556 -20.824,-23.556 -20.98,-23.556C-21.058,-23.556 -21.215,-23.477 -21.292,-23.399C-21.37,-23.321 -21.37,-23.243 -21.37,-23.087L-21.37,-21.84C-21.604,-21.84 -21.917,-21.762 -22.149,-21.683C-22.306,-22.229 -22.461,-22.775 -22.541,-22.853C-22.541,-22.932 -22.618,-23.01 -22.696,-23.087C-22.773,-23.166 -22.853,-23.166 -23.008,-23.166C-23.085,-23.166 -23.164,-23.087 -23.242,-23.01C-23.32,-22.932 -23.32,-22.853 -23.32,-22.697C-23.32,-22.542 -23.242,-21.995 -23.164,-21.449C-23.397,-21.372 -23.709,-21.294 -23.944,-21.216C-24.178,-21.683 -24.412,-22.229 -24.412,-22.307C-24.49,-22.386 -24.568,-22.463 -24.646,-22.542C-24.724,-22.542 -24.88,-22.619 -24.958,-22.542C-25.036,-22.542 -25.114,-22.463 -25.192,-22.386C-25.27,-22.307 -25.27,-22.229 -25.27,-22.073C-25.27,-21.995 -25.114,-21.372 -25.036,-20.904C-25.27,-20.825 -25.582,-20.748 -25.816,-20.592C-26.05,-21.059 -26.362,-21.528 -26.439,-21.683C-26.518,-21.762 -26.596,-21.84 -26.674,-21.84L-26.986,-21.84C-27.063,-21.762 -27.142,-21.762 -27.219,-21.605C-27.298,-21.528 -27.298,-21.372 -27.219,-21.294C-27.142,-21.216 -26.986,-20.67 -26.83,-20.124C-27.063,-19.968 -27.298,-19.89 -27.531,-19.734C-27.843,-20.201 -28.155,-20.67 -28.234,-20.748C-28.312,-20.825 -28.389,-20.904 -28.467,-20.904C-28.546,-20.904 -28.701,-20.904 -28.779,-20.825C-28.858,-20.748 -28.936,-20.67 -29.013,-20.592L-29.013,-20.28C-28.936,-20.201 -28.701,-19.656 -28.546,-19.187C-28.779,-19.032 -29.013,-18.876 -29.248,-18.72C-29.56,-19.11 -29.949,-19.577 -30.027,-19.656C-30.106,-19.734 -30.184,-19.811 -30.339,-19.811C-30.418,-19.811 -30.573,-19.811 -30.651,-19.734C-30.73,-19.656 -30.808,-19.577 -30.808,-19.5L-30.808,-19.187C-30.73,-19.11 -30.496,-18.563 -30.184,-18.174C-30.418,-18.017 -30.573,-17.862 -30.808,-17.628C-31.197,-18.017 -31.587,-18.408 -31.666,-18.486C-31.744,-18.563 -31.821,-18.563 -31.977,-18.563C-32.056,-18.563 -32.211,-18.563 -32.289,-18.486C-32.368,-18.408 -32.445,-18.329 -32.445,-18.252C-32.445,-18.174 -32.445,-18.017 -32.368,-17.939C-32.289,-17.862 -31.977,-17.393 -31.666,-16.926C-31.899,-16.77 -32.056,-16.536 -32.211,-16.38C-32.601,-16.691 -33.069,-17.081 -33.225,-17.081C-33.304,-17.16 -33.381,-17.16 -33.537,-17.16C-33.616,-17.16 -33.693,-17.081 -33.771,-17.004C-33.849,-16.926 -33.849,-16.849 -33.849,-16.691C-33.849,-16.614 -33.849,-16.459 -33.771,-16.38C-33.693,-16.302 -33.304,-15.835 -32.913,-15.443C-33.069,-15.211 -33.225,-15.054 -33.459,-14.819C-33.927,-15.054 -34.395,-15.366 -34.473,-15.443C-34.551,-15.522 -34.707,-15.522 -34.785,-15.522C-34.863,-15.522 -34.941,-15.443 -35.019,-15.366C-35.097,-15.288 -35.097,-15.211 -35.097,-15.054C-35.097,-14.976 -35.019,-14.819 -34.941,-14.819C-34.863,-14.742 -34.395,-14.352 -34.005,-14.04C-34.161,-13.806 -34.317,-13.572 -34.473,-13.339C-34.941,-13.572 -35.487,-13.806 -35.565,-13.884C-35.643,-13.963 -35.799,-13.963 -35.877,-13.884C-35.955,-13.884 -36.033,-13.806 -36.111,-13.728C-36.189,-13.65 -36.189,-13.494 -36.189,-13.416C-36.189,-13.339 -36.111,-13.182 -36.033,-13.182C-35.955,-13.104 -35.487,-12.792 -35.019,-12.48C-35.175,-12.246 -35.253,-12.013 -35.409,-11.778C-35.877,-11.934 -36.423,-12.168 -36.579,-12.168L-36.891,-12.168C-36.969,-12.091 -37.046,-12.091 -37.125,-11.934C-37.203,-11.856 -37.203,-11.701 -37.125,-11.622C-37.125,-11.544 -37.046,-11.467 -36.969,-11.389C-36.891,-11.31 -36.345,-11.077 -35.877,-10.765C-35.955,-10.53 -36.111,-10.219 -36.189,-9.984C-36.735,-10.062 -37.281,-10.219 -37.358,-10.297C-37.437,-10.297 -37.593,-10.297 -37.67,-10.219C-37.749,-10.14 -37.827,-10.062 -37.827,-9.984L-37.827,-9.673C-37.749,-9.595 -37.749,-9.516 -37.593,-9.438C-37.515,-9.36 -36.969,-9.126 -36.501,-8.971C-36.579,-8.736 -36.657,-8.425 -36.735,-8.19C-37.281,-8.268 -37.827,-8.347 -37.982,-8.347C-38.061,-8.347 -38.217,-8.347 -38.294,-8.268C-38.373,-8.19 -38.451,-8.112 -38.451,-8.035C-38.451,-7.957 -38.451,-7.801 -38.373,-7.723C-38.294,-7.644 -38.217,-7.566 -38.139,-7.488C-38.061,-7.488 -37.515,-7.254 -36.969,-7.099C-37.046,-6.864 -37.046,-6.553 -37.125,-6.319L-38.373,-6.319C-38.451,-6.319 -38.606,-6.24 -38.685,-6.24C-38.763,-6.163 -38.84,-6.085 -38.84,-6.008C-38.84,-5.929 -38.84,-5.773 -38.763,-5.695C-38.685,-5.616 -38.606,-5.539 -38.528,-5.539C-38.373,-5.539 -37.827,-5.384 -37.358,-5.305C-37.358,-4.992 -37.358,-4.76 -37.437,-4.447C-37.982,-4.368 -38.528,-4.368 -38.685,-4.368C-38.763,-4.368 -38.918,-4.291 -38.918,-4.213C-38.997,-4.136 -38.997,-4.057 -38.997,-3.901C-38.997,-3.823 -38.997,-3.667 -38.918,-3.589C-38.84,-3.512 -38.763,-3.432 -38.685,-3.432C-38.528,-3.432 -37.982,-3.354 -37.437,-3.354L-37.437,-2.497C-37.982,-2.419 -38.528,-2.264 -38.606,-2.264C-38.685,-2.264 -38.763,-2.185 -38.84,-2.106C-38.918,-2.029 -38.918,-1.951 -38.918,-1.795C-38.918,-1.717 -38.84,-1.561 -38.763,-1.561C-38.685,-1.482 -38.606,-1.405 -38.451,-1.405L-37.203,-1.405C-37.203,-1.171 -37.125,-0.859 -37.046,-0.626C-37.515,-0.469 -38.139,-0.313 -38.217,-0.235C-38.294,-0.235 -38.373,-0.157 -38.451,-0.002C-38.528,0.077 -38.528,0.155 -38.528,0.311C-38.528,0.389 -38.451,0.467 -38.373,0.545C-38.294,0.622 -38.217,0.622 -38.061,0.622C-37.982,0.622 -37.358,0.545 -36.813,0.467C-36.735,0.701 -36.657,1.013 -36.579,1.246C-37.046,1.481 -37.593,1.715 -37.67,1.715C-37.749,1.792 -37.827,1.87 -37.905,1.949C-37.982,2.027 -37.982,2.183 -37.905,2.261C-37.905,2.339 -37.827,2.416 -37.749,2.494C-37.67,2.572 -37.593,2.572 -37.437,2.572C-37.358,2.572 -36.735,2.416 -36.267,2.339C-36.189,2.572 -36.111,2.884 -35.955,3.118C-36.423,3.353 -36.891,3.664 -37.046,3.742C-37.125,3.82 -37.203,3.899 -37.203,3.977L-37.203,4.288C-37.125,4.366 -37.046,4.444 -36.969,4.523C-36.891,4.601 -36.735,4.601 -36.657,4.523C-36.579,4.523 -36.033,4.288 -35.487,4.132C-35.409,4.366 -35.253,4.601 -35.097,4.835C-35.565,5.147 -36.033,5.459 -36.111,5.536C-36.189,5.614 -36.267,5.692 -36.267,5.771C-36.267,5.849 -36.267,6.004 -36.189,6.083C-36.111,6.16 -36.033,6.238 -35.955,6.238C-35.877,6.238 -35.721,6.316 -35.643,6.238C-35.565,6.16 -35.019,5.926 -34.551,5.771C-34.395,6.004 -34.239,6.238 -34.083,6.473C-34.473,6.784 -34.941,7.174 -35.019,7.252C-35.097,7.331 -35.175,7.408 -35.175,7.564C-35.175,7.642 -35.175,7.798 -35.097,7.876C-35.019,7.953 -34.941,8.032 -34.863,8.032C-34.785,8.032 -34.629,8.032 -34.551,7.953C-34.473,7.876 -33.927,7.564 -33.459,7.331C-33.304,7.564 -33.147,7.798 -32.913,7.953C-33.304,8.345 -33.693,8.735 -33.771,8.89C-33.849,8.969 -33.849,9.046 -33.849,9.201C-33.849,9.28 -33.771,9.436 -33.771,9.514C-33.693,9.592 -33.616,9.67 -33.537,9.67C-33.459,9.67 -33.304,9.67 -33.225,9.592C-33.147,9.514 -32.68,9.201 -32.211,8.89C-32.056,9.124 -31.821,9.28 -31.666,9.436C-31.977,9.825 -32.368,10.294 -32.368,10.449C-32.445,10.528 -32.445,10.607 -32.445,10.762C-32.445,10.84 -32.368,10.918 -32.289,10.996C-32.211,11.073 -32.133,11.073 -31.977,11.073C-31.899,11.073 -31.744,11.073 -31.666,10.996C-31.587,10.918 -31.12,10.528 -30.73,10.138C-30.496,10.294 -30.339,10.449 -30.106,10.684C-30.339,11.152 -30.651,11.62 -30.73,11.776C-30.808,11.854 -30.808,12.01 -30.808,12.088C-30.808,12.166 -30.73,12.244 -30.651,12.321C-30.573,12.4 -30.496,12.4 -30.339,12.4C-30.261,12.4 -30.106,12.321 -30.106,12.244C-30.027,12.166 -29.637,11.697 -29.325,11.308C-29.091,11.464 -28.858,11.62 -28.624,11.776C-28.858,12.244 -29.091,12.79 -29.17,12.867C-29.248,12.945 -29.248,13.102 -29.17,13.18C-29.17,13.258 -29.091,13.335 -29.013,13.414C-28.936,13.491 -28.779,13.491 -28.701,13.491C-28.624,13.491 -28.467,13.414 -28.467,13.335C-28.389,13.258 -28.077,12.79 -27.765,12.321C-27.531,12.478 -27.298,12.556 -27.063,12.711C-27.219,13.18 -27.453,13.726 -27.453,13.882L-27.453,14.193C-27.375,14.272 -27.375,14.35 -27.219,14.428C-27.142,14.505 -26.986,14.505 -26.908,14.428C-26.83,14.428 -26.751,14.35 -26.674,14.272C-26.596,14.193 -26.362,13.648 -26.05,13.18C-25.816,13.258 -25.582,13.414 -25.27,13.491C-25.348,14.038 -25.504,14.583 -25.504,14.662C-25.504,14.739 -25.504,14.896 -25.426,14.974C-25.348,15.052 -25.27,15.129 -25.192,15.129L-24.88,15.129C-24.802,15.129 -24.724,15.052 -24.646,14.896C-24.568,14.818 -24.333,14.272 -24.178,13.804C-23.944,13.882 -23.632,13.959 -23.397,14.038C-23.476,14.583 -23.554,15.129 -23.554,15.286C-23.554,15.363 -23.554,15.52 -23.476,15.598C-23.397,15.676 -23.32,15.753 -23.242,15.753C-23.164,15.753 -23.008,15.753 -22.93,15.676C-22.853,15.598 -22.773,15.52 -22.696,15.442C-22.696,15.363 -22.461,14.818 -22.306,14.272C-22.072,14.35 -21.76,14.35 -21.526,14.428L-21.526,15.676C-21.526,15.753 -21.448,15.91 -21.448,15.987C-21.37,16.066 -21.292,16.143 -21.215,16.143C-21.136,16.143 -20.98,16.143 -20.903,16.066C-20.824,15.987 -20.746,15.91 -20.746,15.831C-20.746,15.676 -20.591,15.129 -20.512,14.662C-20.279,14.662 -19.967,14.662 -19.732,14.739C-19.655,15.286 -19.655,15.831 -19.655,15.987C-19.655,16.066 -19.576,16.222 -19.498,16.222C-19.42,16.3 -19.343,16.3 -19.186,16.3C-19.108,16.3 -18.952,16.222 -18.874,16.222C-18.796,16.143 -18.719,16.066 -18.719,15.987C-18.719,15.91 -18.64,15.286 -18.562,14.739C-18.328,14.739 -18.016,14.739 -17.783,14.662C-17.704,15.207 -17.548,15.753 -17.548,15.831C-17.548,15.91 -17.471,16.066 -17.392,16.066C-17.314,16.143 -17.236,16.143 -17.081,16.143C-17.002,16.143 -16.847,16.066 -16.847,15.987C-16.769,15.91 -16.769,15.831 -16.769,15.676L-16.769,14.428C-16.535,14.428 -16.223,14.35 -15.988,14.272C-15.833,14.739 -15.676,15.363 -15.599,15.442C-15.599,15.52 -15.521,15.598 -15.442,15.676C-15.364,15.753 -15.287,15.753 -15.13,15.753C-15.052,15.753 -14.975,15.676 -14.897,15.598C-14.818,15.52 -14.818,15.442 -14.818,15.286C-14.818,15.129 -14.897,14.583 -14.975,14.038C-14.741,13.959 -14.429,13.882 -14.194,13.804C-13.961,14.272 -13.727,14.818 -13.727,14.974C-13.649,15.052 -13.57,15.129 -13.493,15.207C-13.415,15.207 -13.258,15.286 -13.181,15.207C-13.103,15.207 -13.025,15.129 -12.946,15.052C-12.869,14.974 -12.869,14.896 -12.869,14.739C-12.869,14.662 -13.025,14.038 -13.103,13.569C-12.869,13.491 -12.557,13.414 -12.323,13.258C-12.089,13.726 -11.777,14.193 -11.699,14.35C-11.621,14.428 -11.543,14.505 -11.465,14.505L-11.153,14.505C-11.075,14.428 -10.997,14.35 -10.919,14.272C-10.841,14.193 -10.841,14.038 -10.919,13.959C-10.919,13.882 -11.153,13.335 -11.309,12.79C-11.075,12.711 -10.841,12.556 -10.607,12.4C-10.295,12.867 -9.982,13.335 -9.905,13.414C-9.827,13.491 -9.749,13.569 -9.671,13.569C-9.593,13.569 -9.437,13.569 -9.359,13.491C-9.281,13.414 -9.203,13.335 -9.203,13.258L-9.203,12.945C-9.281,12.867 -9.516,12.321 -9.671,11.854C-9.437,11.697 -9.203,11.542 -8.969,11.386C-8.657,11.776 -8.268,12.244 -8.188,12.321C-8.111,12.4 -8.033,12.478 -7.955,12.478C-7.877,12.478 -7.722,12.478 -7.644,12.4C-7.564,12.321 -7.487,12.244 -7.487,12.166L-7.487,11.854C-7.564,11.776 -7.799,11.23 -8.111,10.762C-7.877,10.607 -7.644,10.449 -7.487,10.216C-7.098,10.607 -6.707,10.996 -6.551,11.073C-6.474,11.152 -6.396,11.152 -6.239,11.152C-6.161,11.152 -6.006,11.073 -5.927,11.073C-5.85,10.996 -5.771,10.918 -5.771,10.84C-5.771,10.762 -5.771,10.607 -5.85,10.528C-5.927,10.449 -6.239,9.983 -6.551,9.514C-6.317,9.359 -6.161,9.124 -6.006,8.969C-5.615,9.28 -5.147,9.67 -4.991,9.67C-4.913,9.748 -4.836,9.748 -4.679,9.748C-4.602,9.748 -4.446,9.67 -4.446,9.592C-4.367,9.514 -4.367,9.436 -4.367,9.28C-4.367,9.201 -4.367,9.046 -4.446,8.969C-4.523,8.89 -4.913,8.422 -5.303,8.032C-5.147,7.798 -4.991,7.642 -4.758,7.408C-4.289,7.642 -3.822,7.953 -3.665,8.032C-3.588,8.11 -3.431,8.11 -3.354,8.11C-3.275,8.11 -3.198,8.032 -3.119,7.953C-3.041,7.876 -3.041,7.798 -3.041,7.642C-3.041,7.564 -3.119,7.408 -3.198,7.331C-3.275,7.252 -3.743,6.862 -4.134,6.55C-3.978,6.316 -3.822,6.083 -3.665,5.849C-3.198,6.083 -2.651,6.316 -2.574,6.395C-2.496,6.473 -2.34,6.473 -2.262,6.395C-2.185,6.395 -2.105,6.316 -2.027,6.238C-1.95,6.16 -1.95,6.004 -1.95,5.926C-1.95,5.849 -2.027,5.771 -2.105,5.692C-2.185,5.614 -2.651,5.302 -3.119,4.99C-2.964,4.756 -2.886,4.523 -2.729,4.288C-2.262,4.444 -1.716,4.678 -1.561,4.678L-1.248,4.678C-1.169,4.601 -1.092,4.523 -1.014,4.444C-0.937,4.366 -0.937,4.211 -1.014,4.132C-1.014,4.054 -1.092,3.977 -1.169,3.899C-1.248,3.82 -1.793,3.587 -2.262,3.275C-2.185,3.04 -2.027,2.807 -1.95,2.494C-1.403,2.651 -0.857,2.729 -0.779,2.807C-0.702,2.807 -0.545,2.807 -0.468,2.729C-0.39,2.651 -0.312,2.572 -0.312,2.494L-0.312,2.183C-0.312,2.105 -0.39,2.027 -0.545,1.949C-0.624,1.87 -1.169,1.637 -1.638,1.481C-1.561,1.246 -1.481,0.935 -1.403,0.701C-0.857,0.778 -0.312,0.857 -0.155,0.857C-0.078,0.857 0.078,0.857 0.156,0.778C0.234,0.701 0.312,0.622 0.312,0.545C0.312,0.467 0.312,0.311 0.234,0.233C0.156,0.155 0.078,0.077 0,0.077C-0.078,0.077 -0.624,-0.157 -1.169,-0.313C-1.092,-0.626 -1.092,-0.859 -1.014,-1.093L0.234,-1.093C0.312,-1.093 0.469,-1.171 0.546,-1.171C0.624,-1.25 0.702,-1.327 0.702,-1.405C0.702,-1.482 0.702,-1.64 0.624,-1.717C0.546,-1.795 0.469,-1.874 0.391,-1.874C0.312,-1.874 -0.312,-2.029 -0.779,-2.106C-0.779,-2.419 -0.779,-2.653 -0.702,-2.888C-0.155,-2.965 0.391,-2.965 0.546,-2.965C0.624,-2.965 0.78,-3.043 0.78,-3.12C0.858,-3.199 0.858,-3.277 0.858,-3.432C0.858,-3.512 0.858,-3.667 0.78,-3.744C0.702,-3.823 0.624,-3.901 0.546,-3.901C0.391,-3.901 -0.155,-3.978 -0.702,-4.057C-0.702,-4.368 -0.702,-4.602 -0.779,-4.915C-0.233,-4.992 0.312,-5.149 0.391,-5.149C0.469,-5.149 0.546,-5.226 0.624,-5.305C0.702,-5.384 0.702,-5.461 0.702,-5.616C0.702,-5.695 0.624,-5.85 0.546,-5.929C0.469,-6.008 0.391,-6.008 0.234,-6.008L-1.014,-6.008C-1.014,-6.24 -1.092,-6.553 -1.169,-6.787C-0.624,-7.177 -0.078,-7.333 0,-7.411M-15.833,11.542C-24.333,13.335 -32.68,7.876 -34.473,-0.703C-36.267,-9.205 -30.808,-17.55 -22.306,-19.344C-13.805,-21.138 -5.46,-15.678 -3.665,-7.099C-1.872,1.481 -7.331,9.825 -15.833,11.542" style="fill:white;fill-rule:nonzero;"/>
                            </g>
                            <g transform="matrix(1,0,0,1,161.015,186.711)">
                                <path d="M0,-31.899C-8.813,-30.105 -14.429,-21.448 -12.557,-12.634C-10.686,-3.822 -2.106,1.794 6.708,0C15.521,-1.872 21.137,-10.451 19.265,-19.264C17.393,-28.078 8.736,-33.693 0,-31.899M3.275,-25.269C8.441,-25.269 12.635,-21.076 12.635,-15.911C12.635,-10.745 8.441,-6.551 3.275,-6.551C-1.889,-6.551 -6.083,-10.745 -6.083,-15.911C-6.083,-21.076 -1.889,-25.269 3.275,-25.269" style="fill:white;"/>
                            </g>
                            <g transform="matrix(1,0,0,1,171.466,169.787)">
                                <path d="M0,2.028C0.546,-1.951 -2.184,-5.617 -6.161,-6.161C-10.139,-6.707 -13.805,-3.978 -14.351,0C-14.896,3.977 -12.167,7.643 -8.189,8.189C-4.211,8.735 -0.546,6.006 0,2.028M-8.033,7.019C-8.891,6.863 -9.671,6.629 -10.374,6.162L-8.267,3.431C-8.033,3.509 -7.8,3.587 -7.565,3.587C-6.317,3.744 -5.147,3.042 -4.68,1.949L-1.326,2.418C-2.027,5.459 -4.914,7.487 -8.033,7.019M-5.849,1.17C-5.928,1.872 -6.629,2.418 -7.409,2.34C-8.189,2.261 -8.657,1.559 -8.579,0.78C-8.501,0.077 -7.8,-0.468 -7.019,-0.39C-6.24,-0.235 -5.693,0.468 -5.849,1.17M-1.091,1.092L-4.445,0.624C-4.602,-0.547 -5.537,-1.483 -6.785,-1.716L-7.488,-1.716L-8.736,-4.913C-7.955,-5.148 -7.176,-5.148 -6.317,-5.07C-3.275,-4.602 -1.014,-1.951 -1.091,1.092M-13.181,0.156C-12.869,-1.872 -11.699,-3.432 -10.062,-4.368L-8.813,-1.171C-9.36,-0.78 -9.75,-0.156 -9.905,0.624C-9.983,1.325 -9.827,2.028 -9.36,2.651L-11.465,5.382C-12.791,3.977 -13.493,2.106 -13.181,0.156" style="fill:white;fill-rule:nonzero;"/>
                            </g>
                            <g transform="matrix(1,0,0,1,224.892,212.456)">
                                <path d="M0,-1.169C-0.233,-1.169 -0.468,-1.169 -0.702,-1.247C-0.935,-1.247 -1.092,-1.247 -1.326,-1.325L-1.559,-1.325C-1.559,-1.481 -1.638,-1.56 -1.638,-1.716C-1.638,-1.871 -1.716,-2.027 -1.716,-2.106C-1.638,-2.106 -1.559,-2.184 -1.559,-2.184C-1.403,-2.262 -1.247,-2.339 -1.014,-2.495C-0.857,-2.573 -0.623,-2.651 -0.39,-2.808C-0.233,-2.886 -0.155,-3.119 -0.233,-3.354C-0.311,-3.587 -0.545,-3.665 -0.702,-3.587C-0.935,-3.509 -1.169,-3.432 -1.326,-3.432C-1.559,-3.354 -1.716,-3.354 -1.871,-3.275C-1.949,-3.275 -2.027,-3.197 -2.105,-3.197C-2.262,-3.432 -2.417,-3.665 -2.573,-3.899L-2.417,-4.056C-2.262,-4.211 -2.183,-4.367 -2.027,-4.523C-1.871,-4.679 -1.716,-4.835 -1.559,-4.991C-1.403,-5.148 -1.403,-5.381 -1.559,-5.537C-1.716,-5.693 -1.949,-5.772 -2.105,-5.615C-2.262,-5.459 -2.495,-5.303 -2.651,-5.226C-2.807,-5.069 -2.964,-4.991 -3.119,-4.835L-3.275,-4.679C-3.51,-4.835 -3.665,-5.069 -3.899,-5.226C-3.899,-5.303 -3.821,-5.381 -3.821,-5.459C-3.743,-5.615 -3.665,-5.849 -3.587,-6.005C-3.51,-6.239 -3.431,-6.396 -3.354,-6.629C-3.275,-6.863 -3.354,-7.019 -3.587,-7.175C-3.743,-7.253 -3.978,-7.253 -4.134,-7.019C-4.289,-6.785 -4.367,-6.629 -4.523,-6.473C-4.602,-6.317 -4.758,-6.161 -4.835,-6.005C-4.913,-5.927 -4.913,-5.849 -4.913,-5.849C-5.147,-5.927 -5.459,-6.083 -5.692,-6.083L-5.692,-7.643C-5.692,-7.877 -5.849,-8.033 -6.083,-8.033C-6.316,-8.033 -6.473,-7.955 -6.551,-7.721C-6.629,-7.487 -6.629,-7.253 -6.707,-7.097C-6.785,-6.863 -6.785,-6.707 -6.862,-6.473C-6.862,-6.396 -6.862,-6.317 -6.94,-6.239L-7.799,-6.239C-7.799,-6.317 -7.799,-6.396 -7.876,-6.396C-7.955,-6.551 -8.033,-6.785 -8.033,-6.941C-8.11,-7.175 -8.188,-7.331 -8.268,-7.565C-8.345,-7.799 -8.579,-7.877 -8.734,-7.799C-8.969,-7.721 -9.124,-7.565 -9.047,-7.331C-9.047,-7.097 -8.969,-6.863 -8.969,-6.629C-8.969,-6.396 -8.892,-6.239 -8.892,-6.005L-8.892,-5.772C-9.124,-5.693 -9.437,-5.615 -9.671,-5.459C-9.748,-5.537 -9.748,-5.537 -9.827,-5.615C-9.982,-5.772 -10.061,-5.927 -10.217,-6.083C-10.372,-6.239 -10.45,-6.396 -10.606,-6.629C-10.762,-6.785 -10.996,-6.863 -11.153,-6.707C-11.309,-6.629 -11.386,-6.396 -11.309,-6.161C-11.23,-5.927 -11.074,-5.772 -10.996,-5.537C-10.919,-5.381 -10.841,-5.148 -10.685,-4.991C-10.685,-4.913 -10.606,-4.835 -10.606,-4.835C-10.841,-4.679 -10.996,-4.445 -11.23,-4.289C-11.309,-4.367 -11.309,-4.367 -11.386,-4.367C-11.543,-4.445 -11.698,-4.602 -11.933,-4.679C-12.089,-4.757 -12.322,-4.913 -12.479,-5.069C-12.634,-5.148 -12.868,-5.148 -13.024,-4.991C-13.181,-4.835 -13.181,-4.602 -13.024,-4.445C-12.868,-4.289 -12.713,-4.133 -12.557,-3.978C-12.401,-3.821 -12.244,-3.665 -12.089,-3.587C-12.01,-3.509 -12.01,-3.509 -11.933,-3.432C-12.089,-3.197 -12.244,-2.963 -12.322,-2.73C-12.401,-2.73 -12.479,-2.73 -12.557,-2.808C-12.713,-2.886 -12.946,-2.886 -13.181,-2.963C-13.415,-3.041 -13.57,-3.041 -13.805,-3.119C-14.039,-3.197 -14.194,-3.041 -14.272,-2.808C-14.351,-2.573 -14.272,-2.417 -14.039,-2.339C-13.805,-2.262 -13.648,-2.184 -13.415,-2.106C-13.181,-2.027 -13.024,-1.949 -12.868,-1.871C-12.791,-1.871 -12.713,-1.793 -12.713,-1.793C-12.791,-1.56 -12.791,-1.247 -12.868,-0.936L-13.103,-0.936C-13.258,-0.936 -13.492,-0.857 -13.727,-0.857C-13.961,-0.857 -14.194,-0.779 -14.429,-0.779C-14.662,-0.779 -14.74,-0.546 -14.74,-0.39C-14.74,-0.155 -14.585,0.001 -14.351,0.001C-14.116,0.001 -13.882,0.001 -13.648,0.078C-13.415,0.078 -13.258,0.078 -13.024,0.156L-12.791,0.156C-12.791,0.312 -12.791,0.391 -12.713,0.547C-12.713,0.702 -12.634,0.78 -12.634,0.936C-12.713,0.936 -12.791,1.015 -12.791,1.015C-12.946,1.093 -13.181,1.171 -13.337,1.326C-13.492,1.404 -13.727,1.56 -13.961,1.639C-14.116,1.717 -14.194,1.95 -14.116,2.185C-14.039,2.34 -13.805,2.496 -13.648,2.418C-13.415,2.34 -13.181,2.263 -13.024,2.263C-12.791,2.185 -12.634,2.185 -12.479,2.106C-12.401,2.106 -12.322,2.106 -12.244,2.028C-12.089,2.263 -11.933,2.496 -11.777,2.73C-11.854,2.809 -11.854,2.809 -11.933,2.887C-12.089,3.042 -12.167,3.198 -12.322,3.354C-12.479,3.51 -12.634,3.666 -12.791,3.822C-12.946,3.978 -12.946,4.212 -12.791,4.368C-12.634,4.524 -12.401,4.524 -12.244,4.446C-12.089,4.29 -11.854,4.134 -11.698,4.057C-11.543,3.9 -11.386,3.822 -11.23,3.666C-11.153,3.588 -11.153,3.588 -11.074,3.51C-10.841,3.666 -10.685,3.9 -10.45,4.057C-10.45,4.134 -10.529,4.212 -10.529,4.29C-10.606,4.446 -10.685,4.68 -10.762,4.836C-10.841,4.992 -10.919,5.227 -10.996,5.46C-11.074,5.694 -10.996,5.85 -10.762,6.006C-10.606,6.084 -10.372,6.084 -10.217,5.85C-10.061,5.616 -9.982,5.46 -9.827,5.304C-9.671,5.148 -9.593,4.992 -9.516,4.836C-9.516,4.758 -9.437,4.68 -9.437,4.68C-9.203,4.758 -8.892,4.836 -8.657,4.914L-8.657,6.474C-8.657,6.708 -8.5,6.864 -8.268,6.864C-8.033,6.864 -7.876,6.786 -7.799,6.552C-7.721,6.318 -7.721,6.084 -7.644,5.928C-7.564,5.694 -7.564,5.538 -7.486,5.304C-7.486,5.227 -7.486,5.148 -7.409,5.07L-6.551,5.07C-6.551,5.148 -6.473,5.227 -6.473,5.304C-6.396,5.46 -6.316,5.694 -6.316,5.85C-6.239,6.084 -6.161,6.24 -6.083,6.474C-6.005,6.708 -5.849,6.786 -5.615,6.708C-5.381,6.63 -5.225,6.474 -5.303,6.24C-5.303,6.006 -5.381,5.772 -5.381,5.538C-5.381,5.304 -5.459,5.148 -5.459,4.914L-5.459,4.68C-5.225,4.602 -4.913,4.524 -4.679,4.368C-4.602,4.446 -4.602,4.446 -4.523,4.524C-4.367,4.68 -4.289,4.836 -4.134,4.992C-3.978,5.148 -3.899,5.304 -3.743,5.538C-3.587,5.694 -3.354,5.772 -3.197,5.616C-3.041,5.538 -2.964,5.304 -3.041,5.07C-3.119,4.836 -3.275,4.68 -3.354,4.446C-3.431,4.212 -3.51,4.057 -3.587,3.9C-3.587,3.822 -3.665,3.744 -3.665,3.744C-3.431,3.588 -3.197,3.354 -3.041,3.198C-2.964,3.198 -2.964,3.276 -2.886,3.276C-2.729,3.354 -2.573,3.51 -2.34,3.588C-2.183,3.666 -1.949,3.822 -1.793,3.978C-1.638,4.057 -1.403,4.057 -1.247,3.9C-1.092,3.744 -1.092,3.51 -1.247,3.354C-1.403,3.198 -1.559,3.042 -1.716,2.887C-1.871,2.73 -2.027,2.574 -2.183,2.496C-2.262,2.418 -2.262,2.418 -2.34,2.34C-2.183,2.106 -2.027,1.872 -1.949,1.56C-1.871,1.56 -1.793,1.56 -1.716,1.639C-1.559,1.717 -1.326,1.717 -1.092,1.794C-0.857,1.872 -0.702,1.872 -0.468,1.95C-0.233,2.028 -0.078,1.872 0,1.639C0.079,1.404 0,1.248 -0.233,1.093C-0.468,1.015 -0.623,0.936 -0.857,0.858C-1.092,0.78 -1.247,0.702 -1.403,0.624C-1.481,0.624 -1.559,0.547 -1.559,0.547C-1.481,0.312 -1.481,0.001 -1.403,-0.312L-1.169,-0.312C-1.014,-0.312 -0.779,-0.39 -0.545,-0.39C-0.311,-0.39 -0.078,-0.468 0.156,-0.468C0.391,-0.468 0.469,-0.701 0.469,-0.936C0.312,-0.936 0.156,-1.169 0,-1.169M-5.692,-0.857C-5.537,-0.077 -6.005,0.624 -6.785,0.78C-7.564,0.936 -8.268,0.469 -8.423,-0.312C-8.579,-1.092 -8.11,-1.793 -7.331,-1.949C-6.551,-2.027 -5.849,-1.56 -5.692,-0.857" style="fill:white;fill-rule:nonzero;"/>
                            </g>
                            <g transform="matrix(1,0,0,1,218.341,124.707)">
                                <path d="M0,-1.171C-0.312,-1.171 -0.546,-1.171 -0.78,-1.249C-1.014,-1.249 -1.248,-1.327 -1.482,-1.327L-1.717,-1.327C-1.717,-1.483 -1.794,-1.639 -1.794,-1.795C-1.794,-1.95 -1.872,-2.107 -1.949,-2.262C-1.872,-2.262 -1.794,-2.34 -1.717,-2.34C-1.482,-2.419 -1.325,-2.574 -1.093,-2.652C-0.858,-2.731 -0.624,-2.886 -0.39,-3.043C-0.156,-3.121 -0.078,-3.433 -0.156,-3.667C-0.234,-3.9 -0.469,-4.057 -0.702,-3.979C-0.936,-3.9 -1.248,-3.822 -1.482,-3.745C-1.717,-3.667 -1.949,-3.588 -2.184,-3.51C-2.262,-3.51 -2.341,-3.433 -2.418,-3.433C-2.573,-3.745 -2.73,-3.979 -2.965,-4.291C-2.886,-4.369 -2.886,-4.369 -2.808,-4.446C-2.652,-4.603 -2.496,-4.758 -2.341,-4.993C-2.184,-5.148 -2.028,-5.382 -1.794,-5.539C-1.638,-5.694 -1.638,-6.006 -1.794,-6.163C-1.949,-6.318 -2.262,-6.396 -2.418,-6.241C-2.652,-6.084 -2.886,-5.929 -3.042,-5.772C-3.276,-5.617 -3.432,-5.46 -3.587,-5.382C-3.666,-5.305 -3.744,-5.305 -3.821,-5.227C-4.056,-5.46 -4.29,-5.617 -4.603,-5.851C-4.603,-5.929 -4.523,-6.006 -4.523,-6.084C-4.445,-6.318 -4.368,-6.474 -4.29,-6.708C-4.211,-6.942 -4.056,-7.177 -3.979,-7.41C-3.899,-7.644 -3.979,-7.879 -4.211,-8.034C-4.445,-8.113 -4.68,-8.113 -4.835,-7.879C-4.992,-7.644 -5.147,-7.41 -5.304,-7.254C-5.459,-7.02 -5.538,-6.865 -5.693,-6.708C-5.771,-6.63 -5.771,-6.553 -5.851,-6.474C-6.162,-6.63 -6.474,-6.708 -6.786,-6.786L-6.786,-8.503C-6.786,-8.736 -6.941,-8.97 -7.176,-8.97C-7.41,-8.97 -7.644,-8.892 -7.722,-8.658C-7.8,-8.424 -7.878,-8.113 -7.878,-7.879C-7.955,-7.644 -7.955,-7.41 -8.034,-7.177C-8.034,-7.098 -8.034,-7.02 -8.111,-6.942L-9.048,-6.942C-9.048,-7.02 -9.125,-7.098 -9.125,-7.177C-9.203,-7.41 -9.281,-7.644 -9.359,-7.879C-9.438,-8.113 -9.516,-8.346 -9.593,-8.658C-9.672,-8.892 -9.905,-9.048 -10.14,-8.97C-10.373,-8.892 -10.529,-8.736 -10.529,-8.503C-10.529,-8.191 -10.451,-7.956 -10.451,-7.722C-10.451,-7.489 -10.373,-7.254 -10.373,-7.02L-10.373,-6.786C-10.686,-6.708 -10.997,-6.553 -11.231,-6.396C-11.31,-6.474 -11.31,-6.553 -11.387,-6.553C-11.544,-6.708 -11.699,-6.942 -11.777,-7.098C-11.934,-7.332 -12.089,-7.489 -12.245,-7.722C-12.4,-7.879 -12.635,-7.956 -12.869,-7.801C-13.104,-7.644 -13.182,-7.41 -13.024,-7.177C-12.869,-6.942 -12.792,-6.708 -12.713,-6.474C-12.635,-6.241 -12.479,-6.006 -12.4,-5.851C-12.4,-5.772 -12.323,-5.694 -12.323,-5.617C-12.558,-5.382 -12.792,-5.227 -13.024,-4.993C-13.104,-5.07 -13.182,-5.07 -13.259,-5.148C-13.414,-5.227 -13.648,-5.382 -13.883,-5.539C-14.117,-5.694 -14.272,-5.851 -14.507,-5.929C-14.741,-6.084 -14.975,-6.006 -15.131,-5.851C-15.286,-5.617 -15.286,-5.382 -15.131,-5.227C-14.896,-5.07 -14.741,-4.836 -14.585,-4.681C-14.43,-4.524 -14.272,-4.369 -14.038,-4.212C-13.961,-4.134 -13.961,-4.134 -13.883,-4.057C-14.038,-3.822 -14.195,-3.51 -14.351,-3.198C-14.43,-3.198 -14.507,-3.198 -14.585,-3.276C-14.819,-3.355 -15.054,-3.355 -15.286,-3.433C-15.521,-3.51 -15.755,-3.51 -16.067,-3.588C-16.302,-3.667 -16.534,-3.51 -16.613,-3.276C-16.691,-3.043 -16.613,-2.809 -16.379,-2.731C-16.145,-2.652 -15.91,-2.497 -15.678,-2.419C-15.443,-2.34 -15.209,-2.262 -15.054,-2.107C-14.975,-2.107 -14.896,-2.028 -14.819,-2.028C-14.896,-1.716 -14.896,-1.404 -14.975,-1.093L-15.209,-1.093C-15.443,-1.093 -15.678,-1.015 -15.91,-1.015C-16.145,-1.015 -16.379,-0.937 -16.691,-0.937C-16.925,-0.937 -17.081,-0.703 -17.081,-0.469C-17.081,-0.235 -16.925,-0.001 -16.691,-0.001C-16.379,-0.001 -16.145,-0.001 -15.91,0.077C-15.678,0.077 -15.443,0.077 -15.209,0.155L-14.975,0.155C-14.975,0.311 -14.896,0.467 -14.896,0.623C-14.896,0.779 -14.819,0.935 -14.741,1.091C-14.819,1.091 -14.896,1.169 -14.975,1.169C-15.209,1.247 -15.365,1.403 -15.599,1.481C-15.833,1.559 -16.067,1.715 -16.302,1.871C-16.534,1.949 -16.613,2.261 -16.534,2.495C-16.457,2.729 -16.223,2.885 -15.989,2.807C-15.755,2.729 -15.443,2.65 -15.209,2.573C-14.975,2.495 -14.741,2.417 -14.507,2.339C-14.43,2.339 -14.351,2.339 -14.272,2.261C-14.117,2.573 -13.961,2.807 -13.806,3.119C-13.883,3.197 -13.883,3.197 -13.961,3.274C-14.117,3.431 -14.272,3.586 -14.43,3.821C-14.585,3.976 -14.741,4.21 -14.975,4.367C-15.131,4.522 -15.131,4.834 -14.975,4.991C-14.819,5.146 -14.507,5.224 -14.351,5.069C-14.117,4.912 -13.883,4.757 -13.727,4.6C-13.493,4.445 -13.337,4.288 -13.182,4.21C-13.104,4.133 -13.024,4.133 -13.024,4.055C-12.792,4.288 -12.558,4.445 -12.245,4.679C-12.245,4.757 -12.323,4.834 -12.323,4.912C-12.4,5.146 -12.479,5.303 -12.635,5.536C-12.713,5.77 -12.792,6.005 -12.947,6.239C-13.024,6.472 -12.947,6.706 -12.713,6.863C-12.479,6.941 -12.245,6.941 -12.089,6.706C-11.934,6.472 -11.777,6.239 -11.621,6.082C-11.465,5.848 -11.387,5.693 -11.231,5.536C-11.153,5.458 -11.153,5.381 -11.075,5.303C-10.763,5.458 -10.451,5.536 -10.14,5.615L-10.14,7.33C-10.14,7.565 -9.983,7.799 -9.749,7.799C-9.516,7.799 -9.281,7.72 -9.203,7.487C-9.125,7.253 -9.048,6.941 -9.048,6.706C-8.969,6.472 -8.969,6.239 -8.892,6.005C-8.892,5.927 -8.892,5.848 -8.813,5.77L-7.878,5.77C-7.878,5.848 -7.8,5.927 -7.8,6.005C-7.722,6.239 -7.644,6.472 -7.565,6.706C-7.488,6.941 -7.41,7.175 -7.331,7.487C-7.254,7.72 -7.02,7.877 -6.786,7.799C-6.552,7.72 -6.396,7.565 -6.396,7.33C-6.396,7.018 -6.474,6.784 -6.474,6.551C-6.474,6.317 -6.552,6.082 -6.552,5.848L-6.552,5.615C-6.24,5.536 -5.928,5.381 -5.693,5.224C-5.616,5.303 -5.616,5.381 -5.538,5.381C-5.382,5.536 -5.227,5.77 -5.147,5.927C-4.992,6.082 -4.835,6.317 -4.68,6.551C-4.523,6.706 -4.29,6.784 -4.056,6.629C-3.821,6.472 -3.744,6.239 -3.899,6.005C-4.056,5.77 -4.134,5.536 -4.211,5.303C-4.29,5.069 -4.445,4.834 -4.523,4.679C-4.523,4.6 -4.603,4.522 -4.603,4.445C-4.368,4.288 -4.134,4.055 -3.899,3.821C-3.821,3.821 -3.744,3.898 -3.666,3.976C-3.51,4.055 -3.276,4.21 -3.042,4.367C-2.808,4.522 -2.652,4.679 -2.418,4.757C-2.184,4.912 -1.949,4.834 -1.794,4.679C-1.638,4.522 -1.638,4.21 -1.794,4.055C-2.028,3.898 -2.184,3.664 -2.341,3.509C-2.496,3.353 -2.652,3.197 -2.886,3.041C-2.965,2.962 -3.042,2.962 -3.042,2.885C-2.886,2.65 -2.73,2.339 -2.573,2.027C-2.496,2.027 -2.418,2.105 -2.341,2.105C-2.106,2.183 -1.872,2.183 -1.638,2.261C-1.404,2.339 -1.17,2.339 -0.858,2.417C-0.624,2.495 -0.39,2.339 -0.312,2.105C-0.234,1.871 -0.312,1.637 -0.546,1.481C-0.78,1.403 -1.014,1.247 -1.248,1.169C-1.482,1.091 -1.717,1.013 -1.872,0.857C-1.949,0.857 -2.028,0.779 -2.106,0.779C-2.028,0.467 -2.028,0.155 -1.949,-0.157L-1.717,-0.157C-1.482,-0.157 -1.248,-0.235 -1.014,-0.235C-0.78,-0.313 -0.546,-0.313 -0.234,-0.313C0,-0.313 0.155,-0.547 0.155,-0.781C0.39,-1.015 0.234,-1.171 0,-1.171M-6.552,-0.781C-6.396,0.077 -6.941,0.935 -7.8,1.091C-8.657,1.247 -9.516,0.701 -9.672,-0.157C-9.827,-1.015 -9.281,-1.873 -8.424,-2.028C-7.565,-2.262 -6.707,-1.639 -6.552,-0.781" style="fill:white;fill-rule:nonzero;"/>
                            </g>
                            <g transform="matrix(1,0,0,1,142.097,120.735)">
                                <path d="M0,1.74L-6.96,-2.03C-7.83,-0.289 -6.96,1.74 -5.51,2.9C-3.48,3.77 -1.16,3.48 0,1.74" style="fill:white;fill-rule:nonzero;"/>
                            </g>
                            <g transform="matrix(1,0,0,1,140.937,120.734)">
                                <path d="M0,-3.768C-1.74,-4.929 -4.06,-4.349 -5.221,-2.609L1.74,1.161C2.32,-0.869 1.74,-2.899 0,-3.768" style="fill:white;fill-rule:nonzero;"/>
                            </g>
                            <g transform="matrix(1,0,0,1,222.425,247.752)">
                                <path d="M0,-22.909C-0.58,-22.909 0.579,-22.33 1.16,-22.04C12.759,-12.18 20.3,-14.79 32.77,-4.93C45.239,4.64 49.299,16.82 49.299,16.82C47.849,7.83 40.309,-6.96 29.289,-18.269C20.01,-27.55 11.89,-29.869 11.89,-29.869C17.979,-32.479 25.81,-28.999 25.81,-28.999C25.81,-28.999 21.46,-36.539 8.99,-39.439C8.41,-39.439 7.54,-39.729 7.83,-39.439C11.31,-33.349 8.41,-25.229 0,-22.909" style="fill:white;fill-rule:nonzero;"/>
                            </g>
                        </g>
                    </g>
                    <g transform="matrix(1,0,0,1,-50,67)">
                        <g transform="matrix(1,0,0,0.883832,-5,29.8415)">
                            <rect x="647.362" y="234.51" width="44.659" height="22.372" style="fill:rgb(179,179,179);"/>
                        </g>
                        <g transform="matrix(0.689894,0,0,0.883832,202.675,21.8415)">
                            <rect x="647.362" y="234.51" width="44.659" height="22.372" style="fill:rgb(179,179,179);"/>
                        </g>
                    </g>
                    <g transform="matrix(1,0,0,1,-50,67.3333)">
                        <g transform="matrix(1,0,0,0.883832,-5,65.8415)">
                            <rect x="647.362" y="234.51" width="44.659" height="22.372" style="fill:rgb(179,179,179);"/>
                        </g>
                        <g transform="matrix(0.689894,0,0,0.883832,202.675,57.8415)">
                            <rect x="647.362" y="234.51" width="44.659" height="22.372" style="fill:rgb(179,179,179);"/>
                        </g>
                    </g>
                    <g transform="matrix(1,0,0,1,-50,66.6667)">
                        <g transform="matrix(1,0,0,0.883832,-5,102.841)">
                            <rect x="647.362" y="234.51" width="44.659" height="22.372" style="fill:rgb(179,179,179);"/>
                        </g>
                        <g transform="matrix(0.689894,0,0,0.883832,202.675,94.8415)">
                            <rect x="647.362" y="234.51" width="44.659" height="22.372" style="fill:rgb(179,179,179);"/>
                        </g>
                    </g>
                    <g transform="matrix(1,0,0,1,-50,67)">
                        <g transform="matrix(1,0,0,0.883832,-5,138.841)">
                            <rect x="647.362" y="234.51" width="44.659" height="22.372" style="fill:rgb(179,179,179);"/>
                        </g>
                        <g transform="matrix(0.689894,0,0,0.883832,202.675,130.841)">
                            <rect x="647.362" y="234.51" width="44.659" height="22.372" style="fill:rgb(179,179,179);"/>
                        </g>
                    </g>
                    <g transform="matrix(1.42681,0,0,1.42681,-18.8904,-25.6809)">
                        <g transform="matrix(0.745892,0,0,1,45.9201,3.99125e-14)">
                            <rect x="180.711" y="160.918" width="83.44" height="42.052" style="fill:rgb(179,179,179);"/>
                        </g>
                        <g transform="matrix(1,0,0,1,-1,-1)">
                            <rect x="188.599" y="169.188" width="6.75" height="17.853" style="fill:rgb(89,89,89);"/>
                        </g>
                        <g transform="matrix(1,0,0,1,13,-1)">
                            <rect x="188.599" y="169.188" width="6.75" height="17.853" style="fill:rgb(89,89,89);"/>
                        </g>
                        <g transform="matrix(1,0,0,1,27,-1)">
                            <rect x="188.599" y="169.188" width="6.75" height="17.853" style="fill:rgb(89,89,89);"/>
                        </g>
                        <g transform="matrix(1,0,0,1,41,-1)">
                            <rect x="188.599" y="169.188" width="6.75" height="17.853" style="fill:rgb(89,89,89);"/>
                        </g>
                    </g>
                    <g transform="matrix(1.42681,0,0,1.42681,-21.2904,-25.6809)">
                        <g transform="matrix(0.745892,0,0,1,113.92,0)">
                            <rect x="180.711" y="160.918" width="83.44" height="42.052" style="fill:rgb(179,179,179);"/>
                        </g>
                        <g transform="matrix(1,0,0,1,67,-1)">
                            <rect x="188.599" y="169.188" width="6.75" height="17.853" style="fill:rgb(89,89,89);"/>
                        </g>
                        <g transform="matrix(1,0,0,1,81,-1)">
                            <rect x="188.599" y="169.188" width="6.75" height="17.853" style="fill:rgb(89,89,89);"/>
                        </g>
                        <g transform="matrix(1,0,0,1,95,-1)">
                            <rect x="188.599" y="169.188" width="6.75" height="17.853" style="fill:rgb(89,89,89);"/>
                        </g>
                        <g transform="matrix(1,0,0,1,109,-1)">
                            <rect x="188.599" y="169.188" width="6.75" height="17.853" style="fill:rgb(89,89,89);"/>
                        </g>
                    </g>
                    <g transform="matrix(1.42681,0,0,1.42681,-21.2904,-25.6809)">
                        <g transform="matrix(0.403185,0,0,1,243.851,0)">
                            <rect x="180.711" y="160.918" width="83.44" height="42.052" style="fill:rgb(179,179,179);"/>
                        </g>
                        <g transform="matrix(1,0,0,1,135,-1)">
                            <rect x="188.599" y="169.188" width="6.75" height="17.853" style="fill:rgb(89,89,89);"/>
                        </g>
                        <g transform="matrix(1,0,0,1,149,-1)">
                            <rect x="188.599" y="169.188" width="6.75" height="17.853" style="fill:rgb(89,89,89);"/>
                        </g>
                    </g>
                    <g transform="matrix(1.42681,0,0,1.42681,32.1819,-25.6809)">
                        <g transform="matrix(0.403185,0,0,1,243.851,0)">
                            <rect x="180.711" y="160.918" width="83.44" height="42.052" style="fill:rgb(179,179,179);"/>
                        </g>
                        <g transform="matrix(1,0,0,1,135,-1)">
                            <rect x="188.599" y="169.188" width="6.75" height="17.853" style="fill:rgb(89,89,89);"/>
                        </g>
                        <g transform="matrix(1,0,0,1,149,-1)">
                            <rect x="188.599" y="169.188" width="6.75" height="17.853" style="fill:rgb(89,89,89);"/>
                        </g>
                    </g>
                    <g transform="matrix(1.42681,0,0,1.42681,85.6541,-25.6809)">
                        <g transform="matrix(0.403185,0,0,1,243.851,0)">
                            <rect x="180.711" y="160.918" width="83.44" height="42.052" style="fill:rgb(179,179,179);"/>
                        </g>
                        <g transform="matrix(1,0,0,1,135,-1)">
                            <rect x="188.599" y="169.188" width="6.75" height="17.853" style="fill:rgb(89,89,89);"/>
                        </g>
                        <g transform="matrix(1,0,0,1,149,-1)">
                            <rect x="188.599" y="169.188" width="6.75" height="17.853" style="fill:rgb(89,89,89);"/>
                        </g>
                    </g>
                    <g transform="matrix(1,0,0,1,-40,38)">
                        <circle cx="662.019" cy="180.904" r="13.056" style="fill:white;"/>
                    </g>
                    <g transform="matrix(1,0,0,1,-40,338)">
                        <circle cx="662.019" cy="180.904" r="13.056" style="fill:white;"/>
                    </g>
                    <g transform="matrix(-1.18901,-1.45611e-16,1.45611e-16,-1.18901,511.569,723.251)">
                        <g transform="matrix(0.582627,0,1.2326e-32,1,75.4237,-1.13687e-13)">
                            <rect x="180.711" y="160.918" width="83.44" height="42.052" style="fill:rgb(179,179,179);"/>
                        </g>
                        <g transform="matrix(1,0,0,1,-1,-1)">
                            <rect x="188.599" y="169.188" width="6.75" height="17.853" style="fill:rgb(89,89,89);"/>
                        </g>
                        <g transform="matrix(1,0,0,1,13,-1)">
                            <rect x="188.599" y="169.188" width="6.75" height="17.853" style="fill:rgb(89,89,89);"/>
                        </g>
                        <g transform="matrix(1,0,0,1,27,-1)">
                            <rect x="188.599" y="169.188" width="6.75" height="17.853" style="fill:rgb(89,89,89);"/>
                        </g>
                    </g>
                    <g transform="matrix(-1.18901,-1.45611e-16,1.45611e-16,-1.18901,574.569,723.251)">
                        <g transform="matrix(0.582627,0,1.2326e-32,1,75.4237,-1.13687e-13)">
                            <rect x="180.711" y="160.918" width="83.44" height="42.052" style="fill:rgb(179,179,179);"/>
                        </g>
                        <g transform="matrix(1,0,0,1,-1,-1)">
                            <rect x="188.599" y="169.188" width="6.75" height="17.853" style="fill:rgb(89,89,89);"/>
                        </g>
                        <g transform="matrix(1,0,0,1,13,-1)">
                            <rect x="188.599" y="169.188" width="6.75" height="17.853" style="fill:rgb(89,89,89);"/>
                        </g>
                        <g transform="matrix(1,0,0,1,27,-1)">
                            <rect x="188.599" y="169.188" width="6.75" height="17.853" style="fill:rgb(89,89,89);"/>
                        </g>
                    </g>
                    <g transform="matrix(-1.18901,-1.45611e-16,1.45611e-16,-1.18901,637.569,723.251)">
                        <g transform="matrix(0.582627,0,1.2326e-32,1,75.4237,-1.13687e-13)">
                            <rect x="180.711" y="160.918" width="83.44" height="42.052" style="fill:rgb(179,179,179);"/>
                        </g>
                        <g transform="matrix(1,0,0,1,-1,-1)">
                            <rect x="188.599" y="169.188" width="6.75" height="17.853" style="fill:rgb(89,89,89);"/>
                        </g>
                        <g transform="matrix(1,0,0,1,13,-1)">
                            <rect x="188.599" y="169.188" width="6.75" height="17.853" style="fill:rgb(89,89,89);"/>
                        </g>
                        <g transform="matrix(1,0,0,1,27,-1)">
                            <rect x="188.599" y="169.188" width="6.75" height="17.853" style="fill:rgb(89,89,89);"/>
                        </g>
                    </g>
                    <g transform="matrix(1,0,0,1,-51.125,67)">
                        <rect x="620.099" y="378.557" width="68.047" height="38.078" style="fill:rgb(179,179,179);"/>
                    </g>
                    <g transform="matrix(1,0,0,1,-114.049,19)">
                        <rect x="545.172" y="427.351" width="50.781" height="86.01" style="fill:rgb(179,179,179);"/>
                        <g transform="matrix(-1,-1.22465e-16,8.89272e-17,-0.726146,1139.55,785.42)">
                            <g transform="matrix(1.58547,0,0,1.00832,-328.632,-8.67247)">
                                <rect x="554.484" y="441.661" width="3.154" height="35.703" style="fill:rgb(89,89,89);"/>
                            </g>
                            <g transform="matrix(1.58547,0,0,0.617149,-320.632,164.09)">
                                <rect x="554.484" y="441.661" width="3.154" height="35.703" style="fill:rgb(89,89,89);"/>
                            </g>
                            <g transform="matrix(1.58547,0,0,1.00832,-312.632,-8.67247)">
                                <rect x="554.484" y="441.661" width="3.154" height="35.703" style="fill:rgb(89,89,89);"/>
                            </g>
                            <g transform="matrix(1.58547,0,0,0.617149,-304.632,164.09)">
                                <rect x="554.484" y="441.661" width="3.154" height="35.703" style="fill:rgb(89,89,89);"/>
                            </g>
                            <g transform="matrix(1.58547,0,0,1.00832,-296.632,-8.67247)">
                                <rect x="554.484" y="441.661" width="3.154" height="35.703" style="fill:rgb(89,89,89);"/>
                            </g>
                        </g>
                        <g transform="matrix(1,0,0,0.726146,1.57812,158.12)">
                            <g transform="matrix(1.58547,0,0,1.00832,-328.632,-8.67247)">
                                <rect x="554.484" y="441.661" width="3.154" height="35.703" style="fill:rgb(89,89,89);"/>
                            </g>
                            <g transform="matrix(1.58547,0,0,0.617149,-320.632,164.09)">
                                <rect x="554.484" y="441.661" width="3.154" height="35.703" style="fill:rgb(89,89,89);"/>
                            </g>
                            <g transform="matrix(1.58547,0,0,1.00832,-312.632,-8.67247)">
                                <rect x="554.484" y="441.661" width="3.154" height="35.703" style="fill:rgb(89,89,89);"/>
                            </g>
                            <g transform="matrix(1.58547,0,0,0.617149,-304.632,164.09)">
                                <rect x="554.484" y="441.661" width="3.154" height="35.703" style="fill:rgb(89,89,89);"/>
                            </g>
                            <g transform="matrix(1.58547,0,0,1.00832,-296.632,-8.67247)">
                                <rect x="554.484" y="441.661" width="3.154" height="35.703" style="fill:rgb(89,89,89);"/>
                            </g>
                        </g>
                        <g transform="matrix(1,0,0,1,-2.94114,0)">
                            <rect x="554.678" y="424.634" width="37.65" height="12.408" style="fill:rgb(89,89,89);"/>
                        </g>
                        <g transform="matrix(1,0,0,1,-2.94114,81)">
                            <rect x="554.678" y="424.634" width="37.65" height="12.408" style="fill:rgb(89,89,89);"/>
                        </g>
                    </g>
                    <g transform="matrix(1.09719,0,0,0.99725,-66.9908,41.1685)">
                        <rect x="174.817" y="153.253" width="40.995" height="350.063" style="fill:rgb(179,179,179);"/>
                    </g>
                    <g transform="matrix(1,0,0,1,-50,51.1812)">
                        <g transform="matrix(1.19434e-15,-1,0.726146,8.67265e-16,-97.6148,746.353)">
                            <g transform="matrix(1.58547,0,0,0.617149,-320.632,164.09)">
                                <rect x="554.484" y="441.661" width="3.154" height="35.703" style="fill:rgb(179,179,179);"/>
                            </g>
                            <g transform="matrix(1.58547,0,0,1.00832,-312.632,-8.67247)">
                                <rect x="554.484" y="441.661" width="3.154" height="35.703" style="fill:rgb(179,179,179);"/>
                            </g>
                            <g transform="matrix(1.58547,0,0,0.617149,-304.632,164.09)">
                                <rect x="554.484" y="441.661" width="3.154" height="35.703" style="fill:rgb(179,179,179);"/>
                            </g>
                            <g transform="matrix(1.58547,0,0,1.00832,-296.632,-8.67247)">
                                <rect x="554.484" y="441.661" width="3.154" height="35.703" style="fill:rgb(179,179,179);"/>
                            </g>
                        </g>
                        <g transform="matrix(1.19434e-15,-1,0.726146,8.67265e-16,-97.6148,778.353)">
                            <g transform="matrix(1.58547,0,0,0.617149,-320.632,164.09)">
                                <rect x="554.484" y="441.661" width="3.154" height="35.703" style="fill:rgb(179,179,179);"/>
                            </g>
                            <g transform="matrix(1.58547,0,0,1.00832,-312.632,-8.67247)">
                                <rect x="554.484" y="441.661" width="3.154" height="35.703" style="fill:rgb(179,179,179);"/>
                            </g>
                            <g transform="matrix(1.58547,0,0,0.617149,-304.632,164.09)">
                                <rect x="554.484" y="441.661" width="3.154" height="35.703" style="fill:rgb(179,179,179);"/>
                            </g>
                            <g transform="matrix(1.58547,0,0,1.00832,-296.632,-8.67247)">
                                <rect x="554.484" y="441.661" width="3.154" height="35.703" style="fill:rgb(179,179,179);"/>
                            </g>
                        </g>
                        <g transform="matrix(1.19434e-15,-1,0.726146,8.67265e-16,-97.6148,810.353)">
                            <g transform="matrix(1.58547,0,0,0.617149,-320.632,164.09)">
                                <rect x="554.484" y="441.661" width="3.154" height="35.703" style="fill:rgb(179,179,179);"/>
                            </g>
                            <g transform="matrix(1.58547,0,0,1.00832,-312.632,-8.67247)">
                                <rect x="554.484" y="441.661" width="3.154" height="35.703" style="fill:rgb(179,179,179);"/>
                            </g>
                            <g transform="matrix(1.58547,0,0,0.617149,-304.632,164.09)">
                                <rect x="554.484" y="441.661" width="3.154" height="35.703" style="fill:rgb(179,179,179);"/>
                            </g>
                            <g transform="matrix(1.58547,0,0,1.00832,-296.632,-8.67247)">
                                <rect x="554.484" y="441.661" width="3.154" height="35.703" style="fill:rgb(179,179,179);"/>
                            </g>
                        </g>
                        <g transform="matrix(1.19434e-15,-1,0.726146,8.67265e-16,-97.6148,842.353)">
                            <g transform="matrix(1.58547,0,0,0.617149,-320.632,164.09)">
                                <rect x="554.484" y="441.661" width="3.154" height="35.703" style="fill:rgb(179,179,179);"/>
                            </g>
                            <g transform="matrix(1.58547,0,0,1.00832,-312.632,-8.67247)">
                                <rect x="554.484" y="441.661" width="3.154" height="35.703" style="fill:rgb(179,179,179);"/>
                            </g>
                            <g transform="matrix(1.58547,0,0,0.617149,-304.632,164.09)">
                                <rect x="554.484" y="441.661" width="3.154" height="35.703" style="fill:rgb(179,179,179);"/>
                            </g>
                            <g transform="matrix(1.58547,0,0,1.00832,-296.632,-8.67247)">
                                <rect x="554.484" y="441.661" width="3.154" height="35.703" style="fill:rgb(179,179,179);"/>
                            </g>
                        </g>
                        <g transform="matrix(1.19434e-15,-1,0.726146,8.67265e-16,-97.6148,874.353)">
                            <g transform="matrix(1.58547,0,0,0.617149,-320.632,164.09)">
                                <rect x="554.484" y="441.661" width="3.154" height="35.703" style="fill:rgb(179,179,179);"/>
                            </g>
                            <g transform="matrix(1.58547,0,0,1.00832,-312.632,-8.67247)">
                                <rect x="554.484" y="441.661" width="3.154" height="35.703" style="fill:rgb(179,179,179);"/>
                            </g>
                            <g transform="matrix(1.58547,0,0,0.617149,-304.632,164.09)">
                                <rect x="554.484" y="441.661" width="3.154" height="35.703" style="fill:rgb(179,179,179);"/>
                            </g>
                            <g transform="matrix(1.58547,0,0,1.00832,-296.632,-8.67247)">
                                <rect x="554.484" y="441.661" width="3.154" height="35.703" style="fill:rgb(179,179,179);"/>
                            </g>
                        </g>
                        <g transform="matrix(1.19434e-15,-1,0.726146,8.67265e-16,-97.6148,906.353)">
                            <g transform="matrix(1.58547,0,0,0.617149,-320.632,164.09)">
                                <rect x="554.484" y="441.661" width="3.154" height="35.703" style="fill:rgb(179,179,179);"/>
                            </g>
                            <g transform="matrix(1.58547,0,0,1.00832,-312.632,-8.67247)">
                                <rect x="554.484" y="441.661" width="3.154" height="35.703" style="fill:rgb(179,179,179);"/>
                            </g>
                            <g transform="matrix(1.58547,0,0,0.617149,-304.632,164.09)">
                                <rect x="554.484" y="441.661" width="3.154" height="35.703" style="fill:rgb(179,179,179);"/>
                            </g>
                            <g transform="matrix(1.58547,0,0,1.00832,-296.632,-8.67247)">
                                <rect x="554.484" y="441.661" width="3.154" height="35.703" style="fill:rgb(179,179,179);"/>
                            </g>
                        </g>
                        <g transform="matrix(1.19434e-15,-1,0.726146,8.67265e-16,-97.6148,938.353)">
                            <g transform="matrix(1.58547,0,0,0.617149,-320.632,164.09)">
                                <rect x="554.484" y="441.661" width="3.154" height="35.703" style="fill:rgb(179,179,179);"/>
                            </g>
                            <g transform="matrix(1.58547,0,0,1.00832,-312.632,-8.67247)">
                                <rect x="554.484" y="441.661" width="3.154" height="35.703" style="fill:rgb(179,179,179);"/>
                            </g>
                            <g transform="matrix(1.58547,0,0,0.617149,-304.632,164.09)">
                                <rect x="554.484" y="441.661" width="3.154" height="35.703" style="fill:rgb(179,179,179);"/>
                            </g>
                            <g transform="matrix(1.58547,0,0,1.00832,-296.632,-8.67247)">
                                <rect x="554.484" y="441.661" width="3.154" height="35.703" style="fill:rgb(179,179,179);"/>
                            </g>
                        </g>
                        <g transform="matrix(1.19434e-15,-1,0.726146,8.67265e-16,-97.6148,970.353)">
                            <g transform="matrix(1.58547,0,0,0.617149,-320.632,164.09)">
                                <rect x="554.484" y="441.661" width="3.154" height="35.703" style="fill:rgb(179,179,179);"/>
                            </g>
                            <g transform="matrix(1.58547,0,0,1.00832,-312.632,-8.67247)">
                                <rect x="554.484" y="441.661" width="3.154" height="35.703" style="fill:rgb(179,179,179);"/>
                            </g>
                            <g transform="matrix(1.58547,0,0,0.617149,-304.632,164.09)">
                                <rect x="554.484" y="441.661" width="3.154" height="35.703" style="fill:rgb(179,179,179);"/>
                            </g>
                            <g transform="matrix(1.58547,0,0,1.00832,-296.632,-8.67247)">
                                <rect x="554.484" y="441.661" width="3.154" height="35.703" style="fill:rgb(179,179,179);"/>
                            </g>
                        </g>
                        <g transform="matrix(1.19434e-15,-1,0.726146,8.67265e-16,-97.6148,1002.35)">
                            <g transform="matrix(1.58547,0,0,0.617149,-320.632,164.09)">
                                <rect x="554.484" y="441.661" width="3.154" height="35.703" style="fill:rgb(179,179,179);"/>
                            </g>
                            <g transform="matrix(1.58547,0,0,1.00832,-312.632,-8.67247)">
                                <rect x="554.484" y="441.661" width="3.154" height="35.703" style="fill:rgb(179,179,179);"/>
                            </g>
                            <g transform="matrix(1.58547,0,0,0.617149,-304.632,164.09)">
                                <rect x="554.484" y="441.661" width="3.154" height="35.703" style="fill:rgb(179,179,179);"/>
                            </g>
                            <g transform="matrix(1.58547,0,0,1.00832,-296.632,-8.67247)">
                                <rect x="554.484" y="441.661" width="3.154" height="35.703" style="fill:rgb(179,179,179);"/>
                            </g>
                        </g>
                        <g transform="matrix(1.19434e-15,-1,0.726146,8.67265e-16,-97.6148,1034.35)">
                            <g transform="matrix(1.58547,0,0,0.617149,-320.632,164.09)">
                                <rect x="554.484" y="441.661" width="3.154" height="35.703" style="fill:rgb(179,179,179);"/>
                            </g>
                            <g transform="matrix(1.58547,0,0,1.00832,-312.632,-8.67247)">
                                <rect x="554.484" y="441.661" width="3.154" height="35.703" style="fill:rgb(179,179,179);"/>
                            </g>
                            <g transform="matrix(1.58547,0,0,0.617149,-304.632,164.09)">
                                <rect x="554.484" y="441.661" width="3.154" height="35.703" style="fill:rgb(179,179,179);"/>
                            </g>
                            <g transform="matrix(1.58547,0,0,1.00832,-296.632,-8.67247)">
                                <rect x="554.484" y="441.661" width="3.154" height="35.703" style="fill:rgb(179,179,179);"/>
                            </g>
                        </g>
                    </g>
                </g>
            </g>
        </g>
    </g>
</svg>
