<?xml version="1.0" encoding="UTF-8" standalone="no"?>
<!DOCTYPE svg PUBLIC "-//W3C//DTD SVG 1.1//EN" "http://www.w3.org/Graphics/SVG/1.1/DTD/svg11.dtd">
<svg width="100%" height="100%" viewBox="0 0 96 72" version="1.1" xmlns="http://www.w3.org/2000/svg" xmlns:xlink="http://www.w3.org/1999/xlink" xml:space="preserve" xmlns:serif="http://www.serif.com/" style="fill-rule:evenodd;clip-rule:evenodd;stroke-linejoin:round;stroke-miterlimit:1.41421;">
    <g id="Artboard1" transform="matrix(1,0,0,0.985012,0,0)">
        <rect x="0" y="0" width="95.093" height="72.112" style="fill:none;"/>
        <clipPath id="_clip1">
            <rect x="0" y="0" width="95.093" height="72.112"/>
        </clipPath>
        <g clip-path="url(#_clip1)">
            <g transform="matrix(0.883785,0,0,0.89863,-368.496,-344.254)">
                <g transform="matrix(1.1315,0,0,1.12974,416.69,382.177)">
                    <path d="M78.833,4.955C78.833,2.747 77.041,0.955 74.833,0.955L4.386,0.955C2.178,0.955 0.386,2.747 0.386,4.955L0.386,44.773C0.386,46.981 2.178,48.773 4.386,48.773L74.833,48.773C77.041,48.773 78.833,46.981 78.833,44.773L78.833,4.955Z" style="fill:white;"/>
                </g>
                <g transform="matrix(0.143572,0,0,0.143572,412.237,378.515)">
                    <path d="M759.22,33.024C771.474,33.025 781.422,42.973 781.422,55.227L781.422,565.884C781.422,578.138 771.474,588.086 759.22,588.086L56.257,588.086C44.003,588.086 34.054,578.138 34.054,565.884L34.054,55.227C34.054,53.884 34.173,52.57 34.402,51.293L34.409,181.436L144.405,38.014L144.409,121.436L212.216,33.024L214.407,33.024L214.409,71.436L243.869,33.024L759.22,33.024Z" style="fill:rgb(89,89,89);"/>
                </g>
                <g transform="matrix(0.143572,0,0,0.143572,412.55,378.515)">
                    <g transform="matrix(3.92365,0,0,0.879389,-90.5904,64.9443)">
                        <rect x="40.562" y="497.007" width="20.396" height="97.276" style="fill:white;"/>
                    </g>
                    <g transform="matrix(3.92365,0,0,0.879389,58.0196,64.9443)">
                        <rect x="40.562" y="497.007" width="20.396" height="97.276" style="fill:white;"/>
                    </g>
                    <g transform="matrix(3.92365,0,0,0.879389,206.349,64.9443)">
                        <rect x="40.562" y="497.007" width="20.396" height="97.276" style="fill:white;"/>
                    </g>
                    <g transform="matrix(3.92365,0,0,0.879389,353.677,64.9443)">
                        <rect x="40.562" y="497.007" width="20.396" height="97.276" style="fill:white;"/>
                    </g>
                    <g transform="matrix(3.92365,0,0,0.879389,502.006,64.9443)">
                        <rect x="40.562" y="497.007" width="20.396" height="97.276" style="fill:white;"/>
                    </g>
                    <g>
                        <g transform="matrix(1.98015,0,0,1.98015,-124.14,-535.068)">
                            <circle cx="117.666" cy="515.402" r="22.726" style="fill:rgb(179,179,179);"/>
                        </g>
                        <g transform="matrix(1.98015,0,0,1.98015,-124.14,-535.068)">
                            <path d="M117.827,490.53C129.211,490.639 139.92,499.371 142.093,510.698C143.635,518.738 140.908,527.464 135.038,533.195C128.174,539.897 117.278,542.117 108.267,538.433C100.306,535.178 94.305,527.54 93.058,519.031C91.918,511.25 94.722,502.984 100.401,497.504C104.898,493.165 111.003,490.633 117.345,490.532C117.506,490.53 117.666,490.53 117.827,490.53ZM117.533,494.823C108.258,494.912 99.406,501.976 97.505,511.255C96.128,517.979 98.379,525.326 103.293,530.124C108.968,535.664 117.952,537.522 125.44,534.46C132.025,531.768 136.996,525.443 138.027,518.408C139.299,509.731 134.333,500.471 126.357,496.745C123.605,495.459 120.541,494.814 117.533,494.823Z" style="fill:rgb(89,89,89);fill-rule:nonzero;"/>
                        </g>
                        <g transform="matrix(1.98015,0,0,1.98015,24.1891,-535.068)">
                            <circle cx="117.666" cy="515.402" r="22.726" style="fill:rgb(179,179,179);"/>
                        </g>
                        <g transform="matrix(1.98015,0,0,1.98015,24.1891,-535.068)">
                            <path d="M117.827,490.53C129.217,490.639 139.926,499.406 142.093,510.698C143.635,518.738 140.908,527.464 135.038,533.195C128.174,539.897 117.278,542.117 108.267,538.433C100.306,535.178 94.305,527.54 93.058,519.031C91.918,511.25 94.722,502.984 100.401,497.504C104.899,493.165 111.003,490.633 117.345,490.532C117.506,490.53 117.666,490.53 117.827,490.53ZM117.533,494.823C108.258,494.912 99.406,501.976 97.505,511.255C96.128,517.979 98.379,525.325 103.293,530.124C108.967,535.665 117.952,537.522 125.44,534.46C132.025,531.768 136.996,525.443 138.027,518.408C139.299,509.731 134.333,500.471 126.357,496.745C123.604,495.459 120.541,494.814 117.533,494.823Z" style="fill:rgb(89,89,89);fill-rule:nonzero;"/>
                        </g>
                        <g transform="matrix(1.98015,0,0,1.98015,172.518,-535.068)">
                            <circle cx="117.666" cy="515.402" r="22.726" style="fill:rgb(179,179,179);"/>
                        </g>
                        <g transform="matrix(1.98015,0,0,1.98015,172.518,-535.068)">
                            <path d="M117.827,490.53C129.24,490.64 139.933,499.439 142.093,510.698C143.634,518.738 140.908,527.464 135.038,533.195C128.174,539.897 117.277,542.117 108.267,538.433C100.306,535.178 94.305,527.54 93.058,519.031C91.514,508.493 97.581,497.259 107.295,492.792C110.583,491.28 114.179,490.519 117.827,490.53ZM117.533,494.823C108.239,494.912 99.4,502.003 97.505,511.255C96.128,517.979 98.379,525.325 103.293,530.124C108.967,535.664 117.952,537.522 125.44,534.46C132.062,531.753 137.052,525.371 138.045,518.28C139.604,507.155 130.721,495.609 118.989,494.864C118.504,494.834 118.019,494.821 117.533,494.823Z" style="fill:rgb(89,89,89);fill-rule:nonzero;"/>
                        </g>
                        <g transform="matrix(1.98015,0,0,1.98015,319.847,-535.068)">
                            <circle cx="117.666" cy="515.402" r="22.726" style="fill:rgb(179,179,179);"/>
                        </g>
                        <g transform="matrix(1.98015,0,0,1.98015,319.847,-535.068)">
                            <path d="M117.827,490.53C129.225,490.639 139.923,499.392 142.093,510.698C143.635,518.738 140.908,527.464 135.038,533.195C128.174,539.897 117.278,542.117 108.267,538.433C100.306,535.178 94.305,527.54 93.058,519.031C91.925,511.298 94.685,503.086 100.294,497.608C104.799,493.209 111.003,490.633 117.345,490.532C117.506,490.53 117.666,490.53 117.827,490.53ZM117.533,494.823C108.219,494.912 99.33,502.05 97.48,511.381C96.156,518.058 98.406,525.352 103.293,530.124C108.967,535.664 117.952,537.522 125.44,534.46C134.121,530.911 139.615,520.889 137.901,511.632C136.199,502.447 127.694,495.04 118.065,494.826C117.888,494.824 117.71,494.822 117.533,494.823Z" style="fill:rgb(89,89,89);fill-rule:nonzero;"/>
                        </g>
                        <g transform="matrix(1.98015,0,0,1.98015,468.176,-535.068)">
                            <circle cx="117.666" cy="515.402" r="22.726" style="fill:rgb(179,179,179);"/>
                        </g>
                        <g transform="matrix(1.98015,0,0,1.98015,468.176,-535.068)">
                            <path d="M117.827,490.53C129.225,490.639 139.924,499.392 142.093,510.698C143.634,518.738 140.908,527.463 135.038,533.195C128.174,539.897 117.278,542.117 108.267,538.433C100.306,535.179 94.305,527.54 93.058,519.031C91.947,511.451 94.571,503.395 99.977,497.924C104.511,493.335 110.808,490.636 117.345,490.532C117.506,490.53 117.666,490.53 117.827,490.53ZM117.533,494.823C108.163,494.913 99.256,502.117 97.455,511.506C96.164,518.237 98.5,525.557 103.471,530.296C109.205,535.762 118.219,537.518 125.672,534.364C133.845,530.904 139.161,521.728 138.096,512.909C136.905,503.054 127.864,494.79 117.533,494.823Z" style="fill:rgb(89,89,89);fill-rule:nonzero;"/>
                        </g>
                    </g>
                    <g transform="matrix(0.490296,0,0,0.875676,34.6749,66.79)">
                        <rect x="40.562" y="497.007" width="20.396" height="97.276" style="fill:white;"/>
                    </g>
                    <g transform="matrix(1,0,0,0.875676,-4,62.4116)">
                        <g transform="matrix(0.490296,0,0,1,582.675,5)">
                            <rect x="40.562" y="497.007" width="20.396" height="97.276" style="fill:white;"/>
                        </g>
                        <g transform="matrix(0.490296,0,0,1,598.342,5)">
                            <rect x="40.562" y="497.007" width="20.396" height="97.276" style="fill:white;"/>
                        </g>
                        <g transform="matrix(0.490296,0,0,1,614.008,5)">
                            <rect x="40.562" y="497.007" width="20.396" height="97.276" style="fill:white;"/>
                        </g>
                        <g transform="matrix(0.490296,0,0,1,629.675,5)">
                            <rect x="40.562" y="497.007" width="20.396" height="97.276" style="fill:white;"/>
                        </g>
                    </g>
                    <g transform="matrix(1,0,0,0.875676,-152,62.4116)">
                        <g transform="matrix(0.490296,0,0,1,582.675,5)">
                            <rect x="40.562" y="497.007" width="20.396" height="97.276" style="fill:white;"/>
                        </g>
                        <g transform="matrix(0.490296,0,0,1,598.342,5)">
                            <rect x="40.562" y="497.007" width="20.396" height="97.276" style="fill:white;"/>
                        </g>
                        <g transform="matrix(0.490296,0,0,1,614.008,5)">
                            <rect x="40.562" y="497.007" width="20.396" height="97.276" style="fill:white;"/>
                        </g>
                        <g transform="matrix(0.490296,0,0,1,629.675,5)">
                            <rect x="40.562" y="497.007" width="20.396" height="97.276" style="fill:white;"/>
                        </g>
                    </g>
                    <g transform="matrix(1,0,0,0.875676,-300,62.4116)">
                        <g transform="matrix(0.490296,0,0,1,582.675,5)">
                            <rect x="40.562" y="497.007" width="20.396" height="97.276" style="fill:white;"/>
                        </g>
                        <g transform="matrix(0.490296,0,0,1,598.342,5)">
                            <rect x="40.562" y="497.007" width="20.396" height="97.276" style="fill:white;"/>
                        </g>
                        <g transform="matrix(0.490296,0,0,1,614.008,5)">
                            <rect x="40.562" y="497.007" width="20.396" height="97.276" style="fill:white;"/>
                        </g>
                        <g transform="matrix(0.490296,0,0,1,629.675,5)">
                            <rect x="40.562" y="497.007" width="20.396" height="97.276" style="fill:white;"/>
                        </g>
                    </g>
                    <g transform="matrix(1,0,0,0.875676,-448,62.4116)">
                        <g transform="matrix(0.490296,0,0,1,582.675,5)">
                            <rect x="40.562" y="497.007" width="20.396" height="97.276" style="fill:white;"/>
                        </g>
                        <g transform="matrix(0.490296,0,0,1,598.342,5)">
                            <rect x="40.562" y="497.007" width="20.396" height="97.276" style="fill:white;"/>
                        </g>
                        <g transform="matrix(0.490296,0,0,1,614.008,5)">
                            <rect x="40.562" y="497.007" width="20.396" height="97.276" style="fill:white;"/>
                        </g>
                        <g transform="matrix(0.490296,0,0,1,629.675,5)">
                            <rect x="40.562" y="497.007" width="20.396" height="97.276" style="fill:white;"/>
                        </g>
                    </g>
                    <g transform="matrix(0.490296,0,0,0.875676,726.675,66.79)">
                        <rect x="40.562" y="497.007" width="20.396" height="97.276" style="fill:white;"/>
                    </g>
                </g>
                <g transform="matrix(0.143572,0,0,0.143572,406.225,381.386)">
                    <g transform="matrix(0.799265,0,0,1,52.4933,0)">
                        <path d="M619.483,94.635C672.732,94.837 723.674,127.877 731.214,172.959C735.966,201.365 722.657,231.352 696.392,251.012C675.835,266.4 648.079,275.317 619.483,275.426C537.613,275.529 455.742,275.735 373.873,275.424C345.635,275.245 317.828,266.356 297.328,251.012C262.916,225.252 251.535,181.708 272.222,146.597C290.253,115.995 330.827,94.909 373.873,94.636C455.742,94.325 537.613,94.531 619.483,94.635ZM374.632,122.634C346.586,122.67 319.309,135.674 305.943,155.328C294.33,172.406 293.542,193.927 303.916,211.534C316.391,232.706 344.389,247.313 374.348,247.426C456.107,247.528 537.868,247.732 619.626,247.425C649.061,247.238 677.485,232.612 689.905,211.363C700.184,193.777 699.354,172.353 687.777,155.328C674.471,135.759 647.406,122.741 619.371,122.634C537.792,122.531 456.212,122.634 374.632,122.634Z" style="fill:white;fill-rule:nonzero;"/>
                    </g>
                    <g transform="matrix(1.25794,0,0,1.25794,-89.9981,-44.5631)">
                        <circle cx="358.043" cy="182.515" r="22.825" style="fill:white;"/>
                    </g>
                    <g transform="matrix(1.25794,0,0,1.25794,91.2651,-44.5631)">
                        <circle cx="358.043" cy="182.515" r="22.825" style="fill:white;"/>
                    </g>
                </g>
                <g transform="matrix(0.143572,0,0,0.143572,412.237,378.515)">
                    <path d="M759.363,33.024C770.816,33.133 781.306,42.935 781.422,55.083C781.962,225.445 783.041,395.816 781.42,566.171C781.239,577.583 771.484,587.895 759.506,588.085C525.005,590.316 290.471,590.316 55.97,588.085C44.61,587.905 34.246,578.132 34.056,566.171C32.435,395.768 32.435,225.342 34.056,54.94C34.237,43.528 43.992,33.216 55.97,33.026C290.424,30.795 524.9,32.281 759.363,33.024ZM56.263,37.024C46.805,37.054 38.148,45.272 38.054,55.108C37.515,225.445 36.434,395.791 38.056,566.12C38.204,575.512 46.29,583.992 56.138,584.086C290.576,584.804 525.027,586.321 759.456,584.085C768.843,583.938 777.328,575.843 777.422,566.002C778.001,395.665 779.046,225.32 777.421,54.99C777.274,45.647 769.174,37.118 759.338,37.024C524.981,36.282 290.621,37.024 56.263,37.024Z" style="fill:rgb(89,89,89);fill-rule:nonzero;"/>
                </g>
            </g>
        </g>
    </g>
</svg>
