<?xml version="1.0" encoding="UTF-8" standalone="no"?>
<!DOCTYPE svg PUBLIC "-//W3C//DTD SVG 1.1//EN" "http://www.w3.org/Graphics/SVG/1.1/DTD/svg11.dtd">
<svg width="100%" height="100%" viewBox="0 0 2123 1590" version="1.1" xmlns="http://www.w3.org/2000/svg" xmlns:xlink="http://www.w3.org/1999/xlink" xml:space="preserve" xmlns:serif="http://www.serif.com/" style="fill-rule:evenodd;clip-rule:evenodd;stroke-linejoin:round;stroke-miterlimit:2;">
    <g id="Artboard1" transform="matrix(0.847893,0,0,0.771396,-772.491,-369.248)">
        <rect x="911.072" y="478.675" width="2503.74" height="2060.39" style="fill:none;"/>
        <g transform="matrix(-1.0366,-1.39536e-16,1.21023e-16,-1.08623,4365.38,3129.94)">
            <g transform="matrix(-1.41487e-15,8.08244,-7.7867,-1.50096e-15,6278.39,-2310.52)">
                <g transform="matrix(-2.65044e-17,-0.141171,0.139121,-2.50278e-17,355.342,684.828)">
                    <path d="M2125.07,1182.52C2150.86,1182.52 2150.86,475.538 2125.07,475.538L1718.32,508.107C1692.54,508.107 1671.61,530.834 1671.61,558.827L1671.61,1099.23C1671.61,1127.22 1692.54,1149.95 1718.32,1149.95L2125.07,1182.52Z" style="fill:white;"/>
                </g>
                <g transform="matrix(-2.71344e-17,-0.146115,0.10012,-1.81922e-17,371.929,692.124)">
                    <rect x="2003.01" y="495.099" width="113.481" height="70.518" style="fill:white;"/>
                </g>
                <g transform="matrix(0.131603,2.70153e-19,2.776e-19,0.143572,417.017,378.515)">
                    <path d="M759.22,33.024C771.474,33.025 781.422,42.973 781.422,55.227L781.422,565.884C781.422,578.138 771.474,588.086 759.22,588.086L56.257,588.086C44.003,588.086 34.054,578.138 34.054,565.884L34.054,55.227C34.054,53.884 34.173,52.57 34.402,51.293L34.409,181.436L144.405,38.014L144.409,121.436L212.216,33.024L214.407,33.024L214.409,71.436L243.869,33.024L759.22,33.024Z" style="fill:rgb(89,89,89);"/>
                </g>
                <g transform="matrix(0.141393,4.91831e-20,5.05389e-20,0.143572,412.426,378.515)">
                    <g transform="matrix(3.92365,0,0,1,-90.5904,5)">
                        <rect x="40.562" y="497.007" width="20.396" height="97.276" style="fill:white;"/>
                    </g>
                    <g transform="matrix(3.92365,0,0,1,58.0196,5)">
                        <rect x="40.562" y="497.007" width="20.396" height="97.276" style="fill:white;"/>
                    </g>
                    <g transform="matrix(3.92365,0,0,1,206.349,5)">
                        <rect x="40.562" y="497.007" width="20.396" height="97.276" style="fill:white;"/>
                    </g>
                    <g transform="matrix(3.92365,0,0,1,353.677,5)">
                        <rect x="40.562" y="497.007" width="20.396" height="97.276" style="fill:white;"/>
                    </g>
                    <g transform="matrix(3.92365,0,0,1,502.006,5)">
                        <rect x="40.562" y="497.007" width="20.396" height="97.276" style="fill:white;"/>
                    </g>
                    <g>
                        <g transform="matrix(1.98015,0,0,1.98015,-124.14,-535.068)">
                            <circle cx="117.666" cy="515.402" r="22.726" style="fill:rgb(179,179,179);"/>
                        </g>
                        <g transform="matrix(1.98015,0,0,1.98015,-124.14,-535.068)">
                            <path d="M117.827,490.53C129.211,490.639 139.92,499.371 142.093,510.698C143.635,518.738 140.908,527.464 135.038,533.195C128.174,539.897 117.278,542.117 108.267,538.433C100.306,535.178 94.305,527.54 93.058,519.031C91.918,511.25 94.722,502.984 100.401,497.504C104.898,493.165 111.003,490.633 117.345,490.532C117.506,490.53 117.666,490.53 117.827,490.53ZM117.533,494.823C108.258,494.912 99.406,501.976 97.505,511.255C96.128,517.979 98.379,525.326 103.293,530.124C108.968,535.664 117.952,537.522 125.44,534.46C132.025,531.768 136.996,525.443 138.027,518.408C139.299,509.731 134.333,500.471 126.357,496.745C123.605,495.459 120.541,494.814 117.533,494.823Z" style="fill:rgb(89,89,89);fill-rule:nonzero;"/>
                        </g>
                        <g transform="matrix(1.98015,0,0,1.98015,24.1891,-535.068)">
                            <circle cx="117.666" cy="515.402" r="22.726" style="fill:rgb(179,179,179);"/>
                        </g>
                        <g transform="matrix(1.98015,0,0,1.98015,24.1891,-535.068)">
                            <path d="M117.827,490.53C129.217,490.639 139.926,499.406 142.093,510.698C143.635,518.738 140.908,527.464 135.038,533.195C128.174,539.897 117.278,542.117 108.267,538.433C100.306,535.178 94.305,527.54 93.058,519.031C91.918,511.25 94.722,502.984 100.401,497.504C104.899,493.165 111.003,490.633 117.345,490.532C117.506,490.53 117.666,490.53 117.827,490.53ZM117.533,494.823C108.258,494.912 99.406,501.976 97.505,511.255C96.128,517.979 98.379,525.325 103.293,530.124C108.967,535.665 117.952,537.522 125.44,534.46C132.025,531.768 136.996,525.443 138.027,518.408C139.299,509.731 134.333,500.471 126.357,496.745C123.604,495.459 120.541,494.814 117.533,494.823Z" style="fill:rgb(89,89,89);fill-rule:nonzero;"/>
                        </g>
                        <g transform="matrix(1.98015,0,0,1.98015,172.518,-535.068)">
                            <circle cx="117.666" cy="515.402" r="22.726" style="fill:rgb(179,179,179);"/>
                        </g>
                        <g transform="matrix(1.98015,0,0,1.98015,172.518,-535.068)">
                            <path d="M117.827,490.53C129.24,490.64 139.933,499.439 142.093,510.698C143.634,518.738 140.908,527.464 135.038,533.195C128.174,539.897 117.277,542.117 108.267,538.433C100.306,535.178 94.305,527.54 93.058,519.031C91.514,508.493 97.581,497.259 107.295,492.792C110.583,491.28 114.179,490.519 117.827,490.53ZM117.533,494.823C108.239,494.912 99.4,502.003 97.505,511.255C96.128,517.979 98.379,525.325 103.293,530.124C108.967,535.664 117.952,537.522 125.44,534.46C132.062,531.753 137.052,525.371 138.045,518.28C139.604,507.155 130.721,495.609 118.989,494.864C118.504,494.834 118.019,494.821 117.533,494.823Z" style="fill:rgb(89,89,89);fill-rule:nonzero;"/>
                        </g>
                        <g transform="matrix(1.98015,0,0,1.98015,319.847,-535.068)">
                            <circle cx="117.666" cy="515.402" r="22.726" style="fill:rgb(179,179,179);"/>
                        </g>
                        <g transform="matrix(1.98015,0,0,1.98015,319.847,-535.068)">
                            <path d="M117.827,490.53C129.225,490.639 139.923,499.392 142.093,510.698C143.635,518.738 140.908,527.464 135.038,533.195C128.174,539.897 117.278,542.117 108.267,538.433C100.306,535.178 94.305,527.54 93.058,519.031C91.925,511.298 94.685,503.086 100.294,497.608C104.799,493.209 111.003,490.633 117.345,490.532C117.506,490.53 117.666,490.53 117.827,490.53ZM117.533,494.823C108.219,494.912 99.33,502.05 97.48,511.381C96.156,518.058 98.406,525.352 103.293,530.124C108.967,535.664 117.952,537.522 125.44,534.46C134.121,530.911 139.615,520.889 137.901,511.632C136.199,502.447 127.694,495.04 118.065,494.826C117.888,494.824 117.71,494.822 117.533,494.823Z" style="fill:rgb(89,89,89);fill-rule:nonzero;"/>
                        </g>
                        <g transform="matrix(1.98015,0,0,1.98015,468.176,-535.068)">
                            <circle cx="117.666" cy="515.402" r="22.726" style="fill:rgb(179,179,179);"/>
                        </g>
                        <g transform="matrix(1.98015,0,0,1.98015,468.176,-535.068)">
                            <path d="M117.827,490.53C129.225,490.639 139.924,499.392 142.093,510.698C143.634,518.738 140.908,527.463 135.038,533.195C128.174,539.897 117.278,542.117 108.267,538.433C100.306,535.179 94.305,527.54 93.058,519.031C91.947,511.451 94.571,503.395 99.977,497.924C104.511,493.335 110.808,490.636 117.345,490.532C117.506,490.53 117.666,490.53 117.827,490.53ZM117.533,494.823C108.163,494.913 99.256,502.117 97.455,511.506C96.164,518.237 98.5,525.557 103.471,530.296C109.205,535.762 118.219,537.518 125.672,534.364C133.845,530.904 139.161,521.728 138.096,512.909C136.905,503.054 127.864,494.79 117.533,494.823Z" style="fill:rgb(89,89,89);fill-rule:nonzero;"/>
                        </g>
                    </g>
                    <g transform="matrix(0.490296,0,0,1,34.6749,5)">
                        <rect x="40.562" y="497.007" width="20.396" height="97.276" style="fill:white;"/>
                    </g>
                    <g transform="matrix(1,0,0,1,-4,0)">
                        <g transform="matrix(0.490296,0,0,1,582.675,5)">
                            <rect x="40.562" y="497.007" width="20.396" height="97.276" style="fill:white;"/>
                        </g>
                        <g transform="matrix(0.490296,0,0,1,598.342,5)">
                            <rect x="40.562" y="497.007" width="20.396" height="97.276" style="fill:white;"/>
                        </g>
                        <g transform="matrix(0.490296,0,0,1,614.008,5)">
                            <rect x="40.562" y="497.007" width="20.396" height="97.276" style="fill:white;"/>
                        </g>
                        <g transform="matrix(0.490296,0,0,1,629.675,5)">
                            <rect x="40.562" y="497.007" width="20.396" height="97.276" style="fill:white;"/>
                        </g>
                    </g>
                    <g transform="matrix(1,0,0,1,-152,0)">
                        <g transform="matrix(0.490296,0,0,1,582.675,5)">
                            <rect x="40.562" y="497.007" width="20.396" height="97.276" style="fill:white;"/>
                        </g>
                        <g transform="matrix(0.490296,0,0,1,598.342,5)">
                            <rect x="40.562" y="497.007" width="20.396" height="97.276" style="fill:white;"/>
                        </g>
                        <g transform="matrix(0.490296,0,0,1,614.008,5)">
                            <rect x="40.562" y="497.007" width="20.396" height="97.276" style="fill:white;"/>
                        </g>
                        <g transform="matrix(0.490296,0,0,1,629.675,5)">
                            <rect x="40.562" y="497.007" width="20.396" height="97.276" style="fill:white;"/>
                        </g>
                    </g>
                    <g transform="matrix(1,0,0,1,-300,0)">
                        <g transform="matrix(0.490296,0,0,1,582.675,5)">
                            <rect x="40.562" y="497.007" width="20.396" height="97.276" style="fill:white;"/>
                        </g>
                        <g transform="matrix(0.490296,0,0,1,598.342,5)">
                            <rect x="40.562" y="497.007" width="20.396" height="97.276" style="fill:white;"/>
                        </g>
                        <g transform="matrix(0.490296,0,0,1,614.008,5)">
                            <rect x="40.562" y="497.007" width="20.396" height="97.276" style="fill:white;"/>
                        </g>
                        <g transform="matrix(0.490296,0,0,1,629.675,5)">
                            <rect x="40.562" y="497.007" width="20.396" height="97.276" style="fill:white;"/>
                        </g>
                    </g>
                    <g transform="matrix(1,0,0,1,-448,0)">
                        <g transform="matrix(0.490296,0,0,1,582.675,5)">
                            <rect x="40.562" y="497.007" width="20.396" height="97.276" style="fill:white;"/>
                        </g>
                        <g transform="matrix(0.490296,0,0,1,598.342,5)">
                            <rect x="40.562" y="497.007" width="20.396" height="97.276" style="fill:white;"/>
                        </g>
                        <g transform="matrix(0.490296,0,0,1,614.008,5)">
                            <rect x="40.562" y="497.007" width="20.396" height="97.276" style="fill:white;"/>
                        </g>
                        <g transform="matrix(0.490296,0,0,1,629.675,5)">
                            <rect x="40.562" y="497.007" width="20.396" height="97.276" style="fill:white;"/>
                        </g>
                    </g>
                    <g transform="matrix(0.490296,0,0,1,726.675,5)">
                        <rect x="40.562" y="497.007" width="20.396" height="97.276" style="fill:white;"/>
                    </g>
                </g>
                <g transform="matrix(0.143572,0,3.53932e-33,0.143572,404.305,383.08)">
                    <g transform="matrix(0.799265,0,0,1,52.4933,0)">
                        <path d="M619.483,94.635C672.732,94.837 723.674,127.877 731.214,172.959C735.966,201.365 722.657,231.352 696.392,251.012C675.835,266.4 648.079,275.317 619.483,275.426C537.613,275.529 455.742,275.735 373.873,275.424C345.635,275.245 317.828,266.356 297.328,251.012C262.916,225.252 251.535,181.708 272.222,146.597C290.253,115.995 330.827,94.909 373.873,94.636C455.742,94.325 537.613,94.531 619.483,94.635ZM374.632,122.634C346.586,122.67 319.309,135.674 305.943,155.328C294.33,172.406 293.542,193.927 303.916,211.534C316.391,232.706 344.389,247.313 374.348,247.426C456.107,247.528 537.868,247.732 619.626,247.425C649.061,247.238 677.485,232.612 689.905,211.363C700.184,193.777 699.354,172.353 687.777,155.328C674.471,135.759 647.406,122.741 619.371,122.634C537.792,122.531 456.212,122.634 374.632,122.634Z" style="fill:white;fill-rule:nonzero;"/>
                    </g>
                    <g transform="matrix(1.25794,0,0,1.25794,-89.9981,-44.5631)">
                        <circle cx="358.043" cy="182.515" r="22.825" style="fill:white;"/>
                    </g>
                    <g transform="matrix(1.25794,0,0,1.25794,91.2651,-44.5631)">
                        <circle cx="358.043" cy="182.515" r="22.825" style="fill:white;"/>
                    </g>
                </g>
            </g>
            <g transform="matrix(1.13775,0,0,1.19344,911.072,478.675)">
                <path d="M2118.79,1199.56C2103.49,1383.81 2078.49,1439.77 2049.89,1476.93L2038.19,1493.7C2033.29,1501.95 2024.29,1507.49 2014.01,1507.49C2009.55,1507.49 2005.34,1506.45 2001.59,1504.6L2001.57,1504.6L2001.51,1504.56C1999.4,1503.51 1997.44,1502.2 1995.67,1500.67C1993.5,1499.23 1990.77,1497.4 1987.53,1495.22C1945.4,1473.99 1817.64,1408.53 1731.62,1353.07L1731.62,1353.52C1705.41,1337.11 1673.2,1327.43 1638.4,1327.43C1628.03,1327.43 1614.12,1329.58 1605.93,1330.66C1601.02,1332.5 1596.03,1333.48 1590.97,1333.55C1569.57,1338.75 1549.33,1345.53 1530,1355.21C1344.82,1447.94 958.247,1646.17 805.011,1636.97C798.507,1637.24 791.974,1637.33 785.414,1637.26L784.535,1637.26C770.455,1637.22 756.5,1636.42 742.689,1634.87C269.407,1587.15 14.309,851.152 14.309,851.152C14.309,851.152 14.469,850.714 14.787,849.858C14.469,849.003 14.309,848.565 14.309,848.565C14.309,848.565 269.407,112.564 742.689,64.852C756.5,63.299 770.455,62.492 784.535,62.46L785.414,62.459C791.974,62.384 798.507,62.48 805.011,62.744C958.247,53.542 1344.82,251.778 1530,344.507C1549.33,354.184 1569.57,360.965 1590.97,366.163C1596.03,366.239 1601.02,367.218 1605.93,369.055C1614.12,370.138 1628.03,372.288 1638.4,372.288C1673.2,372.288 1705.41,362.608 1731.62,346.193L1731.62,346.652C1817.64,291.186 1945.4,225.73 1987.53,204.493C1996.48,198.484 2001.57,195.118 2001.57,195.118C2002.18,195.118 2002.79,195.128 2003.41,195.149C2006.68,193.812 2010.26,193.076 2014.01,193.076C2024.29,193.076 2033.29,198.613 2038.19,206.866L2045.83,217.813C2072,258.327 2102.77,310.745 2118.79,503.72C2117.71,501.048 2116.57,499.647 2115.37,499.647L1712.32,554.253C1686.54,554.253 1665.61,575.187 1665.61,600.972L1665.61,1098.75C1665.61,1124.53 1686.54,1145.46 1712.32,1145.46L2118.07,1175.46C2119.27,1175.46 2117.71,1202.23 2118.79,1199.56Z" style="fill:rgb(89,89,89);"/>
            </g>
            <g transform="matrix(1.08357,1.46268e-32,0,1.09306,989.808,586.755)">
                <path d="M1717.27,1177.24L1717.85,1177.25L1717.37,1177.24L1716.9,1177.23L1716.42,1177.22L1715.95,1177.21L1715.48,1177.19L1715,1177.17L1714.53,1177.14L1714.06,1177.12L1713.59,1177.08L1713.12,1177.05L1712.65,1177.01L1712.18,1176.97L1711.71,1176.93L1711.25,1176.88L1710.78,1176.83L1710.31,1176.78L1709.85,1176.72L1709.38,1176.66L1708.92,1176.6L1708.46,1176.54L1707.99,1176.47L1707.53,1176.39L1707.07,1176.32L1706.61,1176.24L1706.15,1176.16L1705.7,1176.08L1705.24,1175.99L1704.79,1175.9L1704.33,1175.81L1703.88,1175.71L1703.42,1175.61L1702.97,1175.51L1702.52,1175.4L1702.07,1175.3L1701.62,1175.19L1701.17,1175.07L1700.73,1174.95L1700.28,1174.84L1699.84,1174.71L1699.39,1174.59L1698.95,1174.46L1698.51,1174.33L1698.07,1174.19L1697.63,1174.06L1697.19,1173.92L1696.76,1173.77L1696.32,1173.63L1695.89,1173.48L1695.46,1173.33L1695.03,1173.17L1694.6,1173.02L1694.17,1172.86L1693.74,1172.7L1693.31,1172.53L1692.89,1172.37L1692.46,1172.19L1692.04,1172.02L1691.62,1171.85L1691.2,1171.67L1690.78,1171.49L1690.37,1171.3L1689.95,1171.12L1689.54,1170.93L1689.12,1170.74L1688.71,1170.54L1688.3,1170.35L1687.89,1170.15L1687.49,1169.95L1687.08,1169.74L1686.68,1169.54L1686.27,1169.33L1685.87,1169.12L1685.47,1168.9L1685.07,1168.68L1684.68,1168.47L1684.28,1168.25L1683.89,1168.02L1683.5,1167.79L1683.11,1167.57L1682.72,1167.34L1682.33,1167.1L1681.94,1166.87L1681.56,1166.63L1681.18,1166.39L1680.8,1166.14L1680.42,1165.9L1680.04,1165.65L1679.66,1165.4L1679.29,1165.15L1678.92,1164.89L1678.55,1164.64L1678.17,1164.38L1677.81,1164.12L1677.44,1163.85L1677.08,1163.59L1676.71,1163.32L1676.35,1163.05L1675.99,1162.78L1675.63,1162.5L1675.28,1162.22L1674.92,1161.95L1674.57,1161.67L1674.22,1161.38L1673.87,1161.1L1673.53,1160.81L1673.18,1160.52L1672.83,1160.23L1672.49,1159.93L1672.15,1159.64L1671.81,1159.34L1671.48,1159.04L1671.14,1158.74L1670.81,1158.43L1670.48,1158.13L1670.15,1157.82L1669.82,1157.51L1669.49,1157.2L1669.17,1156.88L1668.85,1156.57L1668.53,1156.25L1668.21,1155.93L1667.89,1155.61L1667.58,1155.28L1667.26,1154.96L1666.95,1154.63L1666.64,1154.3L1666.34,1153.97L1666.03,1153.64L1665.73,1153.3L1665.43,1152.96L1665.13,1152.62L1664.83,1152.28L1664.54,1151.94L1664.24,1151.6L1663.95,1151.25L1663.66,1150.9L1663.37,1150.55L1663.09,1150.2L1662.8,1149.85L1662.52,1149.49L1662.24,1149.13L1661.96,1148.78L1661.69,1148.41L1661.41,1148.05L1661.14,1147.69L1660.87,1147.32L1660.6,1146.96L1660.34,1146.59L1660.07,1146.21L1659.81,1145.84L1659.55,1145.47L1659.3,1145.09L1659.04,1144.71L1658.79,1144.33L1658.54,1143.95L1658.29,1143.57L1658.04,1143.19L1657.79,1142.8L1657.55,1142.41L1657.31,1142.02L1657.07,1141.63L1656.84,1141.24L1656.6,1140.85L1656.37,1140.45L1656.14,1140.06L1655.91,1139.66L1655.69,1139.26L1655.46,1138.86L1655.24,1138.45L1655.02,1138.05L1654.81,1137.64L1654.59,1137.23L1654.38,1136.83L1654.17,1136.42L1653.96,1136L1653.76,1135.59L1653.55,1135.17L1653.35,1134.76L1653.15,1134.34L1652.96,1133.92L1652.77,1133.5L1652.57,1133.08L1652.38,1132.65L1652.2,1132.23L1652.01,1131.81L1651.83,1131.38L1651.65,1130.95L1651.47,1130.52L1651.3,1130.09L1651.12,1129.65L1650.95,1129.22L1650.78,1128.79L1650.62,1128.35L1650.45,1127.91L1650.29,1127.47L1650.13,1127.03L1649.98,1126.59L1649.82,1126.15L1649.67,1125.7L1649.52,1125.26L1649.38,1124.81L1649.23,1124.36L1649.09,1123.91L1648.95,1123.46L1648.82,1123.01L1648.68,1122.56L1648.55,1122.11L1648.42,1121.65L1648.3,1121.2L1648.17,1120.74L1648.05,1120.28L1647.93,1119.82L1647.82,1119.36L1647.7,1118.9L1647.59,1118.44L1647.48,1117.97L1647.38,1117.51L1647.27,1117.04L1647.17,1116.58L1647.07,1116.11L1646.98,1115.64L1646.89,1115.17L1646.8,1114.7L1646.71,1114.23L1646.62,1113.76L1646.54,1113.29L1646.46,1112.81L1646.38,1112.34L1646.31,1111.86L1646.24,1111.38L1646.17,1110.91L1646.11,1110.43L1646.04,1109.95L1645.98,1109.47L1645.92,1108.99L1645.87,1108.51L1645.82,1108.03L1645.77,1107.54L1645.72,1107.06L1645.68,1106.58L1645.63,1106.09L1645.6,1105.61L1645.56,1105.12L1645.53,1104.63L1645.5,1104.14L1645.47,1103.65L1645.45,1103.16L1645.42,1102.67L1645.41,1102.18L1645.39,1101.69L1645.38,1101.2L1645.37,1100.71L1645.36,1100.22L1645.36,1099.72L1645.36,1099.27L1645.36,558.785L1645.36,558.334L1645.36,557.841L1645.37,557.348L1645.38,556.855L1645.39,556.363L1645.41,555.873L1645.42,555.384L1645.45,554.894L1645.47,554.404L1645.5,553.915L1645.53,553.427L1645.56,552.94L1645.6,552.453L1645.63,551.967L1645.68,551.483L1645.72,551L1645.77,550.514L1645.82,550.031L1645.87,549.549L1645.92,549.067L1645.98,548.588L1646.04,548.107L1646.11,547.628L1646.17,547.15L1646.24,546.673L1646.31,546.196L1646.38,545.72L1646.46,545.245L1646.54,544.771L1646.62,544.299L1646.71,543.826L1646.8,543.355L1646.89,542.884L1646.98,542.416L1647.07,541.947L1647.17,541.479L1647.27,541.014L1647.38,540.548L1647.48,540.084L1647.59,539.621L1647.7,539.157L1647.82,538.696L1647.93,538.238L1648.05,537.778L1648.17,537.318L1648.3,536.862L1648.42,536.406L1648.55,535.951L1648.68,535.499L1648.82,535.045L1648.95,534.594L1649.09,534.145L1649.23,533.694L1649.38,533.247L1649.52,532.801L1649.67,532.354L1649.82,531.912L1649.98,531.47L1650.13,531.027L1650.29,530.585L1650.45,530.147L1650.62,529.71L1650.78,529.272L1650.95,528.837L1651.12,528.404L1651.3,527.97L1651.47,527.537L1651.65,527.109L1651.83,526.681L1652.01,526.251L1652.2,525.825L1652.38,525.403L1652.57,524.979L1652.76,524.557L1652.96,524.135L1653.15,523.716L1653.35,523.301L1653.55,522.883L1653.76,522.469L1653.96,522.055L1654.17,521.642L1654.38,521.232L1654.59,520.823L1654.81,520.417L1655.02,520.009L1655.24,519.603L1655.46,519.204L1655.69,518.804L1655.91,518.4L1656.14,518L1656.37,517.607L1656.6,517.211L1656.84,516.815L1657.07,516.422L1657.31,516.035L1657.55,515.647L1657.79,515.257L1658.04,514.869L1658.29,514.486L1658.54,514.106L1658.79,513.724L1659.04,513.343L1659.3,512.965L1659.55,512.59L1659.81,512.215L1660.07,511.846L1660.34,511.472L1660.61,511.101L1660.87,510.738L1661.14,510.371L1661.41,510.006L1661.69,509.645L1661.96,509.283L1662.24,508.924L1662.52,508.568L1662.8,508.209L1663.09,507.855L1663.37,507.508L1663.66,507.156L1663.95,506.809L1664.24,506.464L1664.54,506.115L1664.83,505.775L1665.13,505.433L1665.43,505.094L1665.73,504.756L1666.03,504.422L1666.34,504.089L1666.65,503.755L1666.95,503.429L1667.26,503.1L1667.58,502.774L1667.89,502.452L1668.21,502.129L1668.53,501.808L1668.85,501.49L1669.17,501.174L1669.49,500.861L1669.82,500.545L1670.15,500.237L1670.48,499.93L1670.81,499.625L1671.14,499.32L1671.48,499.017L1671.81,498.719L1672.15,498.418L1672.5,498.122L1672.83,497.832L1673.18,497.541L1673.53,497.248L1673.87,496.962L1674.22,496.678L1674.57,496.393L1674.93,496.111L1675.28,495.831L1675.63,495.557L1675.99,495.282L1676.36,495.007L1676.71,494.74L1677.08,494.472L1677.44,494.205L1677.81,493.942L1678.17,493.682L1678.55,493.421L1678.92,493.164L1679.29,492.909L1679.66,492.659L1680.04,492.408L1680.42,492.158L1680.8,491.916L1681.18,491.673L1681.56,491.431L1681.95,491.191L1682.33,490.957L1682.72,490.724L1683.11,490.492L1683.5,490.263L1683.89,490.037L1684.28,489.815L1684.67,489.594L1685.08,489.372L1685.47,489.156L1685.88,488.94L1686.27,488.73L1686.67,488.522L1687.08,488.315L1687.49,488.11L1687.89,487.908L1688.3,487.711L1688.71,487.514L1689.12,487.319L1689.54,487.128L1689.95,486.94L1690.36,486.755L1690.78,486.572L1691.2,486.39L1691.62,486.211L1692.04,486.035L1692.47,485.862L1692.89,485.692L1693.31,485.526L1693.74,485.362L1694.17,485.198L1694.6,485.039L1695.03,484.882L1695.46,484.729L1695.89,484.579L1696.33,484.428L1696.76,484.284L1697.19,484.143L1697.63,484.001L1698.07,483.865L1698.51,483.73L1698.96,483.598L1699.4,483.47L1699.84,483.345L1700.28,483.223L1700.73,483.103L1701.17,482.986L1701.62,482.872L1702.07,482.761L1702.52,482.654L1702.97,482.547L1703.42,482.446L1703.88,482.347L1704.33,482.25L1704.79,482.157L1705.24,482.068L1705.7,481.98L1706.15,481.896L1706.62,481.815L1707.08,481.737L1707.53,481.663L1707.99,481.591L1708.46,481.522L1708.92,481.456L1709.38,481.394L1709.85,481.335L1710.31,481.278L1710.78,481.226L1711.24,481.176L1711.71,481.129L1712.18,481.085L1712.65,481.044L1713.12,481.008L1713.59,480.974L1714.06,480.943L1714.53,480.915L1715.01,480.891L1715.48,480.87L1715.95,480.852L1716.42,480.837L1716.9,480.826L1717.37,480.818L1717.84,480.813L1717.27,480.815L2151.35,446.057L2151.3,505.049L2151.27,538.942L2151.24,582.969L2151.22,608.164L2151.2,635.152L2151.18,663.686L2151.16,693.518L2151.14,724.401L2151.12,756.089L2151.1,788.334L2151.09,820.89L2151.07,853.509L2151.06,885.945L2151.05,917.95L2151.05,949.278L2151.04,964.61L2151.04,979.681L2151.04,994.458L2151.04,1008.91L2151.05,1023.01L2151.05,1036.72L2151.05,1050.02L2151.06,1062.87L2151.06,1075.24L2151.07,1087.1L2151.08,1098.42L2151.09,1109.17L2151.1,1119.32L2151.11,1128.84L2151.13,1137.69L2151.14,1145.84L2151.15,1149.65L2151.16,1153.27L2151.17,1156.7L2151.18,1159.94L2151.19,1162.97L2151.2,1165.81L2151.21,1168.44L2151.22,1170.86L2151.23,1173.06L2151.24,1175.05L2151.26,1176.8L2151.27,1178.32L2151.28,1179.61L2151.29,1180.14L2151.29,1180.62L2151.3,1181.02L2151.3,1181.34L2151.31,1181.57L2152.1,1212.06L1717.27,1177.24ZM2125.07,1182.24L2125.06,1181.89L2125.05,1181.49L2125.05,1181.02L2125.04,1180.5L2125.03,1179.92L2125.02,1178.58L2125.01,1177.02L2124.99,1175.23L2124.98,1173.22L2124.97,1171L2124.96,1168.56L2124.95,1165.92L2124.94,1163.07L2124.93,1160.02L2124.92,1156.78L2124.91,1153.34L2124.9,1149.71L2124.89,1145.9L2124.88,1137.74L2124.86,1128.88L2124.85,1119.36L2124.84,1109.2L2124.83,1098.45L2124.82,1087.12L2124.81,1075.26L2124.81,1062.88L2124.8,1050.03L2124.8,1036.73L2124.8,1023.02L2124.79,1008.92L2124.79,994.459L2124.79,979.68L2124.79,964.608L2124.8,949.273L2124.8,917.943L2124.81,885.936L2124.82,853.498L2124.84,820.877L2124.85,788.32L2124.87,756.073L2124.89,724.384L2124.91,693.5L2124.93,663.667L2124.95,635.132L2124.97,608.143L2124.99,582.947L2125.02,538.919L2125.05,505.024L2125.07,475.538L1718.32,508.107L1718.02,508.108L1717.72,508.111L1717.42,508.116L1717.12,508.124L1716.82,508.133L1716.52,508.144L1716.22,508.158L1715.92,508.173L1715.62,508.191L1715.33,508.21L1715.03,508.232L1714.73,508.255L1714.43,508.281L1714.14,508.308L1713.84,508.338L1713.55,508.369L1713.26,508.403L1712.96,508.438L1712.67,508.475L1712.38,508.515L1712.09,508.556L1711.79,508.599L1711.5,508.645L1711.21,508.692L1710.92,508.741L1710.63,508.792L1710.35,508.845L1710.06,508.9L1709.77,508.957L1709.48,509.015L1709.2,509.076L1708.91,509.138L1708.63,509.203L1708.34,509.269L1708.06,509.337L1707.78,509.407L1707.5,509.479L1707.22,509.552L1706.93,509.628L1706.65,509.705L1706.37,509.784L1706.1,509.865L1705.82,509.948L1705.54,510.033L1705.26,510.119L1704.99,510.207L1704.71,510.297L1704.44,510.389L1704.16,510.482L1703.89,510.578L1703.62,510.675L1703.35,510.774L1703.08,510.874L1702.81,510.977L1702.54,511.081L1702.27,511.187L1702,511.294L1701.73,511.404L1701.47,511.515L1701.2,511.628L1700.93,511.742L1700.67,511.858L1700.41,511.976L1700.15,512.095L1699.88,512.217L1699.62,512.34L1699.36,512.464L1699.11,512.59L1698.85,512.718L1698.59,512.848L1698.33,512.979L1698.08,513.112L1697.82,513.246L1697.57,513.382L1697.32,513.52L1697.06,513.659L1696.81,513.8L1696.56,513.943L1696.31,514.087L1696.06,514.232L1695.82,514.38L1695.57,514.529L1695.32,514.679L1695.08,514.831L1694.83,514.984L1694.59,515.14L1694.35,515.296L1694.11,515.454L1693.87,515.614L1693.63,515.775L1693.39,515.938L1693.15,516.102L1692.91,516.268L1692.68,516.435L1692.44,516.604L1692.21,516.774L1691.98,516.946L1691.75,517.119L1691.52,517.294L1691.29,517.47L1691.06,517.647L1690.83,517.826L1690.6,518.007L1690.38,518.189L1690.15,518.372L1689.93,518.557L1689.71,518.743L1689.49,518.931L1689.27,519.12L1689.05,519.31L1688.83,519.502L1688.61,519.695L1688.4,519.89L1688.18,520.086L1687.97,520.283L1687.76,520.482L1687.55,520.682L1687.34,520.883L1687.13,521.086L1686.92,521.29L1686.71,521.495L1686.51,521.702L1686.3,521.91L1686.1,522.119L1685.89,522.33L1685.69,522.542L1685.49,522.755L1685.3,522.97L1685.1,523.185L1684.9,523.402L1684.71,523.621L1684.51,523.84L1684.32,524.061L1684.13,524.283L1683.94,524.507L1683.75,524.731L1683.56,524.957L1683.37,525.184L1683.19,525.413L1683,525.642L1682.82,525.873L1682.64,526.105L1682.46,526.338L1682.28,526.572L1682.1,526.808L1681.92,527.044L1681.75,527.282L1681.58,527.521L1681.4,527.761L1681.23,528.002L1681.06,528.245L1680.89,528.488L1680.72,528.733L1680.56,528.979L1680.39,529.226L1680.23,529.474L1680.07,529.723L1679.91,529.973L1679.75,530.225L1679.59,530.477L1679.43,530.731L1679.28,530.985L1679.12,531.241L1678.97,531.498L1678.82,531.755L1678.67,532.014L1678.52,532.274L1678.37,532.535L1678.23,532.797L1678.08,533.06L1677.94,533.324L1677.8,533.589L1677.66,533.855L1677.52,534.122L1677.38,534.39L1677.25,534.659L1677.11,534.929L1676.98,535.2L1676.85,535.472L1676.72,535.745L1676.59,536.019L1676.46,536.294L1676.34,536.569L1676.22,536.846L1676.09,537.124L1675.97,537.402L1675.85,537.682L1675.74,537.962L1675.62,538.243L1675.5,538.525L1675.39,538.808L1675.28,539.092L1675.17,539.377L1675.06,539.663L1674.95,539.949L1674.85,540.237L1674.74,540.525L1674.64,540.814L1674.54,541.104L1674.44,541.395L1674.34,541.687L1674.25,541.979L1674.15,542.273L1674.06,542.567L1673.97,542.862L1673.88,543.157L1673.79,543.454L1673.71,543.751L1673.62,544.049L1673.54,544.348L1673.46,544.648L1673.38,544.948L1673.3,545.25L1673.22,545.551L1673.15,545.854L1673.08,546.157L1673.01,546.462L1672.94,546.766L1672.87,547.072L1672.8,547.378L1672.74,547.685L1672.67,547.993L1672.61,548.301L1672.56,548.61L1672.5,548.92L1672.44,549.231L1672.39,549.542L1672.34,549.854L1672.29,550.166L1672.24,550.479L1672.19,550.793L1672.14,551.107L1672.1,551.422L1672.06,551.738L1672.02,552.054L1671.98,552.371L1671.94,552.688L1671.91,553.006L1671.88,553.325L1671.85,553.644L1671.82,553.964L1671.79,554.284L1671.77,554.605L1671.74,554.927L1671.72,555.249L1671.7,555.572L1671.68,555.895L1671.67,556.219L1671.65,556.543L1671.64,556.868L1671.63,557.193L1671.62,557.519L1671.61,557.845L1671.61,558.172L1671.61,558.499L1671.61,558.827L1671.61,1099.23L1671.61,1099.56L1671.61,1099.89L1671.61,1100.21L1671.62,1100.54L1671.63,1100.87L1671.64,1101.19L1671.65,1101.52L1671.67,1101.84L1671.68,1102.16L1671.7,1102.49L1671.72,1102.81L1671.74,1103.13L1671.77,1103.45L1671.79,1103.77L1671.82,1104.09L1671.85,1104.41L1671.88,1104.73L1671.91,1105.05L1671.94,1105.37L1671.98,1105.69L1672.02,1106L1672.06,1106.32L1672.1,1106.64L1672.14,1106.95L1672.19,1107.27L1672.24,1107.58L1672.29,1107.89L1672.34,1108.2L1672.39,1108.52L1672.44,1108.83L1672.5,1109.14L1672.56,1109.45L1672.61,1109.76L1672.67,1110.07L1672.74,1110.37L1672.8,1110.68L1672.87,1110.99L1672.94,1111.29L1673.01,1111.6L1673.08,1111.9L1673.15,1112.2L1673.22,1112.51L1673.3,1112.81L1673.38,1113.11L1673.46,1113.41L1673.54,1113.71L1673.62,1114.01L1673.71,1114.31L1673.79,1114.6L1673.88,1114.9L1673.97,1115.2L1674.06,1115.49L1674.15,1115.79L1674.25,1116.08L1674.34,1116.37L1674.44,1116.66L1674.54,1116.95L1674.64,1117.24L1674.74,1117.53L1674.85,1117.82L1674.95,1118.11L1675.06,1118.39L1675.17,1118.68L1675.28,1118.96L1675.39,1119.25L1675.5,1119.53L1675.62,1119.82L1675.74,1120.1L1675.85,1120.38L1675.97,1120.66L1676.09,1120.93L1676.22,1121.21L1676.34,1121.49L1676.46,1121.76L1676.59,1122.04L1676.72,1122.31L1676.85,1122.59L1676.98,1122.86L1677.11,1123.13L1677.25,1123.4L1677.38,1123.67L1677.52,1123.94L1677.66,1124.2L1677.8,1124.47L1677.94,1124.73L1678.08,1125L1678.23,1125.26L1678.37,1125.52L1678.52,1125.78L1678.67,1126.04L1678.82,1126.3L1678.97,1126.56L1679.12,1126.82L1679.28,1127.07L1679.43,1127.33L1679.59,1127.58L1679.75,1127.83L1679.91,1128.08L1680.07,1128.34L1680.23,1128.58L1680.39,1128.83L1680.56,1129.08L1680.72,1129.33L1680.89,1129.57L1681.06,1129.81L1681.23,1130.06L1681.4,1130.3L1681.58,1130.54L1681.75,1130.78L1681.92,1131.01L1682.1,1131.25L1682.28,1131.49L1682.46,1131.72L1682.64,1131.95L1682.82,1132.18L1683,1132.42L1683.19,1132.64L1683.37,1132.87L1683.56,1133.1L1683.75,1133.33L1683.94,1133.55L1684.13,1133.77L1684.32,1134L1684.51,1134.22L1684.71,1134.44L1684.9,1134.65L1685.1,1134.87L1685.3,1135.09L1685.49,1135.3L1685.69,1135.52L1685.89,1135.73L1686.1,1135.94L1686.3,1136.15L1686.51,1136.36L1686.71,1136.56L1686.92,1136.77L1687.13,1136.97L1687.34,1137.17L1687.55,1137.38L1687.76,1137.58L1687.97,1137.78L1688.18,1137.97L1688.4,1138.17L1688.61,1138.36L1688.83,1138.56L1689.05,1138.75L1689.27,1138.94L1689.49,1139.13L1689.71,1139.32L1689.93,1139.5L1690.15,1139.69L1690.38,1139.87L1690.6,1140.05L1690.83,1140.23L1691.06,1140.41L1691.29,1140.59L1691.52,1140.76L1691.75,1140.94L1691.98,1141.11L1692.21,1141.28L1692.44,1141.45L1692.68,1141.62L1692.91,1141.79L1693.15,1141.96L1693.39,1142.12L1693.63,1142.28L1693.87,1142.44L1694.11,1142.6L1694.35,1142.76L1694.59,1142.92L1694.83,1143.07L1695.08,1143.23L1695.32,1143.38L1695.57,1143.53L1695.82,1143.68L1696.06,1143.83L1696.31,1143.97L1696.56,1144.12L1696.81,1144.26L1697.06,1144.4L1697.32,1144.54L1697.57,1144.68L1697.82,1144.81L1698.08,1144.95L1698.33,1145.08L1698.59,1145.21L1698.85,1145.34L1699.11,1145.47L1699.36,1145.59L1699.62,1145.72L1699.88,1145.84L1700.15,1145.96L1700.41,1146.08L1700.67,1146.2L1700.93,1146.32L1701.2,1146.43L1701.47,1146.54L1701.73,1146.65L1702,1146.76L1702.27,1146.87L1702.54,1146.98L1702.81,1147.08L1703.08,1147.18L1703.35,1147.28L1703.62,1147.38L1703.89,1147.48L1704.16,1147.58L1704.44,1147.67L1704.71,1147.76L1704.99,1147.85L1705.26,1147.94L1705.54,1148.03L1705.82,1148.11L1706.1,1148.19L1706.37,1148.27L1706.65,1148.35L1706.93,1148.43L1707.22,1148.51L1707.5,1148.58L1707.78,1148.65L1708.06,1148.72L1708.34,1148.79L1708.63,1148.86L1708.91,1148.92L1709.2,1148.98L1709.48,1149.04L1709.77,1149.1L1710.06,1149.16L1710.35,1149.21L1710.63,1149.27L1710.92,1149.32L1711.21,1149.37L1711.5,1149.41L1711.79,1149.46L1712.09,1149.5L1712.38,1149.54L1712.67,1149.58L1712.96,1149.62L1713.26,1149.65L1713.55,1149.69L1713.84,1149.72L1714.14,1149.75L1714.43,1149.78L1714.73,1149.8L1715.03,1149.83L1715.33,1149.85L1715.62,1149.87L1715.92,1149.88L1716.22,1149.9L1716.52,1149.91L1716.82,1149.92L1717.12,1149.93L1717.42,1149.94L1717.72,1149.95L1718.02,1149.95L1718.32,1149.95L2125.07,1182.52L2125.07,1182.24Z" style="fill:white;"/>
            </g>
            <g transform="matrix(1.13775,0,0,1.25055,947.449,422.515)">
                <path d="M2086.82,730.801L2060.06,715.532L2060.06,1164.93L2086.82,1166.59L2086.82,730.801Z" style="fill:rgb(89,89,89);"/>
            </g>
        </g>
        <g transform="matrix(-1.23294,-1.65965e-16,1.50992e-16,-1.35521,3561.57,2908.4)">
            <circle cx="828.916" cy="1023.36" r="312.521" style="fill:white;"/>
        </g>
        <g transform="matrix(-0.432894,-5.82715e-17,5.30143e-17,-0.475823,2898.4,2008.48)">
            <circle cx="828.916" cy="1023.36" r="312.521" style="fill:rgb(89,89,89);"/>
        </g>
        <g transform="matrix(-1.0366,-1.39536e-16,1.21023e-16,-1.08623,4369.5,3127.35)">
            <g transform="matrix(0.144525,0,0,0.151599,1589.2,1009.05)">
                <circle cx="828.916" cy="1023.36" r="312.521" style="fill:rgb(179,178,178);"/>
            </g>
            <g transform="matrix(0.144525,0,0,0.151599,1701.85,1009.05)">
                <circle cx="828.916" cy="1023.36" r="312.521" style="fill:rgb(179,178,178);"/>
            </g>
            <g transform="matrix(0.144525,0,0,0.151599,1589.2,1126)">
                <circle cx="828.916" cy="1023.36" r="312.521" style="fill:rgb(179,178,178);"/>
            </g>
            <g transform="matrix(0.144525,0,0,0.151599,1701.85,1126)">
                <circle cx="828.916" cy="1023.36" r="312.521" style="fill:rgb(179,178,178);"/>
            </g>
        </g>
        <g transform="matrix(-1.0366,-1.39536e-16,1.21023e-16,-1.08623,4369.5,2573.81)">
            <g transform="matrix(0.144525,0,0,0.151599,1589.2,1009.05)">
                <circle cx="828.916" cy="1023.36" r="312.521" style="fill:rgb(179,178,178);"/>
            </g>
            <g transform="matrix(0.144525,0,0,0.151599,1701.85,1009.05)">
                <circle cx="828.916" cy="1023.36" r="312.521" style="fill:rgb(179,178,178);"/>
            </g>
            <g transform="matrix(0.144525,0,0,0.151599,1589.2,1126)">
                <circle cx="828.916" cy="1023.36" r="312.521" style="fill:rgb(179,178,178);"/>
            </g>
            <g transform="matrix(0.144525,0,0,0.151599,1701.85,1126)">
                <circle cx="828.916" cy="1023.36" r="312.521" style="fill:rgb(179,178,178);"/>
            </g>
        </g>
        <g transform="matrix(-1.9042e-16,1.1394,-0.988229,-1.99537e-16,3997.41,-489.866)">
            <g transform="matrix(0.144525,0,0,0.151599,1589.2,1009.05)">
                <circle cx="828.916" cy="1023.36" r="312.521" style="fill:rgb(179,178,178);"/>
            </g>
            <g transform="matrix(0.144525,0,0,0.151599,1701.85,1009.05)">
                <circle cx="828.916" cy="1023.36" r="312.521" style="fill:rgb(179,178,178);"/>
            </g>
            <g transform="matrix(0.144525,0,0,0.151599,1589.2,1126)">
                <circle cx="828.916" cy="1023.36" r="312.521" style="fill:rgb(179,178,178);"/>
            </g>
            <g transform="matrix(0.144525,0,0,0.151599,1701.85,1126)">
                <circle cx="828.916" cy="1023.36" r="312.521" style="fill:rgb(179,178,178);"/>
            </g>
        </g>
        <g transform="matrix(-1.9042e-16,1.1394,-0.988229,-1.99537e-16,3496.17,-489.866)">
            <g transform="matrix(0.144525,0,0,0.151599,1589.2,1009.05)">
                <circle cx="828.916" cy="1023.36" r="312.521" style="fill:rgb(179,178,178);"/>
            </g>
            <g transform="matrix(0.144525,0,0,0.151599,1701.85,1009.05)">
                <circle cx="828.916" cy="1023.36" r="312.521" style="fill:rgb(179,178,178);"/>
            </g>
            <g transform="matrix(0.144525,0,0,0.151599,1589.2,1126)">
                <circle cx="828.916" cy="1023.36" r="312.521" style="fill:rgb(179,178,178);"/>
            </g>
            <g transform="matrix(0.144525,0,0,0.151599,1701.85,1126)">
                <circle cx="828.916" cy="1023.36" r="312.521" style="fill:rgb(179,178,178);"/>
            </g>
        </g>
    </g>
</svg>
