<?xml version="1.0" encoding="UTF-8" standalone="no"?>
<!DOCTYPE svg PUBLIC "-//W3C//DTD SVG 1.1//EN" "http://www.w3.org/Graphics/SVG/1.1/DTD/svg11.dtd">
<svg width="100%" height="100%" viewBox="0 0 200 110" version="1.1" xmlns="http://www.w3.org/2000/svg" xmlns:xlink="http://www.w3.org/1999/xlink" xml:space="preserve" xmlns:serif="http://www.serif.com/" style="fill-rule:evenodd;clip-rule:evenodd;stroke-linejoin:round;stroke-miterlimit:1.41421;">
    <g transform="matrix(0.827327,0,0,0.827327,-502.688,-582.304)">
        <g id="Border" transform="matrix(0.203395,0,0,0.203395,607.568,703.732)">
            <path d="M420.736,649.582C414.165,646.88 411.222,645.085 405.346,640.194C392.722,629.688 380.239,605.313 375.543,582C372.696,567.869 375.982,569.422 347.345,568.672C296.551,567.342 262.737,561.122 236.097,548.21C215.265,538.113 196.893,518.876 184.566,494.253C168.922,463.003 156.728,412.323 149.014,346.5C146.292,323.263 146.084,322 144.993,322C144.489,322 143.583,323.913 142.98,326.25C139.528,339.623 127.912,365.272 100.992,418.96C69.77,481.229 58.674,508.637 55.54,531.227C55.179,533.826 54.573,536.144 54.192,536.377C53.316,536.914 1.097,531.43 0.394,530.728C-0.643,529.691 2.248,517.283 5.689,508C12.947,488.421 31.499,452.698 53.727,415.5C58.657,407.25 71.825,385.425 82.989,367C107.332,326.827 123.945,298.064 131.45,283.099L136.985,272.064L135.951,261.782C132.139,223.849 125.131,200.894 114.293,190.834C108.17,185.152 101.277,181.552 91.154,178.751C84.637,176.948 80.679,176.627 64.5,176.587C52.188,176.556 43.438,177.005 39.643,177.863C35.928,178.702 33.437,178.837 32.832,178.232C31.581,176.981 35.777,138.926 37.345,137.308C41.014,133.522 76.098,129.763 95.009,131.129C109.008,132.141 117.406,134.149 127.392,138.872C141.825,145.697 149.671,154.872 156.912,173.394C164.965,193.99 169.381,216.305 175.531,267.475C188.215,373.009 207.824,438.869 238.929,480.405C250.714,496.143 259.874,505.717 271.952,514.923C286.603,526.089 293.574,530.262 302,532.912C316.43,537.449 324.76,538.259 363.5,538.894L400.5,539.5L401.155,550.068C403.231,583.533 415.71,613.84 430.327,620.916C434.586,622.978 435.521,623 519.066,622.978C615.092,622.953 607.658,623.624 616.109,614.224C626.845,602.283 634.587,579.023 637.004,551.451C637.578,544.907 638.399,539.201 638.828,538.772C639.257,538.343 694.034,538.106 760.554,538.246L881.5,538.5L881.5,567.5L773.504,568L665.509,568.5L664.65,573C656.881,613.723 639.695,641.551 617.293,649.683L610.909,652L518.705,651.976L426.5,651.953L420.736,649.582L420.736,649.582ZM955.44,566.706C955.165,565.987 955.065,559.347 955.22,551.95L955.5,538.5L1116.5,538.5L1116.5,567.5L1036.22,567.756C970.89,567.964 955.848,567.769 955.44,566.706ZM873.368,191.88C843.869,188.782 807.789,173.203 738,133.433C649.362,82.921 617.078,67.911 574.5,57.416C551.051,51.636 540.551,50.608 505.5,50.663C454.884,50.743 420.1,55.708 384.952,67.872C351.639,79.4 327.508,93.276 285.862,124.849C238.125,161.041 211.986,178.17 212.003,173.25C212.011,170.927 217.453,152.749 220.525,144.79C247.424,75.078 320.002,26.451 424.528,8.108C447.808,4.022 464.598,2.229 490.774,1.031C570.776,-2.63 626.194,12.989 703.5,60.986C711.2,65.767 732.575,79.572 751,91.665C800.073,123.874 824.89,138.302 851.217,149.929C875.269,160.552 898.694,167.848 923.5,172.444C931.715,173.966 935.5,175.088 935.5,176C935.5,178.136 923.522,184.863 914.092,188.023C905.961,190.747 891.307,193.142 884.5,192.859C882.85,192.79 877.84,192.35 873.368,191.88Z" style="fill:white;"/>
        </g>
        <g id="Snap-" serif:id="Snap!" transform="matrix(0.203395,0,0,0.203395,607.568,706.732)">
            <path d="M897.551,573.082C897.226,572.556 897.422,565.91 897.988,558.313C900.545,523.946 901.152,505.41 901.681,445.5C902.228,383.491 901.451,346.317 898.921,313.5C897.555,295.788 894.345,267.499 892.412,256.141C891.27,249.432 891.125,246.475 891.9,245.7C892.964,244.636 930.922,238.852 932.108,239.573C932.443,239.776 933.25,243.443 933.903,247.721C935.683,259.387 936.072,261 937.106,261C937.627,261 941.023,258.551 944.652,255.557C959.9,242.98 977.8,237.269 1005,236.302C1022.12,235.694 1032.43,237.041 1045.46,241.592C1070.26,250.258 1091.77,274.304 1101.98,304.782C1106.35,317.827 1108.1,329.521 1108.14,346C1108.22,373.641 1103.12,395.151 1091.33,416.974C1076.09,445.169 1055.25,462.602 1028.37,469.637C1020.42,471.719 1015.33,472.322 1002.18,472.742C976.633,473.558 958.119,470.1 947.46,462.522C944.735,460.585 941.886,459 941.127,459C939.968,459 939.846,464.798 940.369,495.25C940.711,515.188 941.105,540.95 941.245,552.5L941.5,573.5L919.821,573.769C906.796,573.931 897.906,573.657 897.551,573.082ZM1010.85,441.618C1018.64,439.45 1029.75,433.897 1035.58,429.258C1042.32,423.905 1049.03,414.817 1054.5,403.629C1074.58,362.612 1067.49,309.097 1038.56,283.307C1027.41,273.374 1013.94,268.831 995.779,268.881C972.369,268.945 956.908,274.287 943.952,286.787L936.995,293.5L937.965,313C938.497,323.725 939.432,353.65 940.04,379.5C940.649,405.35 941.318,427.044 941.527,427.71C942.842,431.901 960.14,440.101 972.669,442.473C982.199,444.277 1002.97,443.812 1010.85,441.618ZM331,473.975C310.243,472.627 278.647,467.047 275.832,464.232C275.301,463.701 276.516,456.212 278.802,445.917L282.671,428.5L285.586,428.585C287.189,428.631 292.55,429.888 297.5,431.377C327.618,440.439 360.138,442.979 388.5,438.485C418.929,433.664 435.122,420.648 436.703,399.739C438.204,379.893 427.764,363.759 404.559,350.067C398.563,346.529 381.727,338.087 367.145,331.307C337.968,317.74 329.676,313.42 317,305.18C307.008,298.685 293.874,285.758 289.179,277.799C281.822,265.326 278.376,249.822 279.335,233.5C281.555,195.684 305.699,170.009 348,160.478C358.169,158.186 400.912,157.303 421.282,158.964C436.564,160.21 453.572,163.172 455.286,164.886C455.926,165.526 455.351,171.777 453.633,182.887C452.185,192.249 451,200.38 451,200.955C451,202.426 447.348,202.236 441.5,200.459C416.098,192.743 371.534,189.528 350.5,193.895C333.748,197.373 324.292,203.598 318.792,214.771C315.767,220.917 315.5,222.23 315.5,231C315.5,239.751 315.77,241.091 318.762,247.167C325.501,260.857 337.865,268.963 381,287.973C433.781,311.233 457.587,329.95 468.475,356.745C475.442,373.892 475.888,399.564 469.548,418.453C461.101,443.616 440.418,460.453 407.5,468.966C389.584,473.599 357.532,475.698 331,473.975ZM743.5,471.575C728.878,468.672 718.226,463.187 708.398,453.5C696.856,442.123 692.5,430.52 692.632,411.5C692.756,393.724 697.372,380.092 707.465,367.702C726.143,344.772 758.686,333.825 816.051,331.175C825.704,330.729 834.141,330.031 834.801,329.623C836.562,328.535 836.317,308.969 834.442,301.014C829.991,282.129 817.428,273.904 788.603,271C770.319,269.158 734.263,272.191 711.964,277.447C702.093,279.773 702.621,280.189 703.444,270.75C703.839,266.213 704.689,258.9 705.331,254.5L706.5,246.5L713.5,244.733C723.944,242.096 741.101,239.193 753.5,237.965C771.394,236.192 802.958,236.419 813.5,238.396C840.551,243.469 857.807,254.175 866.309,271.161C874.259,287.043 875.642,299.731 874.112,342.733C872.139,398.166 872.818,424.074 876.988,452.5C878.037,459.65 878.55,465.846 878.129,466.268C877.709,466.69 869.423,467.323 859.717,467.674L842.069,468.312L841.011,465.529C840.429,463.999 839.671,459.413 839.327,455.34C838.983,451.266 838.351,447.717 837.923,447.452C837.494,447.188 834.168,449.224 830.53,451.977C823.786,457.082 811.254,463.595 802.802,466.388C786.662,471.722 757.213,474.298 743.5,471.575ZM804.5,436.582C815.082,433.899 828.454,427.752 833.57,423.22L836.639,420.5L836.07,389.5L835.5,358.5L818.897,358.646C764.857,359.121 736.446,373.198 732.104,401.649C730.354,413.121 732.459,421.288 738.995,428.379C743.413,433.172 749.863,436.398 759.405,438.587C769.018,440.793 791.907,439.775 804.5,436.582ZM487.566,466.107C487.249,465.595 487.653,450.623 488.463,432.837C492.446,345.38 491.4,310.341 483.367,262.146C481.524,251.091 481.112,246.488 481.894,245.706C483.183,244.417 521.207,238.874 522.146,239.837C522.501,240.202 523.538,245.225 524.45,251C526.813,265.961 527.05,267 528.106,267C528.627,267 531.922,264.638 535.428,261.75C547.655,251.679 564.064,243.111 578.077,239.48C593.285,235.539 617.912,235.759 634.5,239.983C653.728,244.88 668.782,255.667 675.509,269.368C677.434,273.291 680.02,280.325 681.255,285C683.499,293.496 683.5,293.544 683.5,380L683.5,466.5L663.071,466.771C651.835,466.92 642.286,466.686 641.851,466.251C641.416,465.816 641.698,456.69 642.478,445.97C646.335,392.975 646.936,319.238 643.617,306.24C640.365,293.506 632.35,282.335 622.994,277.497C608.388,269.944 587.457,268.431 567.5,273.485C559.054,275.625 542.603,283.976 535.5,289.729L529.5,294.59L529.5,466.5L508.821,466.77C496.791,466.927 487.902,466.65 487.566,466.107ZM1114.49,465.135C1105.26,460.943 1101.33,452.066 1102.19,437.339C1103.31,417.875 1117.42,403.435 1136.5,402.223C1146.11,401.612 1151.53,403.265 1156.63,408.368C1161.95,413.683 1163.34,418.683 1162.82,430.602C1162.48,438.345 1161.94,440.672 1159.23,446.191C1155.08,454.613 1147.38,461.967 1139.69,464.844C1132.21,467.64 1120.31,467.778 1114.49,465.135ZM1135.71,340.292C1134.58,338.322 1133.95,230.764 1134.99,217C1137.16,188.492 1141.74,173.255 1150.96,163.845C1158.92,155.713 1167.31,153.843 1176.03,158.25C1183.9,162.228 1187,169.766 1187,184.957C1187,211.993 1173.43,271.244 1153.31,332L1150.5,340.5L1143.34,340.792C1139.39,340.953 1135.96,340.728 1135.71,340.292Z" style="fill:rgb(73,106,213);"/>
        </g>
    </g>
</svg>
