<?xml version="1.0" encoding="UTF-8" standalone="no"?>
<!DOCTYPE svg PUBLIC "-//W3C//DTD SVG 1.1//EN" "http://www.w3.org/Graphics/SVG/1.1/DTD/svg11.dtd">
<svg width="100%" height="100%" viewBox="0 0 1124 1077" version="1.1" xmlns="http://www.w3.org/2000/svg" xmlns:xlink="http://www.w3.org/1999/xlink" xml:space="preserve" xmlns:serif="http://www.serif.com/" style="fill-rule:evenodd;clip-rule:evenodd;stroke-linejoin:round;stroke-miterlimit:1.41421;">
    <g transform="matrix(0.575588,0,0,0.575588,-310.235,-177.969)">
        <g opacity="0.08">
            <g transform="matrix(3.24363,0,0,3.45825,548.535,517.485)">
                <path d="M353.004,480.429L349.7,480.429L349.356,477.826L345.432,477.826L345.432,464.155L359.102,464.155L359.102,477.826L352.656,477.826L353.004,480.429ZM321.814,480.429L316.353,480.429L326.064,473.144L326.064,464.155L339.737,464.155L339.737,477.826L326.064,477.826L326.064,477.241L321.814,480.429ZM248.576,480.429L244.73,480.429L246.123,478.161L245.258,478.161L245.258,464.489L258.931,464.489L258.931,478.161L249.971,478.161L248.576,480.429ZM216.452,480.429L211.041,480.429L203.057,474.355L132.952,475.353L121.784,467.164L121.784,469.478L108.113,469.478L108.113,455.808L121.784,455.808L121.784,463.102L134.004,472.065L204.142,471.065L216.452,480.429ZM82.322,480.429L78.173,480.429L88.318,467.389L88.318,455.808L101.99,455.808L101.99,469.478L90.837,469.478L82.322,480.429ZM62.664,480.429L58.593,480.429L68.523,466.996L68.523,455.808L82.194,455.808L82.194,469.478L70.759,469.478L62.664,480.429ZM-2.943,476.916L-2.943,473.64L43.947,474.069L48.725,468.898L48.725,455.808L62.397,455.808L62.397,469.478L52.641,469.478L45.37,477.355L-2.943,476.916ZM-2.943,449.229L-2.943,444.51L5.899,435.344L122.519,435.344L149.901,449.369L225.889,449.369L225.889,445.789L239.562,445.789L239.562,459.459L225.889,459.459L225.889,452.645L149.113,452.645L121.732,438.616L7.29,438.616L-2.943,449.229ZM-2.943,423.256L-2.943,419.984L32.95,419.984L32.402,402.696L28.928,402.696L28.928,389.025L42.602,389.025L42.602,402.696L35.679,402.696L36.332,423.256L-2.943,423.256ZM-2.943,413.842L-2.943,410.57L12.617,410.629L12.288,380.247L104.257,380.247L117.037,388.875L116.934,389.025L121.784,389.025L121.784,402.696L108.113,402.696L108.113,389.025L111.406,389.025L103.258,383.521L15.593,383.521L15.928,413.914L-2.943,413.842ZM-2.943,371.499L-2.943,368.227L108.113,368.227L108.113,363.313L121.784,363.313L121.784,376.986L108.113,376.986L108.113,371.499L-2.943,371.499ZM-2.943,363.047L-2.943,359.771L72.181,360.207L88.318,336.773L88.318,325.58L101.99,325.58L101.99,339.253L90.579,339.253L73.894,363.491L-2.943,363.047ZM-2.943,355.42L-2.943,352.145L56.593,351.866L68.523,337.952L68.523,325.58L82.194,325.58L82.194,339.253L71.716,339.253L58.102,355.134L-2.943,355.42ZM-2.943,347.648L-2.943,344.372L44.215,344.515L48.725,338.984L48.725,325.58L62.397,325.58L62.397,339.253L52.727,339.253L45.766,347.793L-2.943,347.648ZM-2.943,325.083L-2.943,321.118L16.101,308.122L116.816,307.785L202.414,348.739L226.635,364.984L239.562,364.984L239.562,378.656L225.889,378.656L225.889,368.425L200.781,351.584L116.082,311.063L17.119,311.392L-2.943,325.083ZM-2.943,293.604L-2.943,290.328L32.028,290.418L32.304,273.137L26.925,273.137L26.925,259.466L40.596,259.466L40.596,273.137L35.578,273.137L35.248,293.703L-2.943,293.604ZM-2.943,283.614L-2.943,280.338L12.985,280.397L13.321,250.366L115.914,249.683L123.587,259.686L135.065,259.431L135.065,255.459L148.739,255.459L148.739,269.132L135.065,269.132L135.065,262.704L121.999,262.997L114.312,252.965L16.557,253.615L16.225,283.686L-2.943,283.614ZM-2.943,242.76L-2.943,239.488L131.724,239.668L131.724,235.423L145.4,235.423L145.4,249.097L131.724,249.097L131.724,242.941L-2.943,242.76ZM-2.943,232.967L-2.943,229.693L71.235,229.98L87.867,208.36L86.315,208.36L86.315,194.686L99.987,194.686L99.987,208.36L92,208.36L72.837,233.264L-2.943,232.967ZM-2.943,225.106L-2.943,221.83L56.533,221.969L66.808,208.36L66.516,208.36L66.516,194.686L80.191,194.686L80.191,208.36L70.904,208.36L58.157,225.248L-2.943,225.106ZM-2.943,217.847L-2.943,214.573L42.849,214.292L47.4,208.36L46.721,208.36L46.721,194.686L60.393,194.686L60.393,208.36L51.521,208.36L44.466,217.558L-2.943,217.847ZM33.76,198.898C35.211,198.898 36.385,200.072 36.385,201.521C36.385,202.973 35.211,204.148 33.759,204.148C32.311,204.148 31.134,202.973 31.134,201.521C31.135,200.072 32.311,198.898 33.76,198.898M53.556,198.898C55.006,198.898 56.182,200.072 56.182,201.521C56.182,202.973 55.006,204.148 53.556,204.148C52.107,204.148 50.932,202.973 50.932,201.521C50.932,200.072 52.107,198.898 53.556,198.898M73.353,198.898C74.805,198.898 75.98,200.072 75.98,201.521C75.98,202.973 74.804,204.148 73.353,204.148C71.902,204.148 70.726,202.973 70.726,201.521C70.726,200.072 71.902,198.898 73.353,198.898M93.15,198.898C94.601,198.898 95.775,200.072 95.775,201.521C95.775,202.973 94.6,204.148 93.15,204.148C91.698,204.148 90.522,202.973 90.522,201.521C90.522,200.072 91.698,198.898 93.15,198.898M35.763,460.016C37.214,460.016 38.39,461.191 38.39,462.643C38.391,464.092 37.214,465.267 35.763,465.267C34.314,465.267 33.137,464.092 33.137,462.643C33.137,461.191 34.314,460.016 35.763,460.016M55.56,460.016C57.01,460.016 58.188,461.191 58.188,462.643C58.188,464.092 57.01,465.267 55.56,465.267C54.109,465.267 52.935,464.092 52.935,462.643C52.935,461.191 54.109,460.016 55.56,460.016M75.356,460.016C76.807,460.016 77.984,461.191 77.984,462.643C77.984,464.092 76.807,465.267 75.355,465.267C73.906,465.267 72.729,464.092 72.729,462.643C72.729,461.191 73.904,460.016 75.356,460.016M95.153,460.016C96.603,460.016 97.779,461.191 97.779,462.643C97.78,464.092 96.603,465.267 95.153,465.267C93.705,465.267 92.528,464.092 92.528,462.643C92.528,461.191 93.702,460.016 95.153,460.016M114.949,460.016C116.399,460.016 117.574,461.191 117.574,462.643C117.575,464.092 116.399,465.267 114.948,465.267C113.5,465.267 112.322,464.092 112.322,462.643C112.324,461.191 113.499,460.016 114.949,460.016M35.763,393.235C37.214,393.235 38.39,394.409 38.39,395.86C38.391,397.312 37.214,398.485 35.763,398.485C34.314,398.485 33.137,397.312 33.137,395.86C33.137,394.409 34.314,393.235 35.763,393.235M55.56,393.235C57.01,393.235 58.188,394.409 58.188,395.86C58.188,397.312 57.01,398.485 55.56,398.485C54.109,398.485 52.935,397.312 52.935,395.86C52.935,394.409 54.109,393.235 55.56,393.235M75.356,393.235C76.807,393.235 77.984,394.409 77.984,395.86C77.984,397.312 76.807,398.485 75.355,398.485C73.906,398.485 72.729,397.312 72.729,395.86C72.729,394.409 73.904,393.235 75.356,393.235M95.153,393.235C96.603,393.235 97.779,394.409 97.779,395.86C97.78,397.312 96.603,398.485 95.153,398.485C93.705,398.485 92.528,397.312 92.528,395.86C92.528,394.409 93.702,393.235 95.153,393.235M114.949,393.235C116.399,393.235 117.574,394.409 117.574,395.86C117.575,397.312 116.399,398.485 114.948,398.485C113.5,398.485 112.322,397.312 112.322,395.86C112.324,394.409 113.499,393.235 114.949,393.235M35.763,329.792C37.214,329.792 38.39,330.967 38.39,332.417C38.391,333.867 37.214,335.044 35.763,335.044C34.314,335.044 33.137,333.867 33.137,332.417C33.137,330.967 34.314,329.792 35.763,329.792M55.56,329.792C57.01,329.792 58.188,330.967 58.188,332.417C58.188,333.867 57.01,335.044 55.56,335.044C54.109,335.044 52.935,333.867 52.935,332.417C52.935,330.967 54.109,329.792 55.56,329.792M75.356,329.792C76.807,329.792 77.984,330.967 77.984,332.417C77.984,333.867 76.807,335.044 75.355,335.044C73.906,335.044 72.729,333.867 72.729,332.417C72.729,330.967 73.904,329.792 75.356,329.792M95.153,329.792C96.603,329.792 97.779,330.967 97.779,332.417C97.78,333.867 96.603,335.044 95.153,335.044C93.705,335.044 92.528,333.867 92.528,332.417C92.528,330.967 93.702,329.792 95.153,329.792M33.76,263.675C35.211,263.675 36.385,264.852 36.385,266.301C36.385,267.753 35.211,268.928 33.759,268.928C32.311,268.928 31.134,267.753 31.134,266.301C31.135,264.852 32.311,263.676 33.76,263.675M53.556,263.675C55.006,263.675 56.182,264.852 56.182,266.301C56.182,267.753 55.006,268.928 53.556,268.928C52.107,268.928 50.932,267.753 50.932,266.301C50.932,264.852 52.107,263.676 53.556,263.675M73.353,263.675C74.805,263.675 75.98,264.852 75.98,266.301C75.98,267.753 74.804,268.928 73.353,268.928C71.902,268.928 70.726,267.753 70.726,266.301C70.726,264.852 71.902,263.676 73.353,263.675M93.15,263.675C94.601,263.675 95.775,264.852 95.775,266.301C95.775,267.753 94.6,268.928 93.15,268.928C91.698,268.928 90.522,267.753 90.522,266.301C90.522,264.852 91.698,263.676 93.15,263.675M138.561,239.633C140.013,239.633 141.19,240.811 141.19,242.26C141.191,243.712 140.013,244.886 138.56,244.886C137.112,244.886 135.934,243.712 135.934,242.26C135.935,240.809 137.111,239.634 138.561,239.633M141.902,259.669C143.352,259.669 144.527,260.845 144.527,262.295C144.527,263.746 143.351,264.921 141.902,264.921C140.45,264.921 139.273,263.746 139.273,262.295C139.273,260.845 140.449,259.669 141.902,259.669M203.342,239.633C204.792,239.633 205.967,240.811 205.967,242.26C205.967,243.712 204.792,244.886 203.341,244.886C201.889,244.886 200.717,243.712 200.717,242.26C200.717,240.809 201.889,239.634 203.342,239.633M214.025,259.669C215.477,259.669 216.654,260.845 216.654,262.295C216.654,263.746 215.477,264.921 214.025,264.921C212.574,264.921 211.4,263.746 211.4,262.295C211.4,260.845 212.574,259.669 214.025,259.669M232.726,309.757C234.175,309.757 235.351,310.932 235.351,312.382C235.352,313.832 234.175,315.008 232.725,315.008C231.275,315.008 230.098,313.832 230.098,312.382C230.098,310.932 231.275,309.757 232.726,309.757M252.093,309.757C253.544,309.757 254.719,310.932 254.719,312.382C254.719,313.832 253.544,315.008 252.093,315.008C250.641,315.008 249.468,313.832 249.468,312.382C249.468,310.932 250.64,309.757 252.093,309.757M232.726,369.191C234.175,369.191 235.351,370.368 235.351,371.82C235.352,373.272 234.175,374.447 232.725,374.447C231.275,374.447 230.098,373.272 230.098,371.82C230.098,370.368 231.275,369.191 232.726,369.191M252.093,369.191C253.544,369.191 254.719,370.368 254.719,371.82C254.719,373.272 253.544,374.447 252.093,374.447C250.641,374.447 249.468,373.272 249.468,371.82C249.468,370.368 250.64,369.191 252.093,369.191M232.726,389.896C234.175,389.896 235.351,391.071 235.351,392.523C235.352,393.969 234.175,395.147 232.725,395.147C231.275,395.147 230.098,393.969 230.098,392.523C230.098,391.071 231.275,389.896 232.726,389.896M252.093,389.896C253.544,389.896 254.719,391.071 254.719,392.523C254.719,393.969 253.544,395.147 252.093,395.147C250.641,395.147 249.468,393.969 249.468,392.523C249.468,391.071 250.64,389.896 252.093,389.896M232.726,450.001C234.175,450.001 235.351,451.176 235.351,452.624C235.352,454.076 234.175,455.251 232.725,455.251C231.275,455.251 230.098,454.076 230.098,452.624C230.098,451.176 231.275,450.001 232.726,450.001M252.093,450.001C253.544,450.001 254.719,451.176 254.719,452.624C254.719,454.076 253.544,455.251 252.093,455.251C250.641,455.251 249.468,454.076 249.468,452.624C249.468,451.176 250.64,450.001 252.093,450.001M232.726,468.698C234.175,468.698 235.351,469.876 235.351,471.325C235.352,472.774 234.175,473.952 232.725,473.952C231.275,473.952 230.098,472.774 230.098,471.325C230.098,469.876 231.275,468.698 232.726,468.698M252.093,468.698C253.544,468.698 254.719,469.876 254.719,471.325C254.719,472.774 253.544,473.952 252.093,473.952C250.641,473.952 249.468,472.774 249.468,471.325C249.468,469.876 250.64,468.698 252.093,468.698M216.23,462.994L149.127,463.328L121.727,449.63L45.898,448.645L41.473,455.808L42.602,455.808L42.602,469.478L28.928,469.478L28.928,455.808L37.627,455.808L44.085,445.351L122.522,446.366L149.893,460.048L217.01,459.716L226.292,464.489L239.562,464.489L239.562,478.161L225.889,478.161L225.889,467.959L216.23,462.994ZM206.08,379.442L196.086,361.116L105.073,320.407L45.47,319.754L41.099,325.58L42.602,325.58L42.602,339.253L28.928,339.253L28.928,325.58L37.008,325.58L43.847,316.46L105.791,317.144L198.428,358.575L208.468,376.981L225.889,385.825L225.889,385.685L239.562,385.685L239.562,399.355L225.889,399.355L225.889,389.496L206.08,379.442ZM245.881,359.871L233.264,360.5L128.059,302.05L82.981,302.724L57.626,273.137L46.721,273.137L46.721,259.466L60.393,259.466L60.393,271.337L84.467,299.428L128.883,298.763L234.036,357.185L248.139,356.479L251.204,364.984L258.931,364.984L258.931,378.656L245.258,378.656L245.258,364.984L247.721,364.984L245.881,359.871ZM251.468,292.275L220.608,269.132L207.192,269.132L207.192,255.459L220.864,255.459L220.864,265.23L254.573,290.509L256.175,305.547L258.931,305.547L258.931,319.218L245.258,319.218L245.258,305.547L252.881,305.547L251.468,292.275ZM245.698,439.619L149.205,439.951L121.835,429.278L79.28,430.283L57.209,402.696L48.725,402.696L48.725,389.025L62.397,389.025L62.397,402.696L61.4,402.696L80.826,426.976L122.414,425.983L149.812,436.679L247.654,436.339L252.72,445.789L258.931,445.789L258.931,459.459L245.258,459.459L245.258,445.789L249.002,445.789L245.698,439.619ZM332.9,468.364C334.351,468.364 335.528,469.542 335.528,470.992C335.528,472.44 334.351,473.618 332.9,473.618C331.449,473.618 330.274,472.44 330.274,470.992C330.274,469.542 331.449,468.364 332.9,468.364M352.268,468.364C353.717,468.364 354.894,469.542 354.894,470.992C354.894,472.44 353.717,473.618 352.268,473.618C350.819,473.618 349.643,472.44 349.643,470.992C349.643,469.542 350.819,468.364 352.268,468.364M326.064,444.787L339.737,444.787L339.737,458.461L326.064,458.461L326.064,444.787ZM332.9,448.999C334.351,448.999 335.528,450.175 335.528,451.623C335.528,453.076 334.351,454.25 332.9,454.25C331.449,454.25 330.274,453.076 330.274,451.623C330.274,450.175 331.449,448.999 332.9,448.999M345.432,444.787L350.834,444.787L350.603,441.065L339.526,430.605L155.151,431.603L127.121,418.259L84.725,419.616L76.423,402.696L68.523,402.696L68.523,389.025L82.194,389.025L82.194,402.696L80.072,402.696L86.733,416.28L127.812,414.962L155.881,428.326L340.822,427.325L353.785,439.57L354.11,444.787L359.102,444.787L359.102,458.461L345.432,458.461L345.432,444.787ZM352.268,448.999C353.717,448.999 354.894,450.175 354.894,451.623C354.894,453.076 353.717,454.25 352.268,454.25C350.819,454.25 349.643,453.076 349.643,451.623C349.643,450.175 350.819,448.999 352.268,448.999M114.949,367.522C116.399,367.522 117.574,368.7 117.574,370.149C117.575,371.601 116.399,372.776 114.948,372.776C113.5,372.776 112.322,371.601 112.322,370.149C112.324,368.699 113.499,367.522 114.949,367.522M185.407,367.522C186.855,367.522 188.031,368.7 188.031,370.149C188.031,371.601 186.855,372.776 185.405,372.776C183.955,372.776 182.779,371.601 182.779,370.149C182.779,368.699 183.955,367.522 185.407,367.522M182.241,388.356L195.914,388.356L195.914,397.004L205.76,403.297L243.481,403.942L246.592,399.355L245.258,399.355L245.258,385.685L258.931,385.685L258.931,399.355L250.548,399.355L245.194,407.241L204.777,406.551L195.914,400.892L195.914,402.029L182.241,402.029L182.241,388.356ZM189.077,392.565C190.531,392.565 191.703,393.745 191.703,395.191C191.704,396.643 190.531,397.817 189.077,397.817C187.629,397.817 186.452,396.643 186.452,395.191C186.452,393.742 187.629,392.565 189.077,392.565M125.372,190.177L45.735,189.523L40.596,195.431L40.596,208.36L26.925,208.36L26.925,194.686L37.313,194.686L37.082,194.486L44.251,186.238L126.892,186.918L228.479,305.547L239.562,305.547L239.562,319.218L225.889,319.218L225.889,307.556L125.372,190.177ZM331.964,309.622C333.414,309.622 334.591,310.797 334.591,312.248C334.591,313.698 333.414,314.873 331.964,314.873C330.516,314.873 329.338,313.698 329.338,312.248C329.338,310.797 330.516,309.622 331.964,309.622M325.129,305.413L338.8,305.413L338.8,319.083L333.528,319.083L333.829,325.095L324.487,334.435L283.023,334.435L270.402,320.735L270.743,303.056L262.978,284.288L233.403,253.402L210.178,245.086L210.178,249.097L196.506,249.097L196.506,235.423L210.178,235.423L210.178,241.609L235.233,250.581L265.766,282.466L274.031,302.437L273.703,319.483L284.457,331.161L323.135,331.161L330.484,323.808L330.25,319.083L325.129,319.083L325.129,305.413ZM351.14,309.622C352.589,309.622 353.764,310.797 353.764,312.248C353.764,313.698 352.589,314.873 351.14,314.873C349.689,314.873 348.512,313.698 348.512,312.248C348.512,310.797 349.689,309.622 351.14,309.622M344.304,305.413L357.976,305.413L357.976,319.083L353.404,319.083L354.233,327.36L338.539,344.126L244.539,343.112L142.724,281.355L101.936,282.365L95.259,273.137L86.315,273.137L86.315,259.466L99.987,259.466L99.987,273.137L99.297,273.137L103.577,279.051L143.605,278.056L245.47,339.851L337.132,340.839L350.824,326.21L350.113,319.083L344.304,319.083L344.304,305.413ZM331.964,389.091C333.414,389.091 334.591,390.269 334.591,391.716C334.591,393.166 333.414,394.347 331.964,394.347C330.516,394.347 329.338,393.166 329.338,391.716C329.338,390.269 330.516,389.091 331.964,389.091M325.129,384.88L338.8,384.88L338.8,398.555L326.217,398.555L307.394,414.904L182.665,415.576L170.577,406.051L170.577,380.891L178.569,372.582L178.569,363.313L192.242,363.313L192.242,376.986L178.87,376.986L173.848,382.21L173.848,404.463L183.797,412.298L306.165,411.64L325.129,395.164L325.129,384.88ZM351.14,389.091C352.589,389.091 353.764,390.269 353.764,391.716C353.764,393.166 352.589,394.347 351.14,394.347C349.689,394.347 348.512,393.166 348.512,391.716C348.512,390.269 349.689,389.091 351.14,389.091M344.304,384.88L357.976,384.88L357.976,398.555L352.766,398.555L352.466,406.35L335.786,421.256L155.848,420.919L129.167,409.577L102.811,410.604L98.474,402.696L88.318,402.696L88.318,389.025L101.99,389.025L101.99,402.296L104.709,407.255L129.772,406.278L156.515,417.646L334.542,417.977L349.249,404.834L349.492,398.555L344.304,398.555L344.304,384.88ZM351.14,368.391C352.589,368.391 353.764,369.566 353.764,371.015C353.764,372.467 352.589,373.643 351.14,373.643C349.689,373.643 348.512,372.467 348.512,371.015C348.512,369.566 349.689,368.391 351.14,368.391M344.304,364.178L350.131,364.178L349.906,356.503L346.139,352.471L242.566,352.799L135.377,291.689L87.112,291.352L76.66,273.137L66.516,273.137L66.516,259.466L80.191,259.466L80.191,272.707L89.018,288.094L136.256,288.424L243.435,349.525L347.556,349.191L353.144,355.173L353.407,364.178L357.976,364.178L357.976,377.853L344.304,377.853L344.304,364.178Z" style="fill:rgb(8,155,171);"/>
            </g>
            <g transform="matrix(3.24363,0,0,3.45825,548.535,517.485)">
                <path d="M110.713,214.718L124.388,214.718L124.388,228.391L110.713,228.391L110.713,214.718ZM117.549,218.929C119.003,218.929 120.177,220.105 120.177,221.554C120.177,223.004 119.003,224.18 117.549,224.18C116.1,224.18 114.923,223.004 114.923,221.554C114.924,220.105 116.1,218.929 117.549,218.929" style="fill:rgb(8,155,171);"/>
            </g>
            <g transform="matrix(3.24363,0,0,3.45825,548.535,517.485)">
                <path d="M292.894,368.48L289.19,368.126L281.001,376.107L280.904,391.066C284.727,391.631 287.576,395.014 287.39,398.957C287.191,403.157 283.626,406.399 279.427,406.203C275.227,406.002 271.983,402.435 272.183,398.24C272.301,395.7 273.653,393.513 275.629,392.22L275.834,373.832L287.274,362.681L293.143,363.242L293.363,358.587L307.019,359.233L306.373,372.891L292.715,372.245L292.894,368.48ZM276.847,398.459C276.923,396.834 278.302,395.579 279.926,395.659C281.549,395.734 282.803,397.112 282.727,398.738C282.65,400.356 281.272,401.614 279.646,401.537C278.023,401.462 276.769,400.083 276.847,398.459M297.245,365.615C297.313,364.167 298.543,363.047 299.992,363.116C301.442,363.185 302.561,364.416 302.492,365.865C302.422,367.313 301.193,368.431 299.743,368.363C298.293,368.294 297.175,367.065 297.245,365.615" style="fill:rgb(8,155,171);"/>
            </g>
            <g transform="matrix(3.24363,0,0,3.45825,548.535,517.485)">
                <path d="M140.099,350.955L153.773,350.955L153.773,364.628L140.099,364.628L140.099,350.955ZM146.934,355.164C148.388,355.164 149.563,356.342 149.563,357.792C149.563,359.242 148.388,360.417 146.934,360.417C145.484,360.417 144.308,359.242 144.308,357.792C144.308,356.342 145.484,355.166 146.934,355.164" style="fill:rgb(8,155,171);"/>
            </g>
            <g transform="matrix(3.24363,0,0,3.45825,548.535,517.485)">
                <path d="M140.099,390.024L153.773,390.024L153.773,403.7L140.099,403.7L140.099,390.024ZM146.934,394.236C148.388,394.236 149.563,395.413 149.563,396.862C149.563,398.31 148.388,399.487 146.934,399.487C145.484,399.487 144.308,398.31 144.308,396.862C144.308,395.413 145.484,394.236 146.934,394.236" style="fill:rgb(8,155,171);"/>
            </g>
            <g transform="matrix(3.24363,0,0,3.45825,548.535,517.485)">
                <path d="M407.009,198.898C408.455,198.898 409.633,200.072 409.633,201.522C409.633,202.973 408.455,204.148 407.009,204.148C405.557,204.148 404.381,202.973 404.381,201.522C404.381,200.072 405.557,198.898 407.009,198.898M419.97,194.687L433.637,194.687L433.637,208.36L419.97,208.36L419.97,194.687ZM598.7,214.573L598.7,217.847L534.86,218.236L528.824,208.36L518.949,208.36L518.949,194.687L532.62,194.687L532.62,208.296L536.693,214.952L598.7,214.573ZM598.7,221.831L598.7,225.106L515.401,224.909L506.979,208.36L499.152,208.36L499.152,194.687L512.826,194.687L512.826,208.36L510.653,208.36L517.409,221.641L598.7,221.831ZM598.7,229.693L598.7,232.967L501.387,232.588L488.78,208.36L479.356,208.36L479.356,194.687L493.03,194.687L493.03,208.36L492.469,208.36L503.382,229.322L598.7,229.693ZM598.7,239.488L598.7,242.76L484.659,242.607L468.194,208.36L459.562,208.36L459.562,194.687L473.232,194.687L473.232,208.36L471.826,208.36L486.722,239.335L598.7,239.488ZM598.7,280.338L598.7,283.614L524.863,283.338L524.203,269.132L518.949,269.132L518.949,255.46L532.62,255.46L532.62,269.132L527.483,269.132L527.988,280.076L598.7,280.338ZM598.7,290.329L598.7,293.604L504.442,293.363L504.124,269.132L499.152,269.132L499.152,255.46L512.826,255.46L512.826,269.132L507.395,269.132L507.669,290.095L598.7,290.329ZM598.7,321.119L598.7,325.084L593.338,328.744C593.792,329.717 594.042,330.799 594.042,331.945C594.042,336.146 590.633,339.553 586.43,339.553C582.228,339.553 578.82,336.146 578.82,331.945C578.82,327.74 582.228,324.331 586.43,324.329C588.305,324.329 590.023,325.012 591.351,326.138L598.7,321.119ZM598.7,344.373L598.7,347.648L535.305,347.459L528.955,339.253L518.949,339.253L518.949,325.581L532.62,325.581L532.62,338.642L536.916,344.186L598.7,344.373ZM598.7,352.145L598.7,355.42L515.401,355.81L507.123,339.253L499.152,339.253L499.152,325.581L512.826,325.581L512.826,339.253L510.78,339.253L517.42,352.529L598.7,352.145ZM598.7,359.771L598.7,363.047L500.011,362.48L489.028,339.253L479.356,339.253L479.356,325.581L493.03,325.581L493.03,339.253L492.648,339.253L502.091,359.215L598.7,359.771ZM598.7,368.227L598.7,371.5L483.343,371.5L467.223,339.253L459.562,339.253L459.562,325.581L473.232,325.581L473.232,339.253L470.878,339.253L485.366,368.227L598.7,368.227ZM598.7,410.57L598.7,413.842L525.16,413.567L524.865,400.026L518.949,400.026L518.949,386.352L532.62,386.352L532.62,400.026L528.139,400.026L528.363,410.304L598.7,410.57ZM598.7,419.984L598.7,423.256L504.707,423.256L505.357,400.026L499.152,400.026L499.152,386.352L512.826,386.352L512.826,400.026L508.632,400.026L508.077,419.984L598.7,419.984ZM598.7,444.51L598.7,449.229L592.865,455.279C593.815,456.548 594.375,458.125 594.375,459.829C594.375,464.036 590.967,467.442 586.764,467.442C582.56,467.442 579.152,464.036 579.152,459.829C579.152,455.627 582.56,452.22 586.764,452.22C588.075,452.22 589.308,452.551 590.385,453.134L598.7,444.51ZM598.7,473.64L598.7,476.917L535.263,476.341L529.884,468.813L518.949,468.813L518.949,455.142L532.62,455.142L532.62,467.007L536.962,473.081L598.7,473.64ZM517.354,480.429L513.748,480.429L508.371,468.813L499.152,468.813L499.152,455.142L512.826,455.142L512.826,468.813L511.975,468.813L517.354,480.429ZM498.624,480.429L494.86,480.429L488.288,468.813L479.356,468.813L479.356,455.142L493.03,455.142L493.03,468.813L492.049,468.813L498.624,480.429ZM477.98,480.429L474.371,480.429L468.972,468.813L459.562,468.813L459.562,455.142L473.232,455.142L473.232,468.813L472.581,468.813L477.98,480.429ZM394.682,480.429L389.995,480.429C389.78,479.01 388.56,477.923 387.082,477.923C385.606,477.923 384.385,479.01 384.174,480.429L379.484,480.429C379.713,476.428 383.029,473.257 387.082,473.257C391.139,473.257 394.455,476.429 394.682,480.429M426.801,198.898C428.254,198.898 429.43,200.072 429.43,201.522C429.43,202.973 428.254,204.148 426.801,204.148C425.355,204.148 424.178,202.973 424.178,201.522C424.178,200.072 425.355,198.898 426.801,198.898M439.763,194.687L453.438,194.687L453.438,208.36L439.763,208.36L439.763,194.687ZM446.601,198.898C448.052,198.898 449.227,200.072 449.227,201.522C449.227,202.973 448.052,204.148 446.601,204.148C445.149,204.148 443.975,202.973 443.975,201.522C443.975,200.072 445.149,198.898 446.601,198.898M466.395,198.898C467.845,198.898 469.023,200.072 469.023,201.522C469.023,202.973 467.845,204.148 466.395,204.148C464.945,204.148 463.77,202.973 463.77,201.522C463.77,200.072 464.945,198.898 466.395,198.898M486.195,198.898C487.644,198.898 488.821,200.072 488.821,201.522C488.821,202.973 487.644,204.148 486.195,204.148C484.74,204.148 483.565,202.973 483.565,201.522C483.565,200.072 484.74,198.898 486.195,198.898M505.989,198.898C507.441,198.898 508.614,200.072 508.614,201.522C508.614,202.973 507.437,204.148 505.989,204.148C504.539,204.148 503.364,202.973 503.364,201.522C503.364,200.072 504.539,198.898 505.989,198.898M525.785,198.898C527.235,198.898 528.411,200.072 528.411,201.522C528.411,202.973 527.235,204.148 525.784,204.148C524.333,204.148 523.157,202.973 523.157,201.522C523.157,200.072 524.333,198.898 525.785,198.898M545.584,198.898C547.031,198.898 548.209,200.072 548.209,201.522C548.209,202.973 547.031,204.148 545.584,204.148C544.131,204.148 542.955,202.973 542.955,201.522C542.955,200.072 544.131,198.898 545.584,198.898M407.009,259.669C408.455,259.669 409.633,260.845 409.633,262.295C409.633,263.747 408.455,264.921 407.009,264.921C405.557,264.921 404.381,263.747 404.381,262.295C404.381,260.845 405.557,259.669 407.009,259.669M426.801,259.669C428.254,259.669 429.43,260.845 429.43,262.295C429.43,263.747 428.254,264.921 426.801,264.921C425.355,264.921 424.178,263.747 424.178,262.295C424.178,260.845 425.355,259.669 426.801,259.669M446.601,259.669C448.052,259.669 449.227,260.845 449.227,262.295C449.227,263.747 448.052,264.921 446.601,264.921C445.149,264.921 443.975,263.747 443.975,262.295C443.975,260.845 445.149,259.669 446.601,259.669M466.395,259.669C467.845,259.669 469.023,260.845 469.023,262.295C469.023,263.747 467.845,264.921 466.395,264.921C464.945,264.921 463.77,263.747 463.77,262.295C463.77,260.845 464.945,259.669 466.395,259.669M486.195,259.669C487.644,259.669 488.821,260.845 488.821,262.295C488.821,263.747 487.644,264.921 486.195,264.921C484.74,264.921 483.565,263.747 483.565,262.295C483.565,260.845 484.74,259.669 486.195,259.669M505.989,259.669C507.441,259.669 508.614,260.845 508.614,262.295C508.614,263.747 507.437,264.921 505.989,264.921C504.539,264.921 503.364,263.747 503.364,262.295C503.364,260.845 504.539,259.669 505.989,259.669M525.785,259.669C527.235,259.669 528.411,260.845 528.411,262.295C528.411,263.747 527.235,264.921 525.784,264.921C524.333,264.921 523.157,263.747 523.157,262.295C523.157,260.845 524.333,259.669 525.785,259.669M545.584,259.669C547.031,259.669 548.209,260.845 548.209,262.295C548.209,263.747 547.031,264.921 545.584,264.921C544.131,264.921 542.955,263.747 542.955,262.295C542.955,260.845 544.131,259.669 545.584,259.669M407.009,329.793C408.455,329.793 409.633,330.967 409.633,332.418C409.633,333.868 408.455,335.044 407.009,335.044C405.557,335.044 404.381,333.868 404.381,332.418C404.381,330.967 405.557,329.793 407.009,329.793M426.801,329.793C428.254,329.793 429.43,330.967 429.43,332.418C429.43,333.868 428.254,335.044 426.801,335.044C425.355,335.044 424.178,333.868 424.178,332.418C424.178,330.967 425.355,329.793 426.801,329.793M446.601,329.793C448.052,329.793 449.227,330.967 449.227,332.418C449.227,333.868 448.052,335.044 446.601,335.044C445.149,335.044 443.975,333.868 443.975,332.418C443.975,330.967 445.149,329.793 446.601,329.793M466.395,329.793C467.845,329.793 469.023,330.967 469.023,332.418C469.023,333.868 467.845,335.044 466.395,335.044C464.945,335.044 463.77,333.868 463.77,332.418C463.77,330.967 464.945,329.793 466.395,329.793M486.195,329.793C487.644,329.793 488.821,330.967 488.821,332.418C488.821,333.868 487.644,335.044 486.195,335.044C484.74,335.044 483.565,333.868 483.565,332.418C483.565,330.967 484.74,329.793 486.195,329.793M505.989,329.793C507.441,329.793 508.614,330.967 508.614,332.418C508.614,333.868 507.437,335.044 505.989,335.044C504.539,335.044 503.364,333.868 503.364,332.418C503.364,330.967 504.539,329.793 505.989,329.793M525.785,329.793C527.235,329.793 528.411,330.967 528.411,332.418C528.411,333.868 527.235,335.044 525.784,335.044C524.333,335.044 523.157,333.868 523.157,332.418C523.157,330.967 524.333,329.793 525.785,329.793M545.584,329.793C547.031,329.793 548.209,330.967 548.209,332.418C548.209,333.868 547.031,335.044 545.584,335.044C544.131,335.044 542.955,333.868 542.955,332.418C542.955,330.967 544.131,329.793 545.584,329.793M407.009,390.563C408.455,390.563 409.633,391.742 409.633,393.191C409.633,394.64 408.455,395.816 407.009,395.816C405.557,395.816 404.381,394.64 404.381,393.191C404.381,391.742 405.557,390.563 407.009,390.563M426.801,390.563C428.254,390.563 429.43,391.742 429.43,393.191C429.43,394.64 428.254,395.816 426.801,395.816C425.355,395.816 424.178,394.64 424.178,393.191C424.178,391.742 425.355,390.563 426.801,390.563M466.395,390.563C467.845,390.563 469.023,391.742 469.023,393.191C469.023,394.64 467.845,395.816 466.395,395.816C464.945,395.816 463.77,394.64 463.77,393.191C463.77,391.742 464.945,390.563 466.395,390.563M486.195,390.563C487.644,390.563 488.821,391.742 488.821,393.191C488.821,394.64 487.644,395.816 486.195,395.816C484.74,395.816 483.565,394.64 483.565,393.191C483.565,391.742 484.74,390.563 486.195,390.563M505.989,390.563C507.441,390.563 508.614,391.742 508.614,393.191C508.614,394.64 507.437,395.816 505.989,395.816C504.539,395.816 503.364,394.64 503.364,393.191C503.364,391.742 504.539,390.563 505.989,390.563M525.785,390.563C527.235,390.563 528.411,391.742 528.411,393.191C528.411,394.64 527.235,395.816 525.784,395.816C524.333,395.816 523.157,394.64 523.157,393.191C523.157,391.742 524.333,390.563 525.785,390.563M545.584,390.563C547.031,390.563 548.209,391.742 548.209,393.191C548.209,394.64 547.031,395.816 545.584,395.816C544.131,395.816 542.955,394.64 542.955,393.191C542.955,391.742 544.131,390.563 545.584,390.563M407.009,459.347C408.455,459.347 409.633,460.525 409.633,461.976C409.633,463.425 408.455,464.602 407.009,464.602C405.557,464.602 404.381,463.425 404.381,461.976C404.381,460.525 405.557,459.347 407.009,459.347M426.801,459.347C428.254,459.347 429.43,460.525 429.43,461.976C429.43,463.425 428.254,464.602 426.801,464.602C425.355,464.602 424.178,463.425 424.178,461.976C424.178,460.525 425.355,459.347 426.801,459.347M446.601,459.347C448.052,459.347 449.227,460.525 449.227,461.976C449.227,463.425 448.052,464.602 446.601,464.602C445.149,464.602 443.975,463.425 443.975,461.976C443.975,460.525 445.149,459.347 446.601,459.347M466.395,459.347C467.845,459.347 469.023,460.525 469.023,461.976C469.023,463.425 467.845,464.602 466.395,464.602C464.945,464.602 463.77,463.425 463.77,461.976C463.77,460.525 464.945,459.347 466.395,459.347M486.195,459.347C487.644,459.347 488.821,460.525 488.821,461.976C488.821,463.425 487.644,464.602 486.195,464.602C484.74,464.602 483.565,463.425 483.565,461.976C483.565,460.525 484.74,459.347 486.195,459.347M505.989,459.347C507.441,459.347 508.614,460.525 508.614,461.976C508.614,463.425 507.437,464.602 505.989,464.602C504.539,464.602 503.364,463.425 503.364,461.976C503.364,460.525 504.539,459.347 505.989,459.347M525.785,459.347C527.235,459.347 528.411,460.525 528.411,461.976C528.411,463.425 527.235,464.602 525.784,464.602C524.333,464.602 523.157,463.425 523.157,461.976C523.157,460.525 524.333,459.347 525.785,459.347M545.584,459.347C547.031,459.347 548.209,460.525 548.209,461.976C548.209,463.425 547.031,464.602 545.584,464.602C544.131,464.602 542.955,463.425 542.955,461.976C542.955,460.525 544.131,459.347 545.584,459.347M387.082,218.807C388.708,218.807 390.025,220.126 390.025,221.752C390.025,223.376 388.708,224.697 387.082,224.697C385.456,224.694 384.14,223.376 384.14,221.752C384.14,220.126 385.456,218.807 387.082,218.807M387.082,238.841C388.708,238.841 390.025,240.161 390.025,241.786C390.025,243.41 388.708,244.729 387.082,244.729C385.456,244.729 384.14,243.412 384.14,241.786C384.14,240.161 385.456,238.842 387.082,238.841M467.224,303.622C468.848,303.622 470.167,304.939 470.167,306.565C470.167,308.19 468.848,309.508 467.224,309.508C465.6,309.508 464.279,308.19 464.279,306.565C464.28,304.939 465.6,303.622 467.224,303.622M496.272,303.622C497.899,303.622 499.216,304.939 499.216,306.565C499.216,308.19 497.899,309.508 496.272,309.508C494.649,309.508 493.328,308.19 493.328,306.565C493.328,304.939 494.649,303.622 496.272,303.622M566.062,303.622C567.686,303.622 569.004,304.939 569.004,306.565C569.004,308.19 567.686,309.508 566.062,309.508C564.436,309.508 563.118,308.19 563.118,306.565C563.118,304.939 564.436,303.622 566.062,303.622M566.062,324.322C567.686,324.322 569.004,325.643 569.004,327.268C569.004,328.892 567.686,330.211 566.062,330.211C564.436,330.211 563.118,328.892 563.118,327.268C563.118,325.643 564.436,324.324 566.062,324.322M586.43,328.999C588.056,328.999 589.373,330.319 589.373,331.941C589.373,333.568 588.056,334.886 586.43,334.886C584.805,334.886 583.487,333.568 583.487,331.941C583.487,330.319 584.805,329 586.43,328.999M586.43,258.544C588.056,258.544 589.373,259.862 589.373,261.486C589.373,263.112 588.056,264.431 586.43,264.431C584.805,264.431 583.487,263.112 583.487,261.486C583.487,259.862 584.805,258.544 586.43,258.544M565.729,194.096C567.352,194.096 568.672,195.418 568.672,197.042C568.672,198.667 567.352,199.985 565.729,199.985C564.102,199.984 562.784,198.667 562.784,197.042C562.784,195.417 564.102,194.099 565.729,194.096M367.047,299.949C368.674,299.949 369.992,301.268 369.992,302.892C369.992,304.518 368.674,305.836 367.047,305.836C365.422,305.836 364.104,304.519 364.104,302.892C364.104,301.268 365.422,299.949 367.047,299.949M367.047,328.999C368.674,328.999 369.992,330.319 369.992,331.941C369.992,333.568 368.674,334.886 367.047,334.886C365.422,334.886 364.104,333.568 364.104,331.941C364.104,330.319 365.422,329 367.047,328.999M387.082,349.702C388.708,349.702 390.025,351.021 390.025,352.644C390.025,354.271 388.708,355.589 387.082,355.589C385.456,355.589 384.14,354.271 384.14,352.644C384.14,351.021 385.456,349.702 387.082,349.702M387.082,369.735C388.708,369.735 390.025,371.057 390.025,372.679C390.025,374.306 388.708,375.625 387.082,375.625C385.456,375.625 384.14,374.306 384.14,372.679C384.14,371.053 385.456,369.735 387.082,369.735M367.717,440.527C369.343,440.527 370.66,441.842 370.66,443.47C370.66,445.095 369.343,446.414 367.717,446.414C366.093,446.414 364.772,445.095 364.772,443.47C364.772,441.842 366.093,440.527 367.717,440.527M367.717,460.562C369.343,460.562 370.66,461.878 370.66,463.504C370.66,465.131 369.343,466.448 367.717,466.448C366.093,466.448 364.772,465.131 364.772,463.504C364.772,461.878 366.093,460.562 367.717,460.562M566.062,434.518C567.686,434.518 569.004,435.832 569.004,437.46C569.004,439.084 567.686,440.403 566.062,440.403C564.436,440.403 563.118,439.084 563.118,437.46C563.118,435.832 564.436,434.518 566.062,434.518M566.062,454.549C567.686,454.549 569.004,455.867 569.004,457.496C569.004,459.118 567.686,460.436 566.062,460.436C564.436,460.436 563.118,459.118 563.118,457.496C563.118,455.867 564.436,454.549 566.062,454.549M586.096,389.436C587.722,389.436 589.038,390.755 589.038,392.379C589.041,394.005 587.722,395.325 586.096,395.325C584.471,395.325 583.154,394.005 583.154,392.379C583.154,390.755 584.471,389.436 586.096,389.436M496.608,433.512C498.231,433.512 499.551,434.831 499.551,436.458C499.551,438.084 498.231,439.402 496.608,439.402C494.983,439.402 493.663,438.084 493.663,436.458C493.663,434.831 494.983,433.512 496.608,433.512M467.224,434.184C468.848,434.184 470.167,435.501 470.167,437.126C470.167,438.749 468.848,440.068 467.224,440.068C465.6,440.068 464.279,438.749 464.279,437.126C464.28,435.501 465.6,434.184 467.224,434.184M586.764,456.886C588.39,456.886 589.706,458.207 589.706,459.829C589.706,461.455 588.39,462.775 586.764,462.775C585.138,462.775 583.821,461.455 583.821,459.829C583.821,458.207 585.138,456.886 586.764,456.886M373.986,199.12L400.173,199.12L400.173,194.687L413.844,194.687L413.844,208.36L400.173,208.36L400.173,204.357L373.723,204.357C372.564,207.084 369.863,208.995 366.713,208.995C362.511,208.995 359.102,205.586 359.102,201.383C359.102,197.179 362.511,193.77 366.713,193.77C370.13,193.77 373.021,196.022 373.986,199.12M464.038,255.46L464.038,242.989L455.159,233.251L390.138,233.876L390.138,234.812C392.821,235.989 394.695,238.669 394.695,241.786C394.695,245.989 391.289,249.398 387.082,249.398C382.879,249.398 379.472,245.99 379.472,241.786C379.472,238.34 381.758,235.431 384.899,234.492L384.899,229.046C381.758,228.104 379.472,225.195 379.472,221.752C379.472,217.548 382.879,214.138 387.082,214.138C391.289,214.138 394.695,217.548 394.695,221.752C394.695,224.791 392.912,227.418 390.334,228.635L457.453,227.99L469.276,240.959L469.276,255.46L473.232,255.46L473.232,269.132L459.562,269.132L459.562,255.46L464.038,255.46ZM444.038,312.274L424.321,282.868L424.003,269.132L419.97,269.132L419.97,255.46L433.637,255.46L433.637,269.132L429.241,269.132L429.522,281.217L449.207,310.58L449.846,325.581L453.438,325.581L453.438,339.253L439.763,339.253L439.763,325.581L444.603,325.581L444.038,312.274ZM424.693,311.499L414.394,304.35L374.615,303.735C374.195,307.54 370.967,310.503 367.047,310.503C362.845,310.502 359.435,307.097 359.435,302.892C359.435,298.688 362.845,295.28 367.047,295.28C369.605,295.279 371.867,296.542 373.248,298.476L416.074,299.136L429.821,308.684L430.51,325.581L433.637,325.581L433.637,339.253L419.97,339.253L419.97,325.581L425.267,325.581L424.693,311.499ZM374.15,329.196L400.173,329.491L400.173,325.581L413.844,325.581L413.844,339.253L400.173,339.253L400.173,334.728L374.242,334.435C373.209,337.417 370.378,339.553 367.047,339.553C362.845,339.553 359.435,336.146 359.435,331.945C359.435,327.74 362.845,324.331 367.047,324.331C370.285,324.329 373.049,326.35 374.15,329.196M468.989,284.665L469.237,299.22C472.462,300.104 474.837,303.059 474.837,306.565C474.837,310.768 471.426,314.177 467.224,314.177C463.022,314.177 459.61,310.768 459.61,306.565C459.612,303.512 461.409,300.88 464.002,299.665L463.749,284.665L454.86,284.665L443.67,273.084L443.67,269.132L439.763,269.132L439.763,255.46L444.334,255.46L444.334,244.282L409.506,244.573L409.506,255.46L413.844,255.46L413.844,269.132L400.173,269.132L400.173,255.46L404.267,255.46L404.267,239.375L449.576,239.001L449.576,255.46L453.438,255.46L453.438,269.132L448.907,269.132L448.907,270.97L457.081,279.424L475.949,279.424L483.867,271.778L483.403,269.132L479.356,269.132L479.356,255.46L493.03,255.46L493.03,269.132L488.721,269.132L489.516,273.612L478.067,284.665L468.989,284.665ZM552.417,259.074L579.115,259.373C580.032,256.2 582.962,253.875 586.43,253.875C590.633,253.875 594.042,257.285 594.042,261.486C594.042,265.691 590.633,269.098 586.43,269.098C583.342,269.098 580.68,267.258 579.488,264.615L552.417,264.312L552.417,269.132L538.746,269.132L538.746,255.46L552.417,255.46L552.417,259.074ZM568.512,313.775L568.749,320.144C571.626,321.231 573.674,324.009 573.674,327.268C573.674,331.469 570.264,334.881 566.062,334.881C563.803,334.881 561.77,333.895 560.379,332.332L552.417,334.743L552.417,339.253L538.746,339.253L538.746,325.581L544.197,325.581L544.471,309.375L503.351,309.375C502.233,312.185 499.483,314.177 496.274,314.177C492.071,314.177 488.662,310.768 488.662,306.565C488.662,302.362 492.071,298.952 496.274,298.952C499.626,298.952 502.475,301.121 503.49,304.135L549.793,304.135L549.436,325.581L552.417,325.581L552.417,329.27L558.451,327.443L558.448,327.268C558.448,323.962 560.557,321.148 563.504,320.096L563.268,313.649C560.446,312.534 558.448,309.782 558.448,306.565C558.448,302.362 561.858,298.952 566.062,298.952C570.264,298.952 573.674,302.362 573.674,306.565C573.674,309.911 571.512,312.753 568.512,313.775M552.417,389.953L578.881,389.953C579.895,386.939 582.744,384.768 586.096,384.768C590.3,384.768 593.708,388.178 593.708,392.38C593.708,396.585 590.299,399.994 586.096,399.994C582.884,399.994 580.135,398.002 579.019,395.189L552.417,395.189L552.417,400.026L538.746,400.026L538.746,386.352L552.417,386.352L552.417,389.953ZM444.97,395.248L445.34,394.956L445.954,395.736C446.159,395.788 446.375,395.816 446.601,395.816C448.052,395.816 449.227,394.64 449.227,393.191C449.227,391.742 448.052,390.563 446.601,390.563C445.149,390.563 443.975,391.742 443.975,393.191C443.975,394.024 444.362,394.766 444.97,395.248M569.181,444.403L569.415,450.659C571.938,451.898 573.674,454.494 573.674,457.496C573.674,461.697 570.264,465.106 566.062,465.106C563.503,465.106 561.239,463.844 559.86,461.906L552.417,463.958L552.417,468.813L538.746,468.813L538.746,455.142L544.422,455.142L543.926,439.284L503.548,439.586C502.354,442.23 499.695,444.069 496.608,444.069C492.405,444.069 488.993,440.661 488.993,436.458C488.995,432.252 492.405,428.846 496.608,428.846C500.078,428.846 503.008,431.169 503.922,434.349L548.998,434.011L549.661,455.142L552.417,455.142L552.417,458.526L558.476,456.858C558.746,453.596 561.071,450.92 564.154,450.123L563.956,444.777C560.776,443.863 558.448,440.933 558.448,437.46C558.448,433.256 561.858,429.845 566.062,429.845C570.264,429.845 573.674,433.256 573.674,437.46C573.674,440.549 571.83,443.212 569.181,444.403M465.061,373.021L455.947,364.476L390.473,365.117L390.473,365.863C392.974,367.11 394.695,369.696 394.695,372.679C394.695,376.884 391.289,380.292 387.082,380.292C382.879,380.292 379.472,376.884 379.472,372.679C379.472,369.113 381.924,366.12 385.235,365.294L385.235,360.032C381.924,359.204 379.472,356.211 379.472,352.644C379.472,348.442 382.879,345.032 387.082,345.032C391.289,345.032 394.695,348.442 394.695,352.644C394.695,355.63 392.974,358.216 390.473,359.463L390.473,359.877L457.997,359.219L470.256,370.709L470.571,386.352L473.232,386.352L473.232,400.026L459.562,400.026L459.562,386.352L465.331,386.352L465.061,373.021ZM403.931,386.352L403.931,368.581L450.296,368.581L449.944,386.352L453.438,386.352L453.438,400.026L449.332,400.026L456.89,409.632L476.419,409.339L484.041,400.026L479.356,400.026L479.356,386.352L493.03,386.352L493.03,400.026L490.806,400.026L478.931,414.536L469.714,414.676L470.188,430.111C472.92,431.27 474.837,433.973 474.837,437.126C474.837,441.332 471.426,444.737 467.224,444.737C463.022,444.737 459.61,441.332 459.61,437.126C459.612,433.715 461.854,430.831 464.942,429.862L464.477,414.755L454.382,414.905L442.665,400.026L439.763,400.026L439.763,386.352L444.702,386.352L444.95,373.818L409.169,373.818L409.169,386.352L413.844,386.352L413.844,400.026L400.173,400.026L400.173,386.352L403.931,386.352ZM445.007,455.142L445.007,443.115L425.685,414.136L424.805,400.026L419.97,400.026L419.97,386.352L433.637,386.352L433.637,400.026L430.051,400.026L430.827,412.406L450.244,441.531L450.244,455.142L453.438,455.142L453.438,468.813L439.763,468.813L439.763,455.142L445.007,455.142ZM423.737,455.142L423.916,451.421L415.557,443.619L375.291,444.23C374.908,448.076 371.662,451.084 367.717,451.084C363.511,451.084 360.106,447.671 360.106,443.471C360.106,439.267 363.511,435.858 367.717,435.858C370.258,435.856 372.506,437.103 373.889,439.014L417.585,438.353L429.262,449.252L428.982,455.142L433.637,455.142L433.637,468.813L419.97,468.813L419.97,455.142L423.737,455.142ZM373.644,458.729L400.173,458.423L400.173,455.142L413.844,455.142L413.844,468.813L400.173,468.813L400.173,463.665L375.315,463.951C375.081,467.945 371.769,471.116 367.717,471.116C363.511,471.116 360.106,467.708 360.106,463.504C360.106,459.299 363.511,455.892 367.717,455.892C370.112,455.892 372.248,457.001 373.644,458.729M552.417,199.463L558.124,197.438C558.119,197.307 558.114,197.175 558.114,197.042C558.114,192.836 561.524,189.43 565.729,189.43C569.931,189.43 573.338,192.838 573.338,197.042C573.338,201.245 569.931,204.654 565.729,204.654C562.811,204.654 560.276,203.013 558.996,200.603L552.417,202.936L552.417,208.36L538.746,208.36L538.746,194.687L552.417,194.687L552.417,199.463ZM366.713,198.439C368.339,198.439 369.656,199.757 369.656,201.381C369.656,203.008 368.339,204.326 366.713,204.326C365.088,204.324 363.771,203.008 363.771,201.381C363.771,199.757 365.088,198.439 366.713,198.439" style="fill:rgb(8,155,171);"/>
            </g>
            <g transform="matrix(3.24363,0,0,3.45825,548.535,517.485)">
                <path d="M58.593,-60.23L62.663,-60.23L59.509,-55.964L-2.943,-55.674L-2.943,-58.947L57.855,-59.231L58.593,-60.23ZM78.173,-60.23L82.322,-60.23L72.503,-47.609L-2.943,-48.052L-2.943,-51.325L70.906,-50.892L78.173,-60.23ZM211.04,-60.23L216.451,-60.23L219.522,-57.894L243.095,-57.574L244.729,-60.23L248.575,-60.23L244.912,-54.277L218.397,-54.635L211.04,-60.23ZM316.352,-60.23L321.813,-60.23L302.317,-45.61L208.864,-45.274L202.593,-48.653L202.593,-45.801L188.921,-45.801L188.921,-59.474L202.593,-59.474L202.593,-52.371L209.685,-48.553L301.225,-48.883L316.352,-60.23ZM349.7,-60.23L353.004,-60.23L353.261,-58.296L331.117,-38.262L159.843,-38.262L122.371,-1.652L102.946,-1.501L96.982,-9.739L88.318,-9.739L88.318,-23.411L101.989,-23.411L101.989,-9.739L101.024,-9.739L104.57,-4.839L121.014,-4.875L158.535,-41.538L329.855,-41.538L349.79,-59.57L349.7,-60.23ZM-2.943,167.585L-2.943,162.358L7.147,149.787L213.23,151.456L232.997,129.455L231.44,77.081L225.889,77.081L225.889,63.407L239.561,63.407L239.561,77.081L234.717,77.081L236.312,130.665L214.678,154.743L8.706,153.071L-2.943,167.585ZM-2.943,142.049L-2.943,138.772L34.622,138.772L34.008,117.814L28.927,117.814L28.927,104.143L42.601,104.143L42.601,117.814L37.283,117.814L37.995,142.049L-2.943,142.049ZM-2.943,131.432L-2.943,128.157L13.005,128.4L13.672,96.711L117.418,96.02L117.42,104.143L121.783,104.143L121.783,117.814L108.113,117.814L108.113,104.143L114.142,104.143L114.142,99.318L16.879,99.965L16.209,131.722L-2.943,131.432ZM-2.943,91.57L-2.943,88.295L156.927,88.691L176.901,99.261L176.901,95.795L190.572,95.795L190.572,109.469L176.901,109.469L176.901,102.968L156.11,91.963L-2.943,91.57ZM-2.943,81.09L-2.943,77.816L71.914,77.67L88.318,57.02L88.318,44.039L101.989,44.039L101.989,57.712L91.944,57.712L73.495,80.943L-2.943,81.09ZM-2.943,73.552L-2.943,70.275L58.217,69.992L68.522,56.829L68.522,44.039L82.194,44.039L82.194,57.712L71.988,57.712L59.816,73.26L-2.943,73.552ZM-2.943,65.918L-2.943,62.645L44.404,62.645L48.724,55.532L48.724,44.039L62.397,44.039L62.397,57.712L51.228,57.712L46.247,65.918L-2.943,65.918ZM-2.943,41.371L-2.943,37.116L15.343,21.913L143.499,20.578L177.558,-12.149L225.889,-12.467L225.889,-17.4L239.561,-17.4L239.561,-3.728L225.889,-3.728L225.889,-9.194L178.885,-8.885L144.83,23.838L16.542,25.171L-2.943,41.371ZM-2.943,12.536L-2.943,9.261L32.313,9.538L32.047,-9.739L28.927,-9.739L28.927,-23.411L42.601,-23.411L42.601,-9.739L35.32,-9.739L35.633,12.839L-2.943,12.536ZM-2.943,1.539L-2.943,-1.735L12.969,-1.796L12.969,-31.848L115.845,-32.194L116.038,-23.411L121.783,-23.411L121.783,-9.739L108.113,-9.739L108.113,-23.411L112.333,-23.411L112.249,-28.91L16.243,-28.584L16.243,1.468L-2.943,1.539ZM-2.943,-40.08L-2.943,-43.354L85.223,-43.211L103.252,-55.561L124.811,-55.561L124.811,-59.474L138.483,-59.474L138.483,-45.801L124.811,-45.801L124.811,-52.288L104.266,-52.288L86.234,-39.933L-2.943,-40.08ZM35.763,108.353C37.214,108.353 38.39,109.528 38.39,110.978C38.391,112.428 37.214,113.604 35.763,113.604C34.314,113.604 33.137,112.428 33.137,110.978C33.137,109.528 34.314,108.353 35.763,108.353M55.559,108.353C57.01,108.353 58.187,109.528 58.187,110.978C58.187,112.428 57.01,113.604 55.559,113.604C54.109,113.604 52.935,112.428 52.935,110.978C52.935,109.528 54.109,108.353 55.559,108.353M75.355,108.353C76.807,108.353 77.984,109.528 77.984,110.978C77.984,112.428 76.807,113.604 75.355,113.604C73.906,113.604 72.729,112.428 72.729,110.978C72.729,109.528 73.904,108.353 75.355,108.353M95.153,108.353C96.602,108.353 97.779,109.528 97.779,110.978C97.78,112.428 96.602,113.604 95.153,113.604C93.705,113.604 92.528,112.428 92.528,110.978C92.528,109.528 93.702,108.353 95.153,108.353M114.949,108.353C116.399,108.353 117.573,109.528 117.573,110.978C117.575,112.428 116.399,113.604 114.947,113.604C113.499,113.604 112.322,112.428 112.322,110.978C112.323,109.528 113.499,108.353 114.949,108.353M35.763,48.247C37.214,48.247 38.39,49.423 38.39,50.874C38.391,52.326 37.214,53.502 35.763,53.502C34.314,53.502 33.137,52.326 33.137,50.874C33.137,49.423 34.314,48.249 35.763,48.247M55.559,48.247C57.01,48.247 58.187,49.423 58.187,50.874C58.187,52.326 57.01,53.502 55.559,53.502C54.109,53.502 52.935,52.326 52.935,50.874C52.935,49.423 54.109,48.249 55.559,48.247M75.355,48.247C76.807,48.247 77.984,49.423 77.984,50.874C77.984,52.326 76.807,53.502 75.355,53.502C73.906,53.502 72.729,52.326 72.729,50.874C72.729,49.423 73.904,48.249 75.355,48.247M95.153,48.247C96.602,48.247 97.779,49.423 97.779,50.874C97.78,52.326 96.602,53.502 95.153,53.502C93.705,53.502 92.528,52.326 92.528,50.874C92.528,49.423 93.702,48.249 95.153,48.247M114.949,48.247C116.399,48.247 117.573,49.423 117.573,50.874C117.575,52.326 116.399,53.502 114.947,53.502C113.499,53.502 112.322,52.326 112.322,50.874C112.323,49.423 113.499,48.249 114.949,48.247M35.763,-19.202C37.214,-19.202 38.39,-18.025 38.39,-16.576C38.391,-15.125 37.214,-13.949 35.763,-13.949C34.314,-13.95 33.137,-15.125 33.137,-16.576C33.137,-18.025 34.314,-19.202 35.763,-19.202M55.559,-19.202C57.01,-19.202 58.187,-18.025 58.187,-16.576C58.187,-15.125 57.01,-13.949 55.559,-13.949C54.109,-13.95 52.935,-15.125 52.935,-16.576C52.935,-18.025 54.109,-19.202 55.559,-19.202M75.355,-19.202C76.807,-19.202 77.984,-18.025 77.984,-16.576C77.984,-15.125 76.807,-13.949 75.355,-13.949C73.906,-13.95 72.729,-15.125 72.729,-16.576C72.729,-18.025 73.904,-19.202 75.355,-19.202M95.153,-19.202C96.602,-19.202 97.779,-18.025 97.779,-16.576C97.78,-15.125 96.602,-13.949 95.153,-13.949C93.705,-13.95 92.528,-15.125 92.528,-16.576C92.528,-18.025 93.702,-19.202 95.153,-19.202M114.949,-19.202C116.399,-19.202 117.573,-18.025 117.573,-16.576C117.575,-15.125 116.399,-13.949 114.947,-13.949C113.499,-13.95 112.322,-15.125 112.322,-16.576C112.323,-18.025 113.499,-19.202 114.949,-19.202M232.725,-13.189C234.175,-13.189 235.351,-12.015 235.351,-10.565C235.351,-9.113 234.175,-7.937 232.724,-7.937C231.275,-7.937 230.098,-9.113 230.098,-10.565C230.098,-12.015 231.275,-13.189 232.725,-13.189M252.093,-13.189C253.543,-13.189 254.719,-12.015 254.719,-10.565C254.719,-9.113 253.543,-7.937 252.093,-7.937C250.64,-7.937 249.468,-9.113 249.468,-10.565C249.468,-12.015 250.64,-13.189 252.093,-13.189M232.725,7.513C234.175,7.513 235.351,8.687 235.351,10.139C235.351,11.589 234.175,12.764 232.724,12.764C231.275,12.764 230.098,11.589 230.098,10.139C230.098,8.687 231.275,7.513 232.725,7.513M252.093,7.513C253.543,7.513 254.719,8.687 254.719,10.139C254.719,11.589 253.543,12.764 252.093,12.764C250.64,12.764 249.468,11.589 249.468,10.139C249.468,8.687 250.64,7.513 252.093,7.513M232.725,67.616C234.175,67.616 235.351,68.792 235.351,70.242C235.351,71.694 234.175,72.871 232.724,72.871C231.275,72.871 230.098,71.694 230.098,70.242C230.098,68.792 231.275,67.616 232.725,67.616M252.093,67.616C253.543,67.616 254.719,68.792 254.719,70.242C254.719,71.694 253.543,72.871 252.093,72.871C250.64,72.871 249.468,71.694 249.468,70.242C249.468,68.792 250.64,67.616 252.093,67.616M73.83,145.048L55.674,117.814L48.724,117.814L48.724,104.143L62.397,104.143L62.397,117.814L59.61,117.814L75.588,141.783L203.574,142.445L217.973,127.415L216.283,53.983L247.248,53.617L253.079,63.088L252.563,63.407L258.93,63.407L258.93,77.081L245.258,77.081L245.258,63.407L249.429,63.407L245.432,56.911L219.634,57.216L221.281,128.697L204.963,145.724L73.83,145.048ZM121.783,46.97L146.844,47.276L172.872,21.915L243.426,21.249L246.119,16.976L245.258,16.976L245.258,3.304L258.93,3.304L258.93,16.976L249.989,16.976L245.245,24.504L174.22,25.176L148.157,50.565L121.783,50.245L121.783,57.712L108.113,57.712L108.113,44.039L121.783,44.039L121.783,46.97ZM36.194,44.039L44.578,34.257L147.177,34.925L174.879,8.223L225.889,7.563L225.889,3.304L239.561,3.304L239.561,16.976L225.889,16.976L225.889,10.836L176.223,11.479L148.49,38.206L46.073,37.541L40.502,44.039L42.601,44.039L42.601,57.712L28.927,57.712L28.927,44.039L36.194,44.039ZM74.216,14.495L56.377,-9.739L48.724,-9.739L48.724,-23.411L62.397,-23.411L62.397,-9.739L60.445,-9.739L75.869,11.22L136.143,11.22L169.532,-21.837L217.088,-21.837L222.097,-25.511L247.894,-25.511L253.19,-17.4L258.93,-17.4L258.93,-3.728L245.258,-3.728L245.258,-17.4L249.278,-17.4L246.122,-22.236L223.167,-22.236L218.16,-18.561L170.879,-18.561L137.488,14.495L74.216,14.495ZM183.736,36.227C185.187,36.227 186.362,37.403 186.362,38.853C186.362,40.306 185.186,41.481 183.736,41.481C182.286,41.481 181.111,40.306 181.111,38.853C181.111,37.403 182.286,36.228 183.736,36.227M131.646,-55.265C133.095,-55.265 134.272,-54.089 134.272,-52.638C134.272,-51.187 133.095,-50.012 131.646,-50.012C130.194,-50.012 129.017,-51.187 129.017,-52.638C129.017,-54.089 130.194,-55.265 131.646,-55.265M195.758,-55.265C197.207,-55.265 198.382,-54.089 198.382,-52.638C198.382,-51.187 197.206,-50.012 195.758,-50.012C194.308,-50.012 193.13,-51.187 193.13,-52.638C193.13,-54.089 194.308,-55.265 195.758,-55.265M326.063,-17.4L339.737,-17.4L339.737,-3.728L326.063,-3.728L326.063,-17.4ZM332.9,-13.189C334.35,-13.189 335.528,-12.015 335.528,-10.565C335.528,-9.113 334.35,-7.937 332.9,-7.937C331.449,-7.937 330.273,-9.113 330.273,-10.565C330.273,-12.015 331.449,-13.189 332.9,-13.189M345.431,-17.4L350.433,-17.4L350.014,-19.685L338.549,-29.916L164.908,-30.247L130.856,6.48L84.82,6.48L74.681,-9.739L68.522,-9.739L68.522,-23.411L82.194,-23.411L82.194,-9.739L78.544,-9.739L86.635,3.208L129.426,3.208L163.485,-33.525L339.797,-33.188L353.034,-21.38L353.76,-17.4L359.101,-17.4L359.101,-3.728L345.431,-3.728L345.431,-17.4ZM352.267,-13.189C353.717,-13.189 354.893,-12.015 354.893,-10.565C354.893,-9.113 353.717,-7.937 352.267,-7.937C350.819,-7.937 349.642,-9.113 349.642,-10.565C349.642,-12.015 350.819,-13.189 352.267,-13.189M326.063,2.302L339.737,2.302L339.737,15.975L326.766,15.975L308.073,32.525L193.168,32.857L190.572,34.997L190.572,45.692L176.901,45.692L176.901,32.018L189.042,32.018L191.988,29.589L306.829,29.253L326.063,12.228L326.063,2.302ZM332.9,6.512C334.35,6.512 335.528,7.688 335.528,9.138C335.528,10.588 334.35,11.765 332.9,11.765C331.449,11.765 330.273,10.588 330.273,9.138C330.273,7.688 331.449,6.512 332.9,6.512M345.431,2.302L359.101,2.302L359.101,15.975L352.697,15.975L353.241,22.772L322.58,40.539L200.601,40.539L202.248,111.069L183.517,128.034L102.946,127.012L95.872,117.814L88.318,117.814L88.318,104.143L101.989,104.143L101.989,117.814L100,117.814L104.574,123.756L182.274,124.741L198.943,109.649L197.25,37.265L321.7,37.265L349.811,20.973L349.414,15.975L345.431,15.975L345.431,2.302ZM352.267,6.512C353.717,6.512 354.893,7.688 354.893,9.138C354.893,10.588 353.717,11.765 352.267,11.765C350.819,11.765 349.642,10.588 349.642,9.138C349.642,7.688 350.819,6.512 352.267,6.512M326.063,63.408L339.737,63.408L339.737,77.081L326.063,77.081L326.063,63.408ZM332.9,67.619C334.35,67.619 335.528,68.796 335.528,70.245C335.528,71.694 334.35,72.871 332.9,72.871C331.449,72.871 330.273,71.694 330.273,70.245C330.273,68.796 331.449,67.619 332.9,67.619M345.431,63.408L349.86,63.408L349.348,57.746L284.64,50.558L211.607,49.25L212.593,119.405L195.23,135.706L85.4,135.706L76.126,117.814L68.522,117.814L68.522,104.143L82.194,104.143L82.194,117.814L79.811,117.814L87.388,132.432L193.935,132.432L209.301,118.007L208.285,45.917L284.845,47.286L352.367,54.787L353.152,63.408L359.101,63.408L359.101,77.081L345.431,77.081L345.431,63.408ZM352.267,67.619C353.717,67.619 354.893,68.796 354.893,70.245C354.893,71.694 353.717,72.871 352.267,72.871C350.819,72.871 349.642,71.694 349.642,70.245C349.642,68.796 350.819,67.619 352.267,67.619M183.736,100.004C185.187,100.004 186.362,101.181 186.362,102.631C186.362,104.083 185.186,105.258 183.736,105.258C182.286,105.258 181.111,104.083 181.111,102.631C181.111,101.181 182.286,100.004 183.736,100.004" style="fill:rgb(8,155,171);"/>
            </g>
            <g transform="matrix(3.24363,0,0,3.45825,548.535,517.485)">
                <path d="M275.213,2.293L275.035,-1.422L283.394,-9.228L298.344,-8.617C298.726,-4.769 301.972,-1.764 305.92,-1.764C310.122,-1.764 313.529,-5.173 313.529,-9.376C313.529,-13.579 310.122,-16.989 305.92,-16.989C303.377,-16.991 301.129,-15.744 299.746,-13.831L281.367,-14.495L269.688,-3.596L269.97,2.293L265.311,2.293L265.311,15.964L278.981,15.964L278.981,2.293L275.213,2.293ZM305.92,-12.321C304.291,-12.321 302.977,-11.002 302.977,-9.376C302.977,-7.751 304.291,-6.433 305.92,-6.433C307.543,-6.433 308.862,-7.751 308.862,-9.376C308.862,-11.002 307.543,-12.321 305.92,-12.321M272.148,6.503C270.698,6.503 269.52,7.679 269.52,9.129C269.52,10.579 270.698,11.754 272.148,11.754C273.598,11.754 274.774,10.579 274.774,9.129C274.774,7.679 273.598,6.503 272.148,6.503" style="fill:rgb(8,155,171);"/>
            </g>
            <g transform="matrix(3.24363,0,0,3.45825,548.535,517.485)">
                <path d="M379.483,-60.23L384.173,-60.23C384.15,-60.086 384.139,-59.939 384.139,-59.791C384.139,-58.165 385.456,-56.847 387.082,-56.847C388.708,-56.847 390.024,-58.165 390.024,-59.791C390.024,-59.939 390.014,-60.086 389.995,-60.23L394.681,-60.23C394.689,-60.084 394.694,-59.938 394.694,-59.79C394.694,-56.545 392.665,-53.775 389.804,-52.68L389.804,-52.538L459.135,-52.538L469.943,-40.573L469.943,-26.082L473.231,-26.082L473.231,-12.41L459.561,-12.41L459.561,-26.082L464.707,-26.082L464.701,-38.56L456.808,-47.3L389.804,-47.3L389.804,-46.866C392.665,-45.77 394.694,-42.999 394.694,-39.755C394.694,-35.552 391.289,-32.143 387.082,-32.143C382.879,-32.143 379.471,-35.552 379.471,-39.755C379.471,-43.076 381.599,-45.902 384.566,-46.941L384.566,-52.604C381.599,-53.644 379.471,-56.468 379.471,-59.79C379.471,-59.938 379.474,-60.084 379.483,-60.23M474.371,-60.23L477.979,-60.23L485.732,-43.539L598.7,-43.354L598.7,-40.08L483.643,-40.27L474.371,-60.23ZM494.859,-60.23L498.624,-60.23L503.342,-51.885L598.7,-51.325L598.7,-48.052L501.427,-48.621L494.859,-60.23ZM513.748,-60.23L517.353,-60.23L518.122,-58.572L598.7,-58.947L598.7,-55.674L516.033,-55.289L513.748,-60.23ZM598.7,-1.735L598.7,1.539L525.828,1.811L525.507,-12.41L518.949,-12.41L518.949,-26.082L532.62,-26.082L532.62,-12.41L528.777,-12.41L529.03,-1.474L598.7,-1.735ZM598.7,9.261L598.7,12.536L506.49,11.809L505.496,-12.41L499.151,-12.41L499.151,-26.082L512.826,-26.082L512.826,-12.41L508.772,-12.41L509.635,8.561L598.7,9.261ZM598.7,37.116L598.7,41.371L592.972,46.133C593.444,47.124 593.708,48.229 593.708,49.399C593.708,53.605 590.298,57.012 586.095,57.012C581.892,57.011 578.484,53.605 578.484,49.399C578.484,45.197 581.892,41.789 586.097,41.789C587.947,41.789 589.641,42.45 590.963,43.547L598.7,37.116ZM598.7,62.645L598.7,65.918L538.422,65.918L529.856,57.045L518.949,57.045L518.949,43.372L532.62,43.372L532.62,55.195L539.81,62.645L598.7,62.645ZM598.7,70.275L598.7,73.552L515.674,73.938L508.303,57.045L499.151,57.045L499.151,43.372L512.826,43.372L512.826,57.045L511.877,57.045L517.813,70.65L598.7,70.275ZM598.7,77.816L598.7,81.09L502.422,81.279L489.03,57.045L479.355,57.045L479.355,43.372L493.029,43.372L493.029,57.045L492.768,57.045L504.348,78.001L598.7,77.816ZM598.7,88.295L598.7,91.57L486.689,91.292L469.236,57.045L459.561,57.045L459.561,43.372L473.231,43.372L473.231,57.045L472.91,57.045L488.697,88.022L598.7,88.295ZM598.7,128.157L598.7,131.432L526.577,130.339L525.635,117.814L518.949,117.814L518.949,104.143L532.62,104.143L532.62,117.814L528.92,117.814L529.616,127.111L598.7,128.157ZM598.7,138.772L598.7,142.049L505.424,142.049L505.424,117.814L499.151,117.814L499.151,104.143L512.826,104.143L512.826,117.814L508.699,117.814L508.701,138.772L598.7,138.772ZM598.7,162.358L598.7,167.585L593.683,173.838C594.744,175.145 595.377,176.812 595.377,178.624C595.379,182.827 591.969,186.237 587.767,186.237C583.561,186.237 580.154,182.827 580.154,178.624C580.154,174.423 583.561,171.011 587.767,171.011C588.973,171.011 590.113,171.292 591.126,171.792L598.7,162.358ZM407.008,-21.873C408.455,-21.873 409.632,-20.696 409.632,-19.247C409.632,-17.795 408.455,-16.618 407.008,-16.618C405.556,-16.618 404.38,-17.795 404.38,-19.247C404.38,-20.696 405.556,-21.873 407.008,-21.873M426.8,-21.873C428.254,-21.873 429.429,-20.696 429.429,-19.247C429.429,-17.795 428.254,-16.618 426.8,-16.618C425.354,-16.618 424.177,-17.795 424.177,-19.247C424.177,-20.696 425.354,-21.873 426.8,-21.873M446.6,-21.873C448.051,-21.873 449.226,-20.696 449.226,-19.247C449.226,-17.795 448.051,-16.618 446.6,-16.618C445.148,-16.618 443.974,-17.795 443.974,-19.247C443.974,-20.696 445.148,-21.873 446.6,-21.873M466.394,-21.873C467.844,-21.873 469.022,-20.696 469.022,-19.247C469.022,-17.795 467.844,-16.618 466.394,-16.618C464.944,-16.618 463.769,-17.795 463.769,-19.247C463.769,-20.696 464.944,-21.873 466.394,-21.873M486.194,-21.873C487.643,-21.873 488.82,-20.696 488.82,-19.247C488.82,-17.795 487.643,-16.618 486.194,-16.618C484.74,-16.618 483.564,-17.795 483.564,-19.247C483.564,-20.696 484.74,-21.873 486.194,-21.873M505.989,-21.873C507.44,-21.873 508.614,-20.696 508.614,-19.247C508.614,-17.795 507.436,-16.618 505.989,-16.618C504.539,-16.618 503.364,-17.795 503.364,-19.247C503.364,-20.696 504.539,-21.873 505.989,-21.873M525.785,-21.873C527.234,-21.873 528.411,-20.696 528.411,-19.247C528.411,-17.795 527.234,-16.618 525.784,-16.618C524.333,-16.618 523.157,-17.795 523.157,-19.247C523.157,-20.696 524.333,-21.873 525.785,-21.873M545.584,-21.873C547.031,-21.873 548.209,-20.696 548.209,-19.247C548.209,-17.795 547.031,-16.618 545.584,-16.618C544.13,-16.618 542.955,-17.795 542.955,-19.247C542.955,-20.696 544.13,-21.873 545.584,-21.873M407.008,47.582C408.455,47.582 409.632,48.755 409.632,50.207C409.632,51.659 408.455,52.835 407.008,52.835C405.556,52.835 404.38,51.659 404.38,50.207C404.38,48.755 405.556,47.582 407.008,47.582M426.8,47.582C428.254,47.582 429.429,48.755 429.429,50.207C429.429,51.659 428.254,52.835 426.8,52.835C425.354,52.835 424.177,51.659 424.177,50.207C424.177,48.755 425.354,47.582 426.8,47.582M446.6,47.582C448.051,47.582 449.226,48.755 449.226,50.207C449.226,51.659 448.051,52.835 446.6,52.835C445.148,52.835 443.974,51.659 443.974,50.207C443.974,48.755 445.148,47.582 446.6,47.582M466.394,47.582C467.844,47.582 469.022,48.755 469.022,50.207C469.022,51.659 467.844,52.835 466.394,52.835C464.944,52.835 463.769,51.659 463.769,50.207C463.769,48.755 464.944,47.582 466.394,47.582M486.194,47.582C487.643,47.582 488.82,48.755 488.82,50.207C488.82,51.659 487.643,52.835 486.194,52.835C484.74,52.835 483.564,51.659 483.564,50.207C483.564,48.755 484.74,47.582 486.194,47.582M505.989,47.582C507.44,47.582 508.614,48.755 508.614,50.207C508.614,51.659 507.436,52.835 505.989,52.835C504.539,52.835 503.364,51.659 503.364,50.207C503.364,48.755 504.539,47.582 505.989,47.582M525.785,47.582C527.234,47.582 528.411,48.755 528.411,50.207C528.411,51.659 527.234,52.835 525.784,52.835C524.333,52.835 523.157,51.659 523.157,50.207C523.157,48.755 524.333,47.582 525.785,47.582M545.584,47.582C547.031,47.582 548.209,48.755 548.209,50.207C548.209,51.659 547.031,52.835 545.584,52.835C544.13,52.835 542.955,51.659 542.955,50.207C542.955,48.755 544.13,47.582 545.584,47.582M407.008,108.353C408.455,108.353 409.632,109.528 409.632,110.978C409.632,112.428 408.455,113.604 407.008,113.604C405.556,113.604 404.38,112.428 404.38,110.978C404.38,109.528 405.556,108.353 407.008,108.353M426.8,108.353C428.254,108.353 429.429,109.528 429.429,110.978C429.429,112.428 428.254,113.604 426.8,113.604C425.354,113.604 424.177,112.428 424.177,110.978C424.177,109.528 425.354,108.353 426.8,108.353M446.6,108.353C448.051,108.353 449.226,109.528 449.226,110.978C449.226,112.428 448.051,113.604 446.6,113.604C445.148,113.604 443.974,112.428 443.974,110.978C443.974,109.528 445.148,108.353 446.6,108.353M466.394,108.353C467.844,108.353 469.022,109.528 469.022,110.978C469.022,112.428 467.844,113.604 466.394,113.604C464.944,113.604 463.769,112.428 463.769,110.978C463.769,109.528 464.944,108.353 466.394,108.353M486.194,108.353C487.643,108.353 488.82,109.528 488.82,110.978C488.82,112.428 487.643,113.604 486.194,113.604C484.74,113.604 483.564,112.428 483.564,110.978C483.564,109.528 484.74,108.353 486.194,108.353M505.989,108.353C507.44,108.353 508.614,109.528 508.614,110.978C508.614,112.428 507.436,113.604 505.989,113.604C504.539,113.604 503.364,112.428 503.364,110.978C503.364,109.528 504.539,108.353 505.989,108.353M525.785,108.353C527.234,108.353 528.411,109.528 528.411,110.978C528.411,112.428 527.234,113.604 525.784,113.604C524.333,113.604 523.157,112.428 523.157,110.978C523.157,109.528 524.333,108.353 525.785,108.353M545.584,108.353C547.031,108.353 548.209,109.528 548.209,110.978C548.209,112.428 547.031,113.604 545.584,113.604C544.13,113.604 542.955,112.428 542.955,110.978C542.955,109.528 544.13,108.353 545.584,108.353M387.082,-42.698C388.708,-42.698 390.024,-41.381 390.024,-39.755C390.024,-38.13 388.708,-36.812 387.082,-36.812C385.456,-36.812 384.139,-38.13 384.139,-39.755C384.139,-41.381 385.456,-42.698 387.082,-42.698M586.095,-22.999C587.721,-22.999 589.038,-21.68 589.038,-20.055C589.041,-18.43 587.721,-17.11 586.095,-17.11C584.47,-17.11 583.153,-18.428 583.153,-20.055C583.153,-21.68 584.47,-22.999 586.095,-22.999M586.095,46.456C587.721,46.456 589.038,47.774 589.038,49.399C589.041,51.024 587.721,52.344 586.095,52.344C584.47,52.344 583.153,51.025 583.153,49.399C583.153,47.774 584.47,46.456 586.095,46.456M586.095,106.227C587.721,106.227 589.038,107.544 589.038,109.171C589.041,110.795 587.721,112.114 586.095,112.114C584.47,112.114 583.153,110.795 583.153,109.171C583.153,107.544 584.47,106.227 586.095,106.227M496.607,21.746C498.23,21.746 499.55,23.064 499.55,24.69C499.55,26.316 498.23,27.635 496.607,27.635C494.982,27.635 493.663,26.316 493.663,24.69C493.663,23.064 494.982,21.746 496.607,21.746M468.224,21.746C469.848,21.746 471.17,23.064 471.17,24.69C471.17,26.316 469.848,27.635 468.224,27.635C466.597,27.635 465.28,26.316 465.28,24.69C465.28,23.064 466.597,21.746 468.224,21.746M566.061,21.412C567.685,21.412 569.004,22.731 569.004,24.356C569.004,25.982 567.685,27.3 566.061,27.3C564.435,27.3 563.118,25.982 563.118,24.356C563.118,22.731 564.435,21.412 566.061,21.412M566.061,41.114C567.685,41.114 569.004,42.432 569.004,44.06C569.004,45.683 567.685,47.002 566.061,47.002C564.435,47.002 563.118,45.683 563.118,44.06C563.118,42.432 564.435,41.114 566.061,41.114M367.716,27.09C369.342,27.09 370.66,28.408 370.66,30.033C370.66,31.659 369.342,32.976 367.716,32.976C366.092,32.976 364.771,31.659 364.771,30.033C364.771,28.408 366.092,27.09 367.716,27.09M367.716,46.789C369.342,46.789 370.66,48.108 370.66,49.735C370.66,51.358 369.342,52.678 367.716,52.678C366.092,52.678 364.771,51.36 364.771,49.735C364.771,48.108 366.092,46.789 367.716,46.789M387.082,76.174C388.708,76.174 390.024,77.493 390.024,79.119C390.024,80.744 388.708,82.062 387.082,82.062C385.456,82.062 384.139,80.744 384.139,79.119C384.139,77.493 385.456,76.174 387.082,76.174M368.047,117.246C369.677,117.246 370.993,118.564 370.993,120.19C370.993,121.814 369.677,123.132 368.047,123.132C366.423,123.132 365.107,121.814 365.107,120.19C365.107,118.564 366.423,117.246 368.047,117.246M419.137,136.947C420.764,136.947 422.083,138.265 422.083,139.889C422.083,141.517 420.764,142.834 419.137,142.834C417.512,142.834 416.196,141.517 416.196,139.889C416.196,138.265 417.512,136.947 419.137,136.947M459.209,141.622C460.833,141.622 462.152,142.939 462.152,144.564C462.152,146.19 460.833,147.509 459.209,147.509C457.584,147.509 456.263,146.19 456.263,144.564C456.265,142.938 457.582,141.622 459.209,141.622M488.257,141.288C489.884,141.288 491.203,142.605 491.203,144.23C491.203,145.856 489.884,147.175 488.257,147.175C486.632,147.175 485.314,145.856 485.314,144.23C485.314,142.605 486.632,141.288 488.257,141.288M567.731,150.637C569.355,150.637 570.674,151.955 570.674,153.58C570.674,155.207 569.355,156.524 567.731,156.524C566.105,156.524 564.787,155.207 564.787,153.58C564.787,151.955 566.105,150.637 567.731,150.637M567.062,162.323C568.69,162.323 570.005,163.643 570.005,165.267C570.005,166.894 568.687,168.211 567.062,168.211C565.436,168.21 564.119,166.894 564.119,165.267C564.119,163.643 565.436,162.323 567.062,162.323M587.767,175.68C589.392,175.68 590.708,176.999 590.708,178.624C590.708,180.25 589.39,181.568 587.766,181.568C586.14,181.568 584.823,180.25 584.823,178.624C584.823,176.999 586.14,175.68 587.767,175.68M418.803,166.997C420.429,166.997 421.75,168.316 421.75,169.944C421.75,171.568 420.429,172.886 418.803,172.886C417.178,172.886 415.861,171.568 415.861,169.944C415.861,168.316 417.178,166.997 418.803,166.997M444.705,29.448L424.339,1.405L423.724,-12.41L419.969,-12.41L419.969,-26.082L433.636,-26.082L433.636,-12.41L428.967,-12.41L429.502,-0.401L449.872,27.652L450.529,43.372L453.437,43.372L453.437,57.045L439.762,57.045L439.762,43.372L445.287,43.372L444.705,29.448ZM470.054,2.572L470.585,17.452C473.635,18.445 475.837,21.311 475.837,24.69C475.837,28.895 472.426,32.303 468.224,32.303C464.022,32.303 460.614,28.895 460.614,24.69C460.614,21.504 462.571,18.773 465.351,17.64L464.815,2.668L457.429,2.806L445.006,-6.902L445.006,-12.41L439.762,-12.41L439.762,-26.082L444.623,-26.082L444.393,-36.28L410.505,-36.28L410.505,-26.082L413.843,-26.082L413.843,-12.41L400.172,-12.41L400.172,-26.082L405.269,-26.082L405.269,-41.518L449.516,-41.518L449.862,-26.082L453.437,-26.082L453.437,-12.41L450.244,-12.41L450.241,-9.456L459.189,-2.466L475.484,-2.768L484.072,-8.865L484.072,-12.41L479.355,-12.41L479.355,-26.082L493.029,-26.082L493.029,-12.41L489.313,-12.41L489.313,-6.16L477.2,2.44L470.054,2.572ZM424.449,39.155L416.865,31.854L374.925,32.48C373.906,35.485 371.064,37.646 367.717,37.646C363.511,37.646 360.106,34.237 360.106,30.033C360.106,25.831 363.511,22.419 367.717,22.419C370.937,22.419 373.689,24.42 374.799,27.247L418.943,26.581L429.391,36.643L430.309,43.372L433.636,43.372L433.636,57.045L419.969,57.045L419.969,43.372L425.024,43.372L424.449,39.155ZM374.809,46.968L400.172,46.968L400.172,43.372L413.843,43.372L413.843,57.045L400.172,57.045L400.172,52.207L374.918,52.207C373.891,55.195 371.053,57.346 367.717,57.346C363.511,57.346 360.106,53.938 360.106,49.735C360.106,45.53 363.511,42.121 367.717,42.121C370.945,42.121 373.704,44.131 374.809,46.968M465.039,104.143L465.039,90.077L456.249,81.288L393.69,82.897C392.379,85.188 389.911,86.732 387.082,86.732C382.879,86.731 379.471,83.321 379.471,79.12C379.471,74.916 382.879,71.505 387.082,71.505C390.778,71.505 393.862,74.143 394.548,77.637L458.361,75.992L470.275,87.904L470.279,104.143L473.231,104.143L473.231,117.814L459.561,117.814L459.561,104.143L465.039,104.143ZM370.119,127.518L370.394,140.517L413.767,164.234C415.112,163.049 416.876,162.33 418.803,162.33C423.008,162.33 426.418,165.739 426.418,169.944C426.418,174.145 423.008,177.555 418.803,177.555C414.601,177.555 411.193,174.145 411.193,169.944C411.193,169.562 411.221,169.186 411.275,168.819L366.572,144.373L365.241,143.649L365.211,142.133L364.891,127.118C362.262,125.917 360.435,123.266 360.435,120.19C360.435,115.986 363.845,112.577 368.047,112.577C372.252,112.577 375.663,115.986 375.663,120.19C375.663,123.675 373.319,126.616 370.119,127.518M418.505,132.305L422.798,117.814L419.969,117.814L419.969,104.143L433.636,104.143L433.636,117.814L428.259,117.814L423.555,133.691C425.489,135.073 426.752,137.335 426.752,139.89C426.753,144.094 423.34,147.503 419.137,147.503C414.935,147.503 411.526,144.094 411.526,139.89C411.526,135.9 414.597,132.626 418.505,132.305M461.063,132.388L461.223,137.224C464.449,138.107 466.819,141.059 466.819,144.566C466.819,148.766 463.411,152.179 459.209,152.179C455.004,152.179 451.595,148.768 451.595,144.566C451.595,141.511 453.397,138.874 455.996,137.663L455.751,130.27L442.703,117.814L439.762,117.814L439.762,104.143L445.587,104.143L445.114,92.948L411.452,92.948L411.214,104.143L413.843,104.143L413.843,117.814L400.172,117.814L400.172,104.143L405.977,104.143L406.325,87.709L450.131,87.709L450.833,104.143L453.437,104.143L453.437,117.814L450.292,117.814L460.044,127.125L475.555,127.42L484.49,117.814L479.355,117.814L479.355,104.143L493.029,104.143L493.029,117.814L491.642,117.814L477.795,132.701L461.063,132.388ZM552.417,-22.463L578.785,-22.18C579.706,-25.349 582.629,-27.666 586.095,-27.666C590.299,-27.666 593.708,-24.258 593.708,-20.054C593.708,-15.851 590.298,-12.441 586.095,-12.441C583.003,-12.441 580.338,-14.287 579.149,-16.937L552.417,-17.224L552.417,-12.41L538.746,-12.41L538.746,-26.082L552.417,-26.082L552.417,-22.463ZM569.491,31.155L569.739,37.39C572.084,38.69 573.673,41.188 573.673,44.06C573.673,48.26 570.263,51.671 566.061,51.671C564.078,51.671 562.272,50.913 560.918,49.67L552.417,52.787L552.417,57.045L538.746,57.045L538.746,43.372L544.542,43.372L544.8,27.18L503.693,27.475C502.583,30.303 499.828,32.303 496.607,32.303C492.405,32.303 488.993,28.895 488.993,24.69C488.995,20.488 492.405,17.078 496.607,17.078C499.951,17.078 502.793,19.236 503.812,22.236L550.124,21.906L549.779,43.372L552.417,43.372L552.417,47.209L558.504,44.977C558.467,44.674 558.448,44.369 558.448,44.06C558.448,40.401 561.027,37.346 564.467,36.612L564.273,31.758C560.931,30.951 558.448,27.944 558.448,24.356C558.448,20.151 561.857,16.744 566.061,16.744C570.263,16.744 573.673,20.151 573.673,24.356C573.673,27.328 571.97,29.902 569.491,31.155M546.988,153.193L502.692,153.362L493.659,149.597C492.281,150.985 490.37,151.845 488.26,151.845C484.058,151.845 480.646,148.434 480.646,144.233C480.646,140.028 484.058,136.618 488.26,136.618C492.462,136.618 495.871,140.028 495.871,144.233C495.872,144.436 495.864,144.636 495.848,144.835L503.734,148.122L547.475,147.956L560.786,150.46C561.977,147.812 564.639,145.968 567.731,145.968C571.933,145.968 575.343,149.379 575.343,153.581C575.343,156.09 574.129,158.317 572.255,159.703C573.743,161.093 574.675,163.073 574.675,165.269C574.675,169.472 571.267,172.881 567.066,172.881C562.857,172.881 559.451,169.472 559.451,165.269C559.451,162.76 560.666,160.533 562.537,159.146C561.553,158.228 560.813,157.05 560.424,155.724L546.988,153.193ZM552.417,106.923L578.919,106.626C579.966,103.674 582.784,101.558 586.095,101.558C590.299,101.558 593.708,104.966 593.708,109.171C593.708,113.374 590.298,116.783 586.095,116.783C582.841,116.783 580.062,114.739 578.974,111.865L552.417,112.16L552.417,117.814L538.746,117.814L538.746,104.143L552.417,104.143L552.417,106.923Z" style="fill:rgb(8,155,171);"/>
            </g>
            <g transform="matrix(3.24363,0,0,3.45825,548.535,517.485)">
                <path d="M10.752,183.658L10.574,179.942L18.934,172.138L33.883,172.749C34.265,176.595 37.512,179.601 41.458,179.601C45.661,179.601 49.069,176.192 49.069,171.989C49.069,167.785 45.661,164.375 41.458,164.375C38.917,164.375 36.669,165.621 35.285,167.535L16.905,166.87L5.227,177.769L5.509,183.658L0.851,183.658L0.851,197.33L14.522,197.33L14.522,183.658L10.752,183.658ZM41.458,169.046C39.832,169.046 38.514,170.362 38.514,171.988C38.514,173.614 39.832,174.932 41.458,174.932C43.082,174.932 44.401,173.614 44.401,171.988C44.401,170.362 43.082,169.046 41.458,169.046M7.687,187.868C6.237,187.868 5.061,189.043 5.061,190.495C5.061,191.945 6.237,193.12 7.687,193.12C9.137,193.12 10.313,191.945 10.313,190.495C10.313,189.043 9.137,187.868 7.687,187.868" style="fill:rgb(8,155,171);"/>
            </g>
            <g transform="matrix(3.24363,0,0,3.45825,548.535,517.485)">
                <path d="M86.672,163.63L100.347,163.63L100.347,177.301L86.672,177.301L86.672,163.63ZM93.507,167.839C94.962,167.839 96.137,169.016 96.137,170.465C96.137,171.915 94.962,173.092 93.507,173.092C92.059,173.092 90.882,171.915 90.882,170.465C90.882,169.016 92.059,167.839 93.507,167.839" style="fill:rgb(8,155,171);"/>
            </g>
            <g transform="matrix(3.24363,0,0,3.45825,548.535,517.485)">
                <path d="M111.381,163.63L125.056,163.63L125.056,177.301L111.381,177.301L111.381,163.63ZM118.217,167.839C119.669,167.839 120.845,169.016 120.845,170.465C120.845,171.915 119.669,173.092 118.217,173.092C116.767,173.092 115.591,171.915 115.591,170.465C115.591,169.016 116.767,167.839 118.217,167.839" style="fill:rgb(8,155,171);"/>
            </g>
            <g transform="matrix(3.24363,0,0,3.45825,548.535,517.485)">
                <path d="M137.761,163.63L151.436,163.63L151.436,177.301L137.761,177.301L137.761,163.63ZM144.597,167.839C146.049,167.839 147.225,169.016 147.225,170.465C147.225,171.915 146.049,173.092 144.597,173.092C143.148,173.092 141.97,171.915 141.97,170.465C141.972,169.016 143.148,167.839 144.597,167.839" style="fill:rgb(8,155,171);"/>
            </g>
            <g transform="matrix(3.24363,0,0,3.45825,548.535,517.485)">
                <path d="M325.308,289.4C321.919,289.4 321.919,284.149 325.308,284.149C328.695,284.149 328.695,289.4 325.308,289.4M312.346,293.61L298.674,293.61L298.674,279.937L312.346,279.937L312.346,293.61ZM292.549,88.272L292.549,101.943L287.612,101.943L287.363,114.481L323.144,114.481L323.144,101.943L318.471,101.943L318.471,88.272L332.143,88.272L332.143,101.943L328.38,101.943L328.38,119.715L282.017,119.715L282.371,101.943L278.878,101.943L278.878,88.272L292.549,88.272ZM305.511,289.4C302.121,289.4 302.123,284.149 305.511,284.149C308.897,284.149 308.901,289.399 305.511,289.4M292.549,293.61L278.878,293.61L278.878,279.937L292.549,279.937L292.549,293.61ZM285.714,289.4C282.325,289.4 282.325,284.149 285.714,284.149C289.102,284.149 289.102,289.399 285.714,289.4M325.308,228.629C321.919,228.629 321.919,223.375 325.308,223.375C328.695,223.375 328.695,228.629 325.308,228.629M305.511,228.629C302.121,228.629 302.123,223.375 305.511,223.375C308.897,223.375 308.901,228.629 305.511,228.629M285.714,228.629C282.325,228.629 282.325,223.375 285.714,223.375C289.102,223.375 289.102,228.629 285.714,228.629M265.918,228.629C262.527,228.629 262.529,223.375 265.918,223.375C269.308,223.375 269.308,228.629 265.918,228.629M246.12,228.629C242.731,228.629 242.733,223.375 246.12,223.375C249.508,223.375 249.512,228.629 246.12,228.629M325.308,158.506C321.919,158.506 321.919,153.251 325.308,153.253C328.695,153.254 328.695,158.506 325.308,158.506M305.511,158.506C302.121,158.506 302.123,153.251 305.511,153.253C308.897,153.254 308.901,158.506 305.511,158.506M285.714,158.506C282.325,158.506 282.325,153.251 285.714,153.253C289.102,153.254 289.102,158.506 285.714,158.506M325.308,97.733C321.919,97.733 321.919,92.481 325.308,92.481C328.695,92.481 328.695,97.732 325.308,97.733M265.918,97.733C262.529,97.733 262.527,92.481 265.918,92.481C269.308,92.481 269.306,97.732 265.918,97.733M345.231,269.49C341.435,269.49 341.43,263.601 345.231,263.601C349.03,263.601 349.03,269.489 345.231,269.49M345.231,249.455C341.435,249.455 341.43,243.566 345.231,243.566C349.032,243.568 349.029,249.453 345.231,249.455M265.092,184.675C261.292,184.675 261.291,178.787 265.092,178.787C268.89,178.787 268.889,184.673 265.092,184.675M365.267,188.347C361.468,188.347 361.466,182.461 365.267,182.461C369.066,182.461 369.063,188.347 365.267,188.347M365.267,159.297C361.468,159.297 361.468,153.409 365.267,153.409C369.066,153.409 369.066,159.297 365.267,159.297M345.231,138.595C341.435,138.595 341.43,132.707 345.231,132.707C349.03,132.707 349.03,138.595 345.231,138.595M345.231,118.561C341.43,118.561 341.435,112.671 345.231,112.672C349.03,112.672 349.03,118.56 345.231,118.561M358.328,289.177L332.143,289.177L332.143,293.61L318.471,293.61L318.471,279.937L332.143,279.937L332.143,283.94L358.59,283.94C361.741,276.53 373.21,278.578 373.21,286.914C373.21,295.641 360.853,297.286 358.328,289.177M268.275,232.837L268.275,245.308L277.154,255.047L342.176,254.42L342.176,253.484C334.85,250.272 336.937,238.897 345.231,238.899C354.003,238.899 355.597,251.357 347.416,253.804L347.416,259.252C355.598,261.702 354.002,274.158 345.231,274.158C337.047,274.158 334.855,263.03 341.981,259.661L274.861,260.306L263.037,247.337L263.037,232.837L259.083,232.837L259.083,219.164L272.754,219.164L272.754,232.837L268.275,232.837ZM288.276,176.024L307.993,205.429L308.312,219.164L312.346,219.164L312.346,232.837L298.674,232.837L298.674,219.164L303.074,219.164L302.792,207.078L283.107,177.716L282.469,162.715L278.878,162.715L278.878,149.043L292.549,149.043L292.549,162.715L287.708,162.715L288.276,176.024ZM307.621,176.797L317.919,183.945L357.7,184.563C358.736,175.164 372.877,175.869 372.877,185.404C372.877,192.903 363.231,195.658 359.065,189.821L316.241,189.161L302.495,179.614L301.806,162.715L298.674,162.715L298.674,149.043L312.346,149.043L312.346,162.715L307.048,162.715L307.621,176.797ZM358.165,159.099L332.143,158.805L332.143,162.715L318.471,162.715L318.471,149.043L332.143,149.043L332.143,153.567L358.071,153.861C360.806,145.974 372.877,147.75 372.877,156.353C372.877,164.818 361.121,166.739 358.165,159.099M263.325,203.632L263.079,189.075C254.736,186.792 256.224,174.119 265.091,174.119C273.292,174.12 275.466,185.284 268.31,188.63L268.565,203.632L277.454,203.632L288.646,215.214L288.646,219.164L292.549,219.164L292.549,232.837L287.978,232.837L287.978,244.013L322.809,243.726L322.809,232.837L318.471,232.837L318.471,219.164L332.143,219.164L332.143,232.837L328.047,232.837L328.047,248.92L282.74,249.296L282.736,232.837L278.878,232.837L278.878,219.164L283.405,219.164L283.405,217.328L275.233,208.872L256.365,208.872L248.446,216.518L248.911,219.164L252.957,219.164L252.957,232.837L239.286,232.837L239.286,219.164L243.591,219.164L242.799,214.685L254.246,203.632L263.325,203.632ZM285.714,92.481C282.325,92.401 282.325,97.732 285.714,97.733C289.563,97.733 289.214,92.565 285.714,92.481M267.251,115.274L276.366,123.819L341.84,123.181L341.84,122.434C334.865,118.957 337.124,108.003 345.231,108.003C354.189,108.003 355.572,120.882 347.079,123.001L347.079,128.266C355.574,130.385 354.186,143.264 345.231,143.264C337.124,143.264 334.862,132.31 341.84,128.834L341.84,128.419L274.313,129.076L262.059,117.587L261.742,101.943L259.083,101.943L259.083,88.272L272.754,88.272L272.754,101.943L266.983,101.943L267.251,115.274ZM365.598,289.857C361.803,289.857 361.803,283.971 365.598,283.971C369.4,283.972 369.4,289.857 365.598,289.857" style="fill:rgb(8,155,171);"/>
            </g>
            <g transform="matrix(3.24363,0,0,3.45825,548.535,517.485)">
                <path d="M190.354,217.63L190.354,203.956L185.418,203.956L185.168,191.42L220.951,191.42L220.951,203.956L216.274,203.956L216.274,217.63L229.949,217.63L229.949,203.956L226.187,203.956L226.187,186.184L179.823,186.184L180.177,203.956L176.683,203.956L176.683,217.63L190.354,217.63ZM223.113,208.165C219.724,208.165 219.723,213.418 223.113,213.418C226.5,213.418 226.5,208.168 223.113,208.165M163.725,208.165C160.333,208.165 160.332,213.418 163.725,213.418C167.112,213.418 167.112,208.168 163.725,208.165M243.036,167.305C239.237,167.305 239.236,173.191 243.036,173.191C246.833,173.191 246.833,167.305 243.036,167.305M243.036,187.338C239.236,187.338 239.237,193.229 243.036,193.228C246.833,193.228 246.833,187.339 243.036,187.338M183.518,213.418C180.13,213.499 180.13,208.168 183.518,208.165C187.368,208.165 187.02,213.334 183.518,213.418M165.057,190.625L174.171,182.079L239.646,182.72L239.646,183.464C232.669,186.942 234.928,197.897 243.036,197.897C251.993,197.897 253.378,185.016 244.884,182.897L244.884,177.635C253.379,175.514 251.988,162.637 243.036,162.637C234.929,162.637 232.667,173.588 239.646,177.066L239.646,177.48L172.121,176.823L159.863,188.313L159.549,203.956L156.887,203.956L156.887,217.63L170.559,217.63L170.559,203.956L164.79,203.956L165.057,190.625Z" style="fill:rgb(8,155,171);"/>
            </g>
            <g transform="matrix(3.24363,0,0,3.45825,548.535,517.485)">
                <path d="M459.319,166.301L472.995,166.301L472.995,179.973L459.319,179.973L459.319,166.301ZM466.154,170.511C467.606,170.511 468.783,171.687 468.783,173.136C468.783,174.587 467.606,175.763 466.154,175.763C464.705,175.763 463.527,174.587 463.527,173.136C463.527,171.687 464.705,170.511 466.154,170.511" style="fill:rgb(8,155,171);"/>
            </g>
            <g transform="matrix(3.24363,0,0,3.45825,548.535,517.485)">
                <path d="M484.027,166.301L497.702,166.301L497.702,179.973L484.027,179.973L484.027,166.301ZM490.862,170.511C492.316,170.511 493.493,171.687 493.493,173.136C493.493,174.587 492.316,175.763 490.862,175.763C489.413,175.763 488.238,174.587 488.238,173.136C488.238,171.687 489.413,170.511 490.862,170.511" style="fill:rgb(8,155,171);"/>
            </g>
            <g transform="matrix(3.24363,0,0,3.45825,548.535,517.485)">
                <path d="M510.407,166.301L524.083,166.301L524.083,179.973L510.407,179.973L510.407,166.301ZM517.242,170.511C518.696,170.511 519.872,171.687 519.872,173.136C519.872,174.587 518.696,175.763 517.242,175.763C515.796,175.763 514.617,174.587 514.617,173.136C514.619,171.687 515.796,170.511 517.242,170.511" style="fill:rgb(8,155,171);"/>
            </g>
        </g>
    </g>
</svg>
